<?xml version="1.0" standalone="no"?>
<!DOCTYPE svg PUBLIC "-//W3C//DTD SVG 1.1//EN" "http://www.w3.org/Graphics/SVG/1.1/DTD/svg11.dtd" >
<svg>
<metadata>
Created by FontForge 20090914 at Mon Jun 18 04:50:50 2012
 By www-data
Copyright (c) 2011, Sol Matas (www.huertatipografica.com.ar), with Reserved Font Name "Bitter"
</metadata>
<defs>
<font id="Bitter-Bold" horiz-adv-x="592" >
  <font-face 
    font-family="Bitter"
    font-weight="700"
    font-stretch="normal"
    units-per-em="1000"
    panose-1="2 0 0 0 0 0 0 0 0 0"
    ascent="800"
    descent="-200"
    x-height="540"
    cap-height="705"
    bbox="-67 -265 1258 957"
    underline-thickness="50"
    underline-position="-50"
    unicode-range="U+0020-U+FB02"
  />
<missing-glyph horiz-adv-x="235" 
 />
    <glyph glyph-name=".notdef" horiz-adv-x="235" 
 />
    <glyph glyph-name="space" unicode=" " horiz-adv-x="235" 
 />
    <glyph glyph-name="exclam" unicode="!" horiz-adv-x="340" 
d="M247 765l-18 -504l-120 -5l-18 509h156zM85 78c0 27.333 8.50098 49.168 25.501 65.501s37.167 24.5 60.5 24.5c27.333 0 48.166 -7.83301 62.499 -23.5s21.5 -37.834 21.5 -66.501c0 -28 -8.5 -50.167 -25.5 -66.5s-37.5 -24.5 -61.5 -24.5c-55.333 0 -83 30.333 -83 91
z" />
    <glyph glyph-name="quotedbl" unicode="&#x22;" horiz-adv-x="441" 
d="M394 782l-23 -282h-113v282h136zM192 782l-22 -282h-113v282h135z" />
    <glyph glyph-name="numbersign" unicode="#" horiz-adv-x="730" 
d="M85 367v103h111l18 130h127l-18 -130h126l17 130h127l-17 -130h94v-103h-108l-16 -123h99v-103h-113l-18 -141h-127l18 141h-125l-19 -141h-127l19 141h-93v103h106l17 123h-98zM310 367l-17 -123h126l16 123h-125z" />
    <glyph glyph-name="dollar" unicode="$" horiz-adv-x="552" 
d="M332 -146l-107 -0.000976562v135c-27.333 1.33301 -55.166 4.66602 -83.499 9.99902s-49.833 10.333 -64.5 15l-22 7v177h92l15 -75c22.667 -12 51.667 -18 87 -18c32 0 58.667 6.16699 80 18.5s32 29.833 32 52.5c0 14 -5.66699 26.333 -17 37s-26 19.5 -44 26.5
s-37.833 14 -59.5 21s-43.334 15.667 -65.001 26s-41.5 22.333 -59.5 36s-32.667 32.334 -44 56.001s-17 50.834 -17 81.501c0 50.667 15.333 92 46 124s72 53 124 63v118h107v-114c25.333 -2 51 -6 77 -12s45.667 -11.667 59 -17l20 -7l-4 -164h-86l-19 74
c-28 10 -54.667 15 -80 15c-31.333 0 -55.333 -5.83301 -72 -17.5s-25 -26.834 -25 -45.501c0 -19.333 10.5 -35.5 31.5 -48.5s46.333 -24.333 76 -34s59.5 -21.167 89.5 -34.5s55.5 -33.666 76.5 -60.999s31.5 -61 31.5 -101c0 -54 -15.833 -98.5 -47.5 -133.5
s-74.167 -58.167 -127.5 -69.5v-141z" />
    <glyph glyph-name="percent" unicode="%" horiz-adv-x="935" 
d="M179 -8l418 720h145l-418 -720h-145zM55 529c0 58 16.999 103.834 50.999 137.501s77 50.5 129 50.5c50.667 0 91.5 -15.333 122.5 -46s46.5 -74.334 46.5 -131.001c0 -57.333 -17 -103.333 -51 -138s-77.333 -52 -130 -52c-51.333 0 -92.166 14.833 -122.499 44.5
s-45.5 74.5 -45.5 134.5zM169.999 533.001c0 -64 19.333 -96 58 -96c40.667 0 61 33 61 99c0 63.333 -19.667 95 -59 95c-40 0 -60 -32.667 -60 -98zM518.999 165.001c0 58 16.999 103.834 50.999 137.501s77 50.5 129 50.5c50.667 0 91.5 -15.333 122.5 -46
s46.5 -74.334 46.5 -131.001c0 -57.333 -17 -103.333 -51 -138s-77.333 -52 -130 -52c-51.333 0 -92.166 14.833 -122.499 44.5s-45.5 74.5 -45.5 134.5zM633.998 169.002c0 -64 19.333 -96 58 -96c40.667 0 61 33 61 99c0 63.333 -19.667 95 -59 95
c-40 0 -60 -32.667 -60 -98z" />
    <glyph glyph-name="ampersand" unicode="&#x26;" horiz-adv-x="677" 
d="M426 517c-4.66699 18 -10 39.667 -16 65c-22.667 8.66699 -52.667 13 -90 13c-30.667 0 -54.167 -7.66699 -70.5 -23s-24.5 -34 -24.5 -56c0 -28.667 11.167 -51 33.5 -67s49.5 -24 81.5 -24h307v-85l-70 -23v-106c0 -69.333 -24.167 -123.833 -72.5 -163.5
s-113.833 -59.5 -196.5 -59.5c-84.667 0 -148 18 -190 54s-63 84.667 -63 146c0 24.667 5.16699 48.167 15.5 70.5s23.333 40.833 39 55.5s29.167 26.167 40.5 34.5s22 14.833 32 19.5c-34.667 21.333 -59 41 -73 59c-22 28.667 -33 61.667 -33 99
c0 62 22.5 109.333 67.5 142s106.5 49 184.5 49c34.667 0 72 -5 112 -15s68.333 -19 85 -27l-5 -158h-94zM432 225l0.000976562 91.999h-75c-43.333 0 -78.666 -9 -105.999 -27s-41 -45 -41 -81c0 -31.333 9.66699 -55.666 29 -72.999s45.666 -26 78.999 -26
c35.333 0 63.166 10 83.499 30s30.5 48.333 30.5 85z" />
    <glyph glyph-name="quotesingle" unicode="'" horiz-adv-x="240" 
d="M192 782l-22 -282h-113v282h135z" />
    <glyph glyph-name="parenleft" unicode="(" horiz-adv-x="353" 
d="M220 770l130 0.00195312c-48 -73.333 -86 -153.333 -114 -240s-42 -169.334 -42 -248.001c0 -86.667 13.833 -176.334 41.5 -269.001s65.5 -173.667 113.5 -243h-129c-58 82 -100.167 162.5 -126.5 241.5s-39.5 168.5 -39.5 268.5c0 92 13.333 175.833 40 251.5
s68.667 155.167 126 238.5z" />
    <glyph glyph-name="parenright" unicode=")" horiz-adv-x="350" 
d="M-1 770l130 -0.00292969c57.333 -83.333 99.333 -162.833 126 -238.5s40 -159.5 40 -251.5c0 -100 -13.167 -189.667 -39.5 -269s-68.5 -159.666 -126.5 -240.999h-129c48 69.333 85.833 150.333 113.5 243s41.5 182.334 41.5 269.001c0 78.667 -14 161.334 -42 248.001
s-66 166.667 -114 240z" />
    <glyph glyph-name="asterisk" unicode="*" horiz-adv-x="414" 
d="M167 617l-14 119l93 2l-9 -122l111 49l31 -90l-122 -25l82 -95l-73 -55l-65 111l11 44l45 -5l-37 26l17 40l-36 -29l-34 30l18 -43l-39 -22l45 3l10 -44l-60 -111l-77 54l82 98l-124 21l30 89z" />
    <glyph glyph-name="plus" unicode="+" horiz-adv-x="620" 
d="M42 211v118h202v204h133v-204h200v-118h-200v-211h-133v211h-202z" />
    <glyph glyph-name="comma" unicode="," horiz-adv-x="303" 
d="M71 79c0 26.667 8.16797 48.167 24.501 64.5s36.833 24.5 61.5 24.5c25.333 0 45.666 -8 60.999 -24s23 -38.667 23 -68c0 -75.333 -46 -162.333 -138 -261l-63 52c40 53.333 60 93.333 60 120c0 8 -4.83301 21 -14.5 39s-14.5 35.667 -14.5 53z" />
    <glyph glyph-name="hyphen" unicode="-" horiz-adv-x="395" 
d="M57 210v125h283v-125h-283z" />
    <glyph glyph-name="period" unicode="." horiz-adv-x="300" 
d="M65 78c0 27.333 8.5 49.168 25.5 65.501s37.167 24.5 60.5 24.5c27.333 0 48.166 -7.83301 62.499 -23.5s21.5 -37.834 21.5 -66.501c0 -28 -8.33301 -50.167 -25 -66.5s-37 -24.5 -61 -24.5c-27.333 0 -48.166 7.83301 -62.499 23.5s-21.5 38.167 -21.5 67.5z" />
    <glyph glyph-name="slash" unicode="/" horiz-adv-x="516" 
d="M20 0l333 705h153l-334 -705h-152z" />
    <glyph glyph-name="zero" unicode="0" horiz-adv-x="645" 
d="M332 717c95.333 0 162.167 -29.166 200.5 -87.499s57.5 -147.5 57.5 -267.5c0 -250 -89.333 -375 -268 -375c-91.333 0 -157.833 30.167 -199.5 90.5s-62.5 150.166 -62.5 269.499c0 121.333 21.5 213.333 64.5 276s112.167 94 207.5 94zM326.001 592.001
c-38 0 -64.833 -17.667 -80.5 -53s-23.5 -97.666 -23.5 -186.999c0 -86.667 8 -148.334 24 -185.001s42.667 -55 80 -55s63.5 18.333 78.5 55s22.5 100 22.5 190c0 88 -7.33301 149.167 -22 183.5s-41 51.5 -79 51.5z" />
    <glyph glyph-name="one" unicode="1" horiz-adv-x="538" 
d="M516 115v-115h-430v115h140v430l-153 -98l-58 106l238 152h128v-590h135z" />
    <glyph glyph-name="two" unicode="2" horiz-adv-x="607" 
d="M557 122l-0.00195312 -122h-517v122l119 97c27.333 22.667 57.5 49.167 90.5 79.5s57.167 55 72.5 74s28.333 39.333 39 61s16 42.167 16 61.5c0 30.667 -10.667 55 -32 73s-49.666 27 -84.999 27c-16 0 -31.667 -1.5 -47 -4.5s-27 -5.83301 -35 -8.5l-11 -5l-10 -85
h-105l-5 185c75.333 26.667 148.666 40 219.999 40c86.667 0 153.834 -15.167 201.501 -45.5s71.5 -80.833 71.5 -151.5c0 -34 -5.83301 -66.667 -17.5 -98s-31.167 -63.833 -58.5 -97.5s-56.166 -65 -86.499 -94s-70.5 -65.167 -120.5 -108.5h300z" />
    <glyph glyph-name="three" unicode="3" 
d="M517 537c0 -42.667 -10.668 -78.832 -32.001 -108.499s-52.333 -49.834 -93 -60.501c42 -9.33301 75.833 -28.5 101.5 -57.5s38.5 -62.5 38.5 -100.5c0 -39.333 -8.16699 -73.666 -24.5 -102.999s-38.333 -52.5 -66 -69.5s-58 -29.5 -91 -37.5s-68.167 -12 -105.5 -12
c-38 0 -75.333 4.5 -112 13.5s-63.667 17.833 -81 26.5l-27 14l42 110c60 -28 119.333 -42 178 -42c40.667 0 72 8.66699 94 26s33 42.666 33 75.999c0 30.667 -12.333 54.667 -37 72s-59.667 26 -105 26h-78v105h83c86.667 0 130 32.333 130 97
c0 25.333 -9.66699 45.5 -29 60.5s-46.333 22.5 -81 22.5c-14.667 0 -30.167 -1.16699 -46.5 -3.5s-29.166 -4.83301 -38.499 -7.5l-13 -4l-10 -80h-105l-5 175c82 28 156.333 42 223 42c171.333 0 257 -60 257 -180z" />
    <glyph glyph-name="four" unicode="4" horiz-adv-x="627" 
d="M595 265v-123h-100v-142h-154v142h-311l-15 118l313 460l167 -15v-440h100zM165 265h178v264z" />
    <glyph glyph-name="five" unicode="5" horiz-adv-x="560" 
d="M17 42l43.001 109.998c60 -28 119 -42 177 -42c33.333 0 60.666 8.83301 81.999 26.5s32 42.167 32 73.5c0 37.333 -15.5 64.5 -46.5 81.5s-77.5 25.5 -139.5 25.5h-108l17 388h410l-3 -123h-265l-7 -150c96.667 0 172.167 -18.167 226.5 -54.5
s81.5 -87.166 81.5 -152.499c0 -73.333 -25.833 -131.166 -77.5 -173.499s-113.834 -63.5 -186.501 -63.5c-40 0 -79.667 4.5 -119 13.5s-68.666 17.833 -87.999 26.5z" />
    <glyph glyph-name="six" unicode="6" horiz-adv-x="617" 
d="M510 590c-20 3.33301 -46.001 4.99707 -78.001 4.99707c-40 0 -75 -6.83301 -105 -20.5s-52.167 -30.167 -66.5 -49.5s-25.833 -38.666 -34.5 -57.999s-13.667 -35.666 -15 -48.999l-2 -21c47.333 28.667 99.333 43 156 43c64 0 116.667 -18.167 158 -54.5
s62 -88.166 62 -155.499c0 -70 -25 -128 -75 -174s-112.667 -69 -188 -69c-86 0 -152.5 28.667 -199.5 86s-70.5 131.333 -70.5 222c0 126 31.833 227.833 95.5 305.5s156.834 116.5 279.501 116.5c17.333 0 33.5 -0.833008 48.5 -2.5s25.833 -3.16699 32.5 -4.5l9 -3z
M204.999 286.997v-24c0 -52 10.833 -90.5 32.5 -115.5s49.5 -37.5 83.5 -37.5c32 0 57.667 9.5 77 28.5s29 44.5 29 76.5c0 71.333 -36 107 -108 107c-18.667 0 -37.5 -3 -56.5 -9s-33.167 -11.667 -42.5 -17z" />
    <glyph glyph-name="seven" unicode="7" horiz-adv-x="531" 
d="M5 705h510v-108l-262 -597h-165l259 580h-221l-20 -93h-101v218z" />
    <glyph glyph-name="eight" unicode="8" horiz-adv-x="618" 
d="M556 528c0 -66 -36.333 -116 -109 -150c84 -39.333 126 -96.666 126 -171.999c0 -65.333 -25.333 -118.166 -76 -158.499s-117 -60.5 -199 -60.5c-80.667 0 -143 18.833 -187 56.5s-66 87.167 -66 148.5c0 70 42.667 126.333 128 169
c-70 39.333 -105 92.666 -105 159.999c0 62 22.667 110.167 68 144.5s107 51.5 185 51.5c75.333 0 133.333 -17.333 174 -52s61 -80.334 61 -137.001zM415 202c0 25.333 -10 45.5 -30 60.5s-50 30.167 -90 45.5c-62 -28 -93 -64.333 -93 -109
c0 -28.667 9.16699 -50.667 27.5 -66s44.5 -23 78.5 -23s60.333 8 79 24s28 38.667 28 68zM217 521c0 -23.333 9.16797 -42 27.501 -56s45.166 -27.667 80.499 -41c54 22.667 81 55 81 97c0 22 -8.66699 39.833 -26 53.5s-40.333 20.5 -69 20.5
c-29.333 0 -52.333 -6.83301 -69 -20.5s-25 -31.5 -25 -53.5z" />
    <glyph glyph-name="nine" unicode="9" horiz-adv-x="617" 
d="M107 114c20 -2.66699 46.001 -3.99805 78.001 -3.99805c40.667 0 76.167 6.66699 106.5 20s52.666 29.666 66.999 48.999s25.666 38.666 33.999 57.999s12.833 35.666 13.5 48.999l2 20c-47.333 -27.333 -99.333 -41 -156 -41c-64 0 -116.667 18 -158 54
s-62 87.667 -62 155c0 70.667 25 128.834 75 174.501s112.667 68.5 188 68.5c86 0 152.5 -28.5 199.5 -85.5s70.5 -130.833 70.5 -221.5c0 -82 -13 -154.167 -39 -216.5s-67.667 -112.333 -125 -150s-127.666 -56.5 -210.999 -56.5c-17.333 0 -33.5 0.833008 -48.5 2.5
s-25.5 3.16699 -31.5 4.5l-10 3zM412.001 418.002l0.000976562 26.999c0 50.667 -10.833 88.334 -32.5 113.001s-49.5 37 -83.5 37c-32 0 -57.667 -9.5 -77 -28.5s-29 -44.833 -29 -77.5c0 -34 9.16699 -60.333 27.5 -79s45.166 -28 80.499 -28c18.667 0 37.5 3 56.5 9
s33.5 12 43.5 18z" />
    <glyph glyph-name="colon" unicode=":" horiz-adv-x="305" 
d="M67 78c0 27.333 8.49902 49.167 25.499 65.5s37.5 24.5 61.5 24.5c55.333 0 83 -30 83 -90c0 -28 -8.33301 -50.167 -25 -66.5s-37 -24.5 -61 -24.5c-27.333 0 -48.166 7.83301 -62.499 23.5s-21.5 38.167 -21.5 67.5zM66.999 378.001c0 28 8.49902 50.165 25.499 66.498
s37.5 24.5 61.5 24.5c55.333 0 83 -30.333 83 -91c0 -27.333 -8.5 -49.166 -25.5 -65.499s-37.167 -24.5 -60.5 -24.5c-27.333 0 -48.166 7.83301 -62.499 23.5s-21.5 37.834 -21.5 66.501z" />
    <glyph glyph-name="semicolon" unicode=";" horiz-adv-x="311" 
d="M106 -185l-63.999 52c40 53.333 60 93.333 60 120c0 8 -4.83301 21 -14.5 39s-14.5 35.667 -14.5 53c0 26.667 8.16699 48.167 24.5 64.5s37.166 24.5 62.499 24.5s45.5 -8 60.5 -24s22.5 -38.667 22.5 -68c0 -74.667 -45.667 -161.667 -137 -261zM73.001 378
c0 28 8.33301 50.165 25 66.498s37 24.5 61 24.5c27.333 0 48.166 -7.83301 62.499 -23.5s21.5 -38.167 21.5 -67.5c0 -27.333 -8.5 -49.166 -25.5 -65.499s-37.167 -24.5 -60.5 -24.5c-27.333 0 -48.166 7.83301 -62.499 23.5s-21.5 37.834 -21.5 66.501z" />
    <glyph glyph-name="less" unicode="&#x3c;" horiz-adv-x="597" 
d="M202 267l355 -145v-132l-517 218v120l517 219v-130z" />
    <glyph glyph-name="equal" unicode="=" horiz-adv-x="600" 
d="M50 107v115h500v-115h-500zM50 322v115h500v-115h-500z" />
    <glyph glyph-name="greater" unicode="&#x3e;" horiz-adv-x="597" 
d="M40 122l355 145l-355 150v130l517 -219v-120l-517 -218v132z" />
    <glyph glyph-name="question" unicode="?" horiz-adv-x="464" 
d="M94 78c0 27.333 8.50098 49.168 25.501 65.501s37.167 24.5 60.5 24.5c27.333 0 48.166 -7.83301 62.499 -23.5s21.5 -37.834 21.5 -66.501c0 -28 -8.5 -50.167 -25.5 -66.5s-37.5 -24.5 -61.5 -24.5c-55.333 0 -83 30.333 -83 91zM236.001 253.002l-132.999 -5.99609
c-6 43.333 -9 76 -9 98c0 21.333 8.83301 43.166 26.5 65.499s37 41.333 58 57s40.333 34.167 58 55.5s26.5 42.333 26.5 63c0 44 -30 66 -90 66c-12.667 0 -26.5 -1 -41.5 -3s-26.833 -3.66699 -35.5 -5l-12 -3l-19 104c55.333 16 105 24 149 24c36 0 68.333 -4.5 97 -13.5
s53 -25.5 73 -49.5s30 -54.667 30 -92c0 -28.667 -6.16699 -55.667 -18.5 -81s-27.333 -47.333 -45 -66s-35.334 -36.334 -53.001 -53.001s-32.667 -33.834 -45 -51.501s-18.5 -34.834 -18.5 -51.501z" />
    <glyph glyph-name="at" unicode="@" horiz-adv-x="820" 
d="M593 147c-56.667 0 -96.666 20.6689 -119.999 62.002l-16 -16c-6.66699 -6.66699 -20.334 -15.334 -41.001 -26.001s-41 -16 -61 -16c-35.333 0 -63 10.333 -83 31s-30 48.667 -30 84c0 79.333 56 119 168 119h46v34c0 31.333 -19.333 47 -58 47
c-13.333 0 -29 -1.33301 -47 -4s-32.667 -5.33398 -44 -8.00098l-17 -5l-19 74c53.333 20 103.666 30 150.999 30c51.333 0 88.666 -10 111.999 -30s35 -52 35 -96v-166c0 -23.333 11.667 -35 35 -35c20.667 0 36.834 11.5 48.501 34.5s17.5 56.5 17.5 100.5
c0 81.333 -21.833 144.833 -65.5 190.5s-106.5 68.5 -188.5 68.5c-82.667 0 -146.5 -23.5 -191.5 -70.5s-67.5 -113.5 -67.5 -199.5c0 -86.667 19.5 -153 58.5 -199s98.167 -69 177.5 -69c20 0 40.5 2 61.5 6s36.833 8 47.5 12l16 7l41 -82l-22 -11
c-9.33301 -4.66699 -29 -10.667 -59 -18s-60.667 -11 -92 -11c-109.333 0 -193.166 30.833 -251.499 92.5s-87.5 150.834 -87.5 267.501c0 114.667 33.833 205.334 101.5 272.001s158.5 100 272.5 100c111.333 0 199 -30.333 263 -91s96 -147.334 96 -260.001
c0 -68.667 -17.5 -122.334 -52.5 -161.001s-79.833 -58 -134.5 -58zM347.001 275.002c0 -11.333 3.66602 -20.333 10.999 -27s17.333 -10 30 -10c22.667 0 45.334 11.333 68.001 34v47h-39c-46.667 0 -70 -14.667 -70 -44z" />
    <glyph glyph-name="A" unicode="A" horiz-adv-x="762" 
d="M465 705l215 -595l70 -23v-87h-318v87l75 23l-24 75h-222l-25 -74l78 -24v-87h-302v87l73 23l220 592zM375 529l-79 -237h154z" />
    <glyph glyph-name="B" unicode="B" horiz-adv-x="657" 
d="M267 705l105 -0.000976562c67.333 0 120.833 -14.5 160.5 -43.5s59.5 -72.167 59.5 -129.5c0 -84.667 -40 -139.667 -120 -165c95.333 -27.333 143 -80.666 143 -159.999c0 -138 -86.667 -207 -260 -207h-315v87c16.667 6 41.667 14.333 75 25v475l-75 30v83z
M325 311.999h-58.001v-195h83c34.667 0 61.167 8 79.5 24s27.5 38 27.5 66c0 36 -10.667 62.5 -32 79.5s-54.666 25.5 -99.999 25.5zM266.999 586.999v-170h58c74.667 0 112 31 112 93c0 25.333 -7.83301 44.5 -23.5 57.5s-36.167 19.5 -61.5 19.5h-85z" />
    <glyph glyph-name="C" unicode="C" horiz-adv-x="652" 
d="M484 576c-31.333 10.667 -68.668 16 -112.001 16c-110 0 -165 -81.667 -165 -245c0 -153.333 56.667 -230 170 -230c29.333 0 59.833 5.83301 91.5 17.5s56.167 23.5 73.5 35.5l25 17l55 -90l-12 -11.5c-5.33301 -5 -16.833 -13.833 -34.5 -26.5
s-36.167 -23.667 -55.5 -33s-43.5 -18 -72.5 -26s-58.167 -12 -87.5 -12c-102 0 -180.833 30.167 -236.5 90.5s-83.5 148.166 -83.5 263.499c0 116.667 30.333 208.334 91 275.001s142.667 100 246 100c36 0 73.333 -3.83301 112 -11.5s68.334 -15.5 89.001 -23.5l32 -12
l-5 -190h-98z" />
    <glyph glyph-name="D" unicode="D" horiz-adv-x="730" 
d="M52 0l0.000976562 87l75 25v475l-75 30v83l230 5h95c101.333 0 179.666 -29.333 234.999 -88s83 -143.667 83 -255c0 -112 -30 -200.333 -90 -265s-141 -97 -243 -97h-310zM282.001 587v-470h83c52 0 92 18.5 120 55.5s42 98.5 42 184.5c0 81.333 -13.167 140 -39.5 176
s-64.833 54 -115.5 54h-90z" />
    <glyph glyph-name="E" unicode="E" horiz-adv-x="627" 
d="M285 587v-167h202v-110h-202v-193h177l23 83h92v-200h-522v87l75 25v475l-75 30v83l230 5h280v-193h-93l-25 75h-162z" />
    <glyph glyph-name="F" unicode="F" horiz-adv-x="580" 
d="M367 87v-87h-322v87c16.667 6 41.667 14.333 75 25v475l-75 30v83l230 5h280v-190h-93l-25 72h-162v-177h207v-110h-207v-188c52 -14 82.667 -22.333 92 -25z" />
    <glyph glyph-name="G" unicode="G" horiz-adv-x="750" 
d="M527 490l-25 85.998c-31.333 10.667 -69 16 -113 16c-111.333 0 -167 -81.667 -167 -245c0 -154.667 56.667 -232 170 -232c15.333 0 32.166 1.5 50.499 4.5s32.833 5.83301 43.5 8.5l16 5v126l-75 23v82l288 5v-87l-68 -23v-204
c-8 -5.33301 -19.167 -11.666 -33.5 -18.999s-45.166 -17.166 -92.499 -29.499s-96 -18.5 -146 -18.5c-102 0 -180.833 30.167 -236.5 90.5s-83.5 148.166 -83.5 263.499c0 116.667 30.333 208.334 91 275.001s142.667 100 246 100c36 0 73.333 -3.83301 112 -11.5
s68.667 -15.5 90 -23.5l31 -12l-5 -180h-93z" />
    <glyph glyph-name="H" unicode="H" horiz-adv-x="792" 
d="M342 87v-87h-307v87l75 25v475l-75 30v83l307 5v-88l-77 -30v-165h262v165l-77 30v83l307 5v-88l-75 -30v-475l75 -25v-87h-307v87l77 25v193h-262v-193z" />
    <glyph glyph-name="I" unicode="I" horiz-adv-x="375" 
d="M340 87v-87h-305v87l75 25v475l-75 30v83l305 5v-88l-75 -30v-475z" />
    <glyph glyph-name="J" unicode="J" horiz-adv-x="382" 
d="M272 587l0.000976562 -481c0 -90.667 -16.833 -157.167 -50.5 -199.5s-92.834 -63.5 -177.501 -63.5l-76 7l13 100h48c58.667 0 88 32 88 96v541l-75 30v83l305 5v-88z" />
    <glyph glyph-name="K" unicode="K" horiz-adv-x="735" 
d="M347 87v-87h-307v87l75 25v475l-75 30v83l307 5v-88l-77 -30v-172h68l167 285l182 5v-88l-89 -28l-132 -218l187 -259l74 -25v-87h-307v87l58 24l-135 194h-73v-193z" />
    <glyph glyph-name="L" unicode="L" horiz-adv-x="540" 
d="M262 587v-470h153l22 113h95v-230h-500v87l75 25v475l-75 30v83l305 5v-88z" />
    <glyph glyph-name="M" unicode="M" horiz-adv-x="877" 
d="M322 87v-87h-285v87l75 25v475l-75 30v83l258 5l150 -333l157 328l240 5v-88l-72 -30v-475l75 -25v-87h-298v87l78 25v379c-12 -31.333 -25.833 -63.833 -41.5 -97.5l-53 -110l-45.5 -93.5l-108 -5l-115 237l-17 52v-362z" />
    <glyph glyph-name="N" unicode="N" horiz-adv-x="785" 
d="M325 87v-87h-290v87l75 25v475l-75 30v83l240 5l270 -462v344l-73 30v83l285 5v-88l-75 -30v-587h-167l-268 453v-341z" />
    <glyph glyph-name="O" unicode="O" horiz-adv-x="755" 
d="M385 717c100 0 177.5 -31.165 232.5 -93.498s82.5 -149.5 82.5 -261.5c0 -112.667 -30.833 -203.334 -92.5 -272.001s-142.5 -103 -242.5 -103s-176.667 30.667 -230 92s-80 150.666 -80 267.999c0 114.667 29.5 205 88.5 271s139.5 99 241.5 99zM380 592.002
c-52 0 -91.334 -18.5 -118.001 -55.5s-40 -98.5 -40 -184.5c0 -82 12.167 -142.5 36.5 -181.5s61.5 -58.5 111.5 -58.5c52.667 0 92.834 19.167 120.501 57.5s41.5 100.833 41.5 187.5c0 81.333 -12.667 140.833 -38 178.5s-63.333 56.5 -114 56.5z" />
    <glyph glyph-name="P" unicode="P" horiz-adv-x="630" 
d="M347 87v-87.001h-305v87l75 25v475l-75 30v83l230 5h95c76 0 135.5 -18.667 178.5 -56s64.5 -88.666 64.5 -153.999c0 -82.667 -24.5 -145 -73.5 -187s-119.5 -63 -211.5 -63h-53v-133zM272 586.999v-225h53c42 0 74.167 9.66699 96.5 29s33.5 47.333 33.5 84
c0 33.333 -8.83301 60.333 -26.5 81s-43.167 31 -76.5 31h-80z" />
    <glyph glyph-name="Q" unicode="Q" horiz-adv-x="742" 
d="M542 -147l-201.997 135.998c-92.667 6 -163.334 39.333 -212.001 100s-73 146.667 -73 258c0 114 30.333 204.167 91 270.5s142.667 99.5 246 99.5c102 0 180.5 -31.167 235.5 -93.5s82.5 -149.5 82.5 -261.5c0 -86 -18.333 -159.667 -55 -221
s-87.667 -104.666 -153 -129.999c5.33301 -3.33301 20.166 -13.166 44.499 -29.499s42.166 -27.833 53.499 -34.5s26.5 -13.667 45.5 -21s35.5 -11 49.5 -11c9.33301 0 21.666 2.83301 36.999 8.5s28.333 11.5 39 17.5l16 9l29 -44c12.667 -19.333 20.667 -31.333 24 -36
c-8 -5.33301 -18.333 -11.833 -31 -19.5s-34.167 -18 -64.5 -31s-55.166 -19.5 -74.499 -19.5c-33.333 0 -76 17.667 -128 53zM387.003 591.998c-56.667 0 -98.668 -19.168 -126.001 -57.501s-41 -99.166 -41 -182.499c0 -160 52.333 -240 157 -240
c56.667 0 98.834 20 126.501 60s41.5 101.667 41.5 185c0 80.667 -12.667 140 -38 178s-65.333 57 -120 57z" />
    <glyph glyph-name="R" unicode="R" horiz-adv-x="680" 
d="M342 87l-0.000976562 -87.001h-302v87l75 25v475l-75 30v83l230 5h76c83.333 0 147.5 -17.167 192.5 -51.5s67.5 -85.166 67.5 -152.499c0 -88.667 -37.667 -151.667 -113 -189c16.667 -19.333 30.667 -41 42 -65l67 -137l68 -23v-87h-185l-84 185
c-18 40 -32.167 65.333 -42.5 76s-28.166 16 -53.499 16h-35v-165zM269.999 586.999v-204.999h57c39.333 0 70 9.16699 92 27.5s33 44.166 33 77.499c0 30 -9 54.167 -27 72.5s-42.333 27.5 -73 27.5h-82z" />
    <glyph glyph-name="S" unicode="S" horiz-adv-x="604" 
d="M162 217l14.9971 -83.9941c26.667 -14 59.334 -21 98.001 -21c34 0 62.667 7.16699 86 21.5s35 34.166 35 59.499c0 18 -8.33301 33.667 -25 47s-37.5 23.666 -62.5 30.999s-52.167 17.166 -81.5 29.499s-56.5 25.666 -81.5 39.999s-45.833 35.666 -62.5 63.999
s-25 61.833 -25 100.5c0 67.333 23.5 119.5 70.5 156.5s108.167 55.5 183.5 55.5c33.333 0 68.333 -3.33301 105 -10s65 -13.334 85 -20.001l30 -10l-5 -182h-92l-25 85c-30 10 -59.333 15 -88 15c-34 0 -60.167 -6.66699 -78.5 -20s-27.5 -30.333 -27.5 -51
c0 -18 8.33301 -33.667 25 -47s37.5 -23.833 62.5 -31.5s52 -17.5 81 -29.5s56 -25 81 -39s45.833 -34.667 62.5 -62s25 -59.333 25 -96c0 -72.667 -25.167 -129.5 -75.5 -170.5s-115.166 -61.5 -194.499 -61.5c-33.333 0 -68.666 3.16699 -105.999 9.5
s-66.333 12.833 -87 19.5l-30 9v192h102z" />
    <glyph glyph-name="T" unicode="T" horiz-adv-x="600" 
d="M140 0v87l82 25v475h-95l-25 -95h-92v210l580 3v-213h-93l-25 95h-95v-475l83 -25v-87h-320z" />
    <glyph glyph-name="U" unicode="U" horiz-adv-x="782" 
d="M262 587v-316.999c0 -58 9.66699 -99.167 29 -123.5s53 -36.5 101 -36.5c50.667 0 84.667 13.5 102 40.5s26 71.833 26 134.5v302l-78 30v83l308 5v-88l-75 -30v-302c0 -100 -22 -174.5 -66 -223.5s-118 -73.5 -222 -73.5c-98.667 0 -170 22.667 -214 68
s-66 116.666 -66 213.999v317l-75 30v83l308 5v-88z" />
    <glyph glyph-name="V" unicode="V" horiz-adv-x="729" 
d="M277 0l-202 589l-68 28v83l310 5v-88l-74 -29l92 -289l32 -123l32 118l99 293l-76 30v83l299 5v-88l-73 -30l-211 -587h-160z" />
    <glyph glyph-name="W" unicode="W" horiz-adv-x="1035" 
d="M237 0l-162 588l-70 29v83l297 5v-88l-73 -30l86 -362l140 472l135 8l134 -479l96 361l-75 30v83l285 5v-88l-72 -30l-171 -587h-142l-131 475c-16 -65.333 -42.167 -157.5 -78.5 -276.5l-60.5 -198.5h-138z" />
    <glyph glyph-name="X" unicode="X" horiz-adv-x="740" 
d="M307 87v-87h-297v87l62 21l202 246l-186 244l-58 19v83l300 5v-88l-50 -17l103 -139l98 135l-54 21v83l288 5v-88l-66 -20l-184 -235l195 -255l70 -20v-87h-310v87l46 16l-110 150l-112 -146z" />
    <glyph glyph-name="Y" unicode="Y" horiz-adv-x="667" 
d="M485 87v-87h-305v87l75 25v132l-183 346l-65 27v83l283 5v-88l-51 -21l100 -217l106 216l-55 22v83l270 5v-88l-69 -27l-181 -345v-133z" />
    <glyph glyph-name="Z" unicode="Z" horiz-adv-x="615" 
d="M582 0h-552v102l355 485h-210l-25 -90h-95v208h530v-113l-348 -475h228l22 103h95v-220z" />
    <glyph glyph-name="bracketleft" unicode="[" horiz-adv-x="352" 
d="M317 -123v-102l-250 -5v1000l250 -5v-103l-119 -11v-763z" />
    <glyph glyph-name="backslash" unicode="\" horiz-adv-x="506" 
d="M160 705l333 -705h-152l-334 705h153z" />
    <glyph glyph-name="bracketright" unicode="]" horiz-adv-x="352" 
d="M32 -225v103l120 11v762l-120 11v103l250 5v-1000z" />
    <glyph glyph-name="asciicircum" unicode="^" horiz-adv-x="595" 
d="M295 565l-120 -245h-125l192 385h110l193 -385h-129z" />
    <glyph glyph-name="underscore" unicode="_" horiz-adv-x="500" 
d="M0 -180v100h500v-100h-500z" />
    <glyph glyph-name="grave" unicode="`" horiz-adv-x="418" 
d="M299 627l-227 112l58 109l216 -141z" />
    <glyph glyph-name="a" unicode="a" 
d="M570 7l-198.001 -6.99805l-18 65l-24 -20.5c-10 -8.33301 -29.167 -19.5 -57.5 -33.5s-55.166 -21 -80.499 -21c-48.667 0 -86.667 13.667 -114 41s-41 66 -41 116c0 110 80 165 240 165h70v55c0 50 -25.667 75 -77 75c-15.333 0 -30.333 -1.33301 -45 -4
s-25.667 -5.33398 -33 -8.00098l-10 -3l-15 -65h-90l-7 148c80.667 26.667 153 40 217 40c76 0 129.667 -14.833 161 -44.5s47 -80.834 47 -153.501v-247l75 -18v-80zM180.999 162.002c0 -40 19.667 -60 59 -60c16 0 32.833 4.83301 50.5 14.5s31.5 19.5 41.5 29.5l15 14v67
h-57c-38.667 0 -66.5 -5.16699 -83.5 -15.5s-25.5 -26.833 -25.5 -49.5z" />
    <glyph glyph-name="b" unicode="b" horiz-adv-x="595" 
d="M-10 767l222 7.99902v-278c46 35.333 93.667 53 143 53c66.667 0 117.5 -23 152.5 -69s52.5 -111.333 52.5 -196c0 -95.333 -24.667 -168.666 -74 -219.999s-121.333 -77 -216 -77c-32.667 0 -66 1.83301 -100 5.5s-60 7.16699 -78 10.5l-27 6v657l-75 20v80z
M212 386.999v-274c15.333 -5.33301 40 -8 74 -8c79.333 0 119 56.667 119 170c0 104.667 -32.667 157 -98 157c-18 0 -34.833 -3.66699 -50.5 -11s-27.167 -15 -34.5 -23z" />
    <glyph glyph-name="c" unicode="c" horiz-adv-x="515" 
d="M455 160l50.002 -84.999c-64.667 -56.667 -136.334 -85 -215.001 -85c-82 0 -145.833 24 -191.5 72s-68.5 114.667 -68.5 200c0 89.333 24.167 159.666 72.5 210.999s115.833 77 202.5 77c25.333 0 52.666 -2.83301 81.999 -8.5s52.333 -11.5 69 -17.5l24 -9l-5 -163h-90
l-14 72c-19.333 5.33301 -42.333 8 -69 8c-37.333 0 -66.166 -12.5 -86.499 -37.5s-30.5 -62.5 -30.5 -112.5c0 -56.667 10.5 -100 31.5 -130s52.167 -45 93.5 -45c13.333 0 26 1.16699 38 3.5s23.667 5.83301 35 10.5s20.166 8.66699 26.499 12s15 8.33301 26 15
s17.5 10.667 19.5 12z" />
    <glyph glyph-name="d" unicode="d" horiz-adv-x="625" 
d="M607 7l-210 -7.00098l-9 53c-42 -42 -92.333 -63 -151 -63c-68.667 0 -120 23.333 -154 70s-51 112.334 -51 197.001c0 94.667 23.833 167.167 71.5 217.5s118.167 75.5 211.5 75.5c22 0 43.667 -3.33301 65 -10v127l-80 20v80l227 8v-668l80 -20v-80zM380 163.999v256
c-16.667 10 -42.667 15 -78 15c-76.667 0 -115 -56.667 -115 -170c0 -105.333 32 -158 96 -158c18.667 0 36.167 4.83301 52.5 14.5s27.833 19.167 34.5 28.5z" />
    <glyph glyph-name="e" unicode="e" horiz-adv-x="557" 
d="M524 240l-332 -3c2.66699 -41.333 14.834 -73.333 36.501 -96s49.5 -34 83.5 -34c24.667 0 51 3.83301 79 11.5s49.667 15.5 65 23.5l24 12l43 -80c-7.33301 -6 -17.666 -13.667 -30.999 -23s-40 -21.833 -80 -37.5s-79 -23.5 -117 -23.5
c-84.667 0 -149.167 23.5 -193.5 70.5s-66.5 113.5 -66.5 199.5c0 88.667 23.667 159.167 71 211.5s112.666 78.5 195.999 78.5c73.333 0 129.666 -21 168.999 -63s59 -99.333 59 -172zM292 433c-27.333 0 -49.5 -9.33301 -66.5 -28s-27.5 -43.667 -31.5 -75h180
c0 68.667 -27.333 103 -82 103z" />
    <glyph glyph-name="f" unicode="f" horiz-adv-x="465" 
d="M142 530l-0.000976562 45c0 65.333 18.333 117 55 155s89.334 57 158.001 57c32 0 62.5 -3.16699 91.5 -9.5s50.167 -12.5 63.5 -18.5l20 -9l-3 -148h-87l-15 74c-16.667 2.66699 -36 4 -58 4c-51.333 0 -77 -29.333 -77 -88v-62h130l-3 -100h-127v-325l96 -25v-80h-324
v80l80 25v325h-90v85z" />
    <glyph glyph-name="g" unicode="g" horiz-adv-x="615" 
d="M42 -110c0 25.333 8.66992 47.998 26.0029 67.998s34.666 33.667 51.999 41l27 11c-4.66699 0.666992 -10.334 2 -17.001 4s-15.5 8.66699 -26.5 20s-16.5 25.333 -16.5 42c0 20.667 17.333 58.334 52 113.001c-51.333 34 -77 86 -77 156c0 66 22.167 116.667 66.5 152
s102.166 53 173.499 53c44.667 0 84 -8 118 -24l172 4v-80l-82 -14c0 -0.666992 1.66699 -5.16699 5 -13.5s6.16602 -18.166 8.49902 -29.499s3.5 -23.333 3.5 -36c0 -69.333 -21.667 -120.833 -65 -154.5s-101.666 -50.5 -174.999 -50.5c-8 0 -15.833 0.333008 -23.5 1
s-14 1.5 -19 2.5s-7.83301 1.5 -8.5 1.5l-4 -67h148c64 0 113.333 -13.333 148 -40s52 -65 52 -115c0 -57.333 -23.5 -103.333 -70.5 -138s-116.833 -52 -209.5 -52c-84 0 -148 11 -192 33s-66 59.333 -66 112zM297.003 446.998c-56.667 0 -85 -31.667 -85 -95
c0 -66.667 26.667 -100 80 -100c30.667 0 52.5 8 65.5 24s19.5 41.333 19.5 76c0 63.333 -26.667 95 -80 95zM340.003 -20.002l-105.001 -0.000976562c-3.33301 -1.33301 -7.66602 -3.66602 -12.999 -6.99902s-12.5 -10.666 -21.5 -21.999s-13.5 -23.333 -13.5 -36
c0 -24 9.83301 -40 29.5 -48s51.5 -12 95.5 -12c45.333 0 78 5.33301 98 16s30 28 30 52c0 21.333 -7.83301 36.166 -23.5 44.499s-41.167 12.5 -76.5 12.5z" />
    <glyph glyph-name="h" unicode="h" horiz-adv-x="667" 
d="M25 767l227 8.00098v-293c54.667 45.333 110.667 68 168 68c50 0 88.333 -15.833 115 -47.5s40 -75.834 40 -132.501v-265l70 -25v-80h-270v80l52 24v243c0 53.333 -22 80 -66 80c-16.667 0 -34 -4.5 -52 -13.5s-32 -17.833 -42 -26.5l-15 -13v-269l53 -25v-80h-280v80
l80 25v562l-80 20v80z" />
    <glyph glyph-name="i" unicode="i" horiz-adv-x="358" 
d="M35 532l227 8v-435l70 -25v-80h-297v80l80 25v327l-80 20v80zM96 705c0 27.333 8.5 49.167 25.5 65.5s37.167 24.5 60.5 24.5c56 0 84 -30 84 -90c0 -28 -8.5 -50.167 -25.5 -66.5s-36.5 -24.5 -58.5 -24.5c-27.333 0 -48.5 7.83301 -63.5 23.5s-22.5 38.167 -22.5 67.5z
" />
    <glyph glyph-name="j" unicode="j" horiz-adv-x="319" 
d="M29 -245l-76 7.00098l12 93h52c29.333 0 50.333 8.16699 63 24.5s19 41.166 19 74.499v478l-80 20v80l228 8v-527c0 -90 -16 -155.5 -48 -196.5s-88.667 -61.5 -170 -61.5zM79 705.001c0 26.667 8.16602 48.333 24.499 65s36.833 25 61.5 25c56 0 84 -30 84 -90
c0 -26.667 -8.16699 -48.5 -24.5 -65.5s-36.166 -25.5 -59.499 -25.5c-27.333 0 -48.5 7.83301 -63.5 23.5s-22.5 38.167 -22.5 67.5z" />
    <glyph glyph-name="k" unicode="k" horiz-adv-x="635" 
d="M25 767l227 8v-438h65l69 106l-44 14v80l258 5v-85l-70 -13l-93 -133l112 -207l76 -24v-80h-185l-124 245h-64v-140l55 -25v-80h-282v80l80 25v562l-80 20v80z" />
    <glyph glyph-name="l" unicode="l" horiz-adv-x="358" 
d="M25 767l231 8v-670l95 -25v-80h-326v80l80 25v562l-80 20v80z" />
    <glyph glyph-name="m" unicode="m" horiz-adv-x="982" 
d="M892 370l-0.000976562 -264.999l68 -25v-80h-268v80l53 25v235c0 28 -4.5 48.667 -13.5 62s-23.833 20 -44.5 20c-19.333 0 -38.166 -4.33301 -56.499 -13s-31.833 -17.334 -40.5 -26.001l-14 -13v-265l52 -25v-80h-252v80l52 25v235c0 28.667 -4.33301 49.5 -13 62.5
s-23.334 19.5 -44.001 19.5c-19.333 0 -38.333 -4.33301 -57 -13s-32.667 -17.334 -42 -26.001l-13 -13v-265l53 -25v-80h-277v80l77 25v328l-76 19v80l206 8l7 -71c6.66699 6 15.667 13.5 27 22.5s32.333 21 63 36s59 22.5 85 22.5c66 0 111.333 -28.667 136 -86
c10 10 21.667 20.333 35 31s34.333 22.5 63 35.5s56.334 19.5 83.001 19.5c50 0 87.667 -15.667 113 -47s38 -75.666 38 -132.999z" />
    <glyph glyph-name="n" unicode="n" horiz-adv-x="675" 
d="M35 532l207.002 8.00098l7 -69c7.33301 6 17 13.167 29 21.5s34.167 19.666 66.5 33.999s61.833 21.5 88.5 21.5c48 0 84.833 -15.833 110.5 -47.5s38.5 -75.167 38.5 -130.5v-265c8.66699 -2.66699 21 -7 37 -13s27 -10 33 -12v-80h-270v80l53 25v242
c0 23.333 -6.16699 42.5 -18.5 57.5s-28.833 22.5 -49.5 22.5c-18.667 0 -36.834 -4.83301 -54.501 -14.5s-30.834 -19.167 -39.501 -28.5l-13 -14v-265l52 -25v-80h-277v80l77 25v327l-77 20v80z" />
    <glyph glyph-name="o" unicode="o" 
d="M305 550c80.667 0 142.831 -23.499 186.498 -70.499s65.5 -113.5 65.5 -199.5c0 -89.333 -24.167 -160 -72.5 -212s-113.166 -78 -194.499 -78c-170 0 -255 91.667 -255 275c0 89.333 24.333 159.166 73 209.499s114.334 75.5 197.001 75.5zM299.997 435.001
c-38 0 -65.835 -12.333 -83.502 -37s-26.5 -67.334 -26.5 -128.001c0 -57.333 8.33301 -99.166 25 -125.499s43.334 -39.5 80.001 -39.5s63.667 13 81 39s26 69.667 26 131c0 54 -8.16699 94.167 -24.5 120.5s-42.166 39.5 -77.499 39.5z" />
    <glyph glyph-name="p" unicode="p" horiz-adv-x="630" 
d="M100 432l-79.999 20.001v80l210 8l9 -56l21.5 18c9 7.33301 26.333 17.166 52 29.499s50.5 18.5 74.5 18.5c68 0 119.667 -23.5 155 -70.5s53 -111.833 53 -194.5c0 -94.667 -22.833 -167.5 -68.5 -218.5s-113.834 -76.5 -204.501 -76.5
c-23.333 0 -48.333 3.33301 -75 10v-127l95 -23v-80h-320v80l78 23v559zM247.001 377.001l-0.000976562 -267.001c16.667 -10 42.667 -15 78 -15c41.333 0 70.833 14.167 88.5 42.5s26.5 71.5 26.5 129.5c0 110 -33.333 165 -100 165
c-19.333 0 -36.666 -4.66699 -51.999 -14s-26 -18.666 -32 -27.999z" />
    <glyph glyph-name="q" unicode="q" 
d="M527 -125l75 -25v-80h-317v80l95 25v169c-4.66699 -4 -11.5 -9 -20.5 -15s-26 -14 -51 -24s-48.833 -15 -71.5 -15c-68 0 -119.167 23.5 -153.5 70.5s-51.5 111.833 -51.5 194.5c0 92.667 24.667 165 74 217s121.333 78 216 78c32.667 0 66 -2 100 -6s60 -8 78 -12l27 -6
v-651zM380 152l-0.00195312 275c-18.667 5.33301 -44.667 8 -78 8c-76.667 0 -115 -56.667 -115 -170c0 -52.667 7.83301 -92.167 23.5 -118.5s40.834 -39.5 75.501 -39.5c18.667 0 35.834 3.83301 51.501 11.5s26.5 15.167 32.5 22.5z" />
    <glyph glyph-name="r" unicode="r" horiz-adv-x="490" 
d="M35 532l207.002 7.99805l9 -69c5.33301 6 12.666 13.333 21.999 22s26.166 20.334 50.499 35.001s46.5 22 66.5 22c16 0 31.5 -1.5 46.5 -4.5s26.167 -6.16699 33.5 -9.5l10 -4l-8 -190h-87l-15 85c-17.333 0 -35 -4.66699 -53 -14s-31.667 -18.666 -41 -27.999l-14 -14
v-266l95 -25v-80h-322v80l80 25v327l-80 20v80z" />
    <glyph glyph-name="s" unicode="s" horiz-adv-x="491" 
d="M133 175l8 -70.001c22 -6.66699 49.333 -10 82 -10c52.667 0 79 18 79 54c0 15.333 -9 28.5 -27 39.5s-40 20.5 -66 28.5s-52 17.5 -78 28.5s-48 27.833 -66 50.5s-27 50.334 -27 83.001c0 58.667 19.667 101.834 59 129.501s88.333 41.5 147 41.5
c26.667 0 55.5 -2.5 86.5 -7.5s55.5 -9.83301 73.5 -14.5l26 -8c-1.33301 -33.333 -2.66602 -83.333 -3.99902 -150h-88l-15 65c-17.333 6.66699 -39.333 10 -66 10c-20.667 0 -37 -4.5 -49 -13.5s-18 -21.5 -18 -37.5c0 -15.333 9.16699 -28.333 27.5 -39
s40.333 -20 66 -28s51.5 -17.167 77.5 -27.5s48.167 -26.5 66.5 -48.5s27.5 -49 27.5 -81c0 -56.667 -20.833 -100.834 -62.5 -132.501s-97.5 -47.5 -167.5 -47.5c-28 0 -57.333 1.83301 -88 5.5s-54.334 7.16699 -71.001 10.5l-25 6v163h92z" />
    <glyph glyph-name="t" unicode="t" horiz-adv-x="437" 
d="M255 -10c-55.333 0 -93.332 17.8311 -113.999 53.498s-31 97.834 -31 186.501v187h-93v95l93 13v138l147 27v-165h140v-108h-140v-226c0 -33.333 3.66699 -56.666 11 -69.999s21.333 -20 42 -20c24 0 50.333 7.66699 79 23l36 -72
c-58.667 -41.333 -115.334 -62 -170.001 -62z" />
    <glyph glyph-name="u" unicode="u" horiz-adv-x="655" 
d="M89 169l-0.00195312 265l-73 18v80l221 8v-343c0 -27.333 4.33301 -47.5 13 -60.5s23 -19.5 43 -19.5c18.667 0 37.834 4.5 57.501 13.5s34.834 18.167 45.501 27.5l15 14v262l-74 18v80l221 8v-435l76 -20v-78l-204 -7l-10 70c-2 -2 -5.16699 -4.83301 -9.5 -8.5
s-12.833 -10.167 -25.5 -19.5s-25.667 -17.5 -39 -24.5s-29.5 -13.333 -48.5 -19s-37.167 -8.5 -54.5 -8.5c-50 0 -88.167 15.667 -114.5 47s-39.5 75.333 -39.5 132z" />
    <glyph glyph-name="v" unicode="v" horiz-adv-x="599" 
d="M302 150l88 292l-58 13v80l262 5v-85l-57 -13l-161 -442h-165l-158 439l-48 16v80l262 5v-85l-56 -10z" />
    <glyph glyph-name="w" unicode="w" horiz-adv-x="878" 
d="M509 545l109 -383l59 278l-61 15v80l256 5v-85l-53 -12l-133 -443h-153l-79 255l-18 78l-25 -109l-73 -224h-152l-136 441l-44 14v80l262 5v-85l-63 -12l66 -281l106 361z" />
    <glyph glyph-name="x" unicode="x" 
d="M405 535l167 5v-85l-62 -13l-115 -172l113 -170l74 -20v-80h-272v80l31 11l-53 88l-108 -179h-170v80l75 20l110 165l-121 177l-54 13v80l259 5v-85l-30 -6l52 -88z" />
    <glyph glyph-name="y" unicode="y" horiz-adv-x="611" 
d="M241 -1l-178.001 440l-53 16v80l267 5v-85l-56 -10l89 -280l85 277l-58 13v80l269 5v-85l-62 -13l-147 -410c-14.667 -39.333 -28.5 -72.5 -41.5 -99.5s-30.167 -55 -51.5 -84s-47 -51 -77 -66s-64 -22.5 -102 -22.5l-97 8l14 107h65
c18.667 0 35.834 4.16699 51.501 12.5s29 20.333 40 36s19.167 28.5 24.5 38.5s11.333 22.333 18 37z" />
    <glyph glyph-name="z" unicode="z" horiz-adv-x="517" 
d="M62 540h420v-93l-257 -342h153l19 90h88v-195h-435v92l261 343h-144l-17 -78h-88v183z" />
    <glyph glyph-name="braceleft" unicode="{" horiz-adv-x="404" 
d="M253 570v-105c0 -46 -6.83301 -82.667 -20.5 -110s-37.5 -47.333 -71.5 -60c61.333 -24 92 -71.333 92 -142v-173c0 -40 8.33301 -67 25 -81s48.667 -21 96 -21v-103h-67c-66.667 0 -113.667 16.333 -141 49s-41 87 -41 163v154c0 33.333 -7 59 -21 77s-38.667 27 -74 27
v100c35.333 0 60 9 74 27s21 43.667 21 77v141c0 64.667 15 111.667 45 141s75.667 44 137 44h67v-103c-47.333 0 -79.333 -7 -96 -21s-25 -41 -25 -81z" />
    <glyph glyph-name="bar" unicode="|" horiz-adv-x="282" 
d="M200 -230h-118v985h118v-985z" />
    <glyph glyph-name="braceright" unicode="}" horiz-adv-x="409" 
d="M160 436v134c0 40 -8.16699 67 -24.5 81s-48.166 21 -95.499 21v103h67c62 0 107.833 -14.833 137.5 -44.5s44.5 -76.5 44.5 -140.5v-141c0 -33.333 7 -59 21 -77s38.667 -27 74 -27v-100c-35.333 0 -60 -9 -74 -27s-21 -43.667 -21 -77v-154
c0 -76 -14 -130.333 -42 -163s-75 -49 -141 -49h-66v103c47.333 0 79.166 7 95.499 21s24.5 41 24.5 81v173c0 70.667 31 118 93 142c-62 24 -93 71 -93 141z" />
    <glyph glyph-name="asciitilde" unicode="~" horiz-adv-x="626" 
d="M105 209l-62.002 51.0039c1.33301 3.33301 3.5 7.66602 6.5 12.999s9.5 14.666 19.5 27.999s20.667 25.166 32 35.499s26.333 19.833 45 28.5s38 13 58 13c29.333 0 65.5 -11.167 108.5 -33.5s75.833 -33.5 98.5 -33.5c16 0 32 4.5 48 13.5s28 18.167 36 27.5l12 14
l66 -50c-1.33301 -3.33301 -3.5 -7.66602 -6.5 -12.999s-9.66699 -14.833 -20 -28.5s-21.166 -25.834 -32.499 -36.501s-26 -20.334 -44 -29.001s-36.333 -13 -55 -13c-28.667 0 -66.167 11.167 -112.5 33.5s-81.166 33.5 -104.499 33.5c-16 0 -31.667 -4.5 -47 -13.5
s-27 -18.167 -35 -27.5z" />
    <glyph glyph-name="exclamdown" unicode="&#xa1;" horiz-adv-x="337" 
d="M252 466c0 -27.333 -8.50098 -49.168 -25.501 -65.501s-37.167 -24.5 -60.5 -24.5c-27.333 0 -48.166 7.83301 -62.499 23.5s-21.5 37.834 -21.5 66.501c0 28 8.5 50.167 25.5 66.5s37.5 24.5 61.5 24.5c55.333 0 83 -30.333 83 -91zM91.999 -221.002l18 504l120 5
l19 -509h-157z" />
    <glyph glyph-name="cent" unicode="&#xa2;" horiz-adv-x="510" 
d="M331 0l-107.999 -0.000976562v110c-59.333 10.667 -105 37.334 -137 80.001s-48 97 -48 163c0 68 15.833 124.333 47.5 169s77.5 73.334 137.5 86.001v97h108v-91c21.333 -2 43.166 -5.83301 65.499 -11.5s39.5 -10.834 51.5 -15.501l17 -7l-5 -152h-85l-14 69
c-19.333 5.33301 -40.666 8 -63.999 8c-74.667 0 -112 -44.333 -112 -133c0 -104.667 39.667 -157 119 -157c10 0 20 0.833008 30 2.5s18.5 3.5 25.5 5.5s15 5 24 9s15.5 7.16699 19.5 9.5l18.5 11c8.33301 5 13.166 7.83301 14.499 8.5l49 -78
c-46.667 -41.333 -98 -66.333 -154 -75v-108z" />
    <glyph glyph-name="sterling" unicode="&#xa3;" horiz-adv-x="625" 
d="M60 0l-0.000976562 87.001l50 18c19.333 6.66699 32 17.167 38 31.5s9 37.833 9 70.5c0 6.66699 -1.66699 44.334 -5 113.001h-92v93l85 14c-2 28 -3 55.667 -3 83c0 65.333 17.333 116.166 52 152.499s88.334 54.5 161.001 54.5c38 0 74.667 -2.83301 110 -8.5
s61 -11.5 77 -17.5l25 -9v-162h-90l-20 74c-24.667 4 -53 6 -85 6c-54.667 0 -82 -29.333 -82 -88v-19c0 -15.333 0.666992 -36.333 2 -63h144v-110h-136c3.33301 -38.667 5 -71.334 5 -98.001c0 -48 -12.333 -83 -37 -105h186l23 103h93v-220h-510z" />
    <glyph glyph-name="currency" unicode="&#xa4;" horiz-adv-x="624" 
d="M105 296c0 38.667 8.66699 73.333 26 104l-79 80l74 80l80 -80c35.333 20 72.333 30 111 30c37.333 0 72 -8.33301 104 -25l77 76l74 -80l-74 -74c16.667 -31.333 25 -66.333 25 -105c0 -40.667 -9.33301 -77.667 -28 -111l78 -77l-75 -79l-79 78
c-32 -18.667 -67.667 -28 -107 -28c-44 0 -81 9 -111 27l-75 -75l-75 80l76 75c-14.667 31.333 -22 66 -22 104zM227 297.999c0 -72.667 29 -109 87 -109c58.667 0 88 36.333 88 109c0 70 -29.333 105 -88 105c-58 0 -87 -35 -87 -105z" />
    <glyph glyph-name="yen" unicode="&#xa5;" horiz-adv-x="672" 
d="M84 313v90h94l-102 186l-66 28v83l282 5v-88l-51 -21l101 -211l106 210l-56 22v83l270 5v-88l-70 -27l-103 -187h95v-90h-500zM182 0v87l75 20v56h-173v90h500v-90h-172v-56l75 -20v-87h-305z" />
    <glyph glyph-name="brokenbar" unicode="&#xa6;" horiz-adv-x="297" 
d="M205 365h-118v400h118v-400zM205 -265h-118v410h118v-410z" />
    <glyph glyph-name="section" unicode="&#xa7;" horiz-adv-x="534" 
d="M172 52l14.002 -88.001c14 -4 31 -6 51 -6c24 0 42.833 6 56.5 18s20.5 28.333 20.5 49c0 21.333 -8.66699 41.333 -26 60s-38.333 36 -63 52s-49.334 33 -74.001 51s-45.667 40.833 -63 68.5s-26 58.5 -26 92.5c0 64.667 23.333 114 70 148c-20 32 -30 67.667 -30 107
c0 54 18.833 98 56.5 132s85.834 51 144.501 51c26 0 52 -2.5 78 -7.5s45.333 -10.167 58 -15.5l19 -8l-4 -165h-79l-17 86c-16.667 4 -32.334 6 -47.001 6c-24.667 0 -43.834 -6.33301 -57.501 -19s-20.5 -29 -20.5 -49c0 -22 8.66699 -42.667 26 -62s38.333 -37 63 -53
s49.167 -33.167 73.5 -51.5s45.166 -41.166 62.499 -68.499s26 -58 26 -92c0 -63.333 -23.333 -112 -70 -146c20 -31.333 30 -65.333 30 -102c0 -56.667 -18.667 -102.167 -56 -136.5s-85.666 -51.5 -144.999 -51.5c-24.667 0 -50 2.33301 -76 7s-45.667 9.66699 -59 15
l-20 7l2 171h82zM188.002 365.999c0 -18.667 6.49902 -35.335 19.499 -50.002s35.833 -32.834 68.5 -54.501s54.334 -36.834 65.001 -45.501c12 14.667 18 33.334 18 56.001c0 18.667 -6.5 35.334 -19.5 50.001s-36 32.834 -69 54.501s-54.833 36.5 -65.5 44.5
c-11.333 -15.333 -17 -33.666 -17 -54.999z" />
    <glyph glyph-name="dieresis" unicode="&#xa8;" horiz-adv-x="544" 
d="M90 712c0 23.333 7.16797 42.168 21.501 56.501s31.833 21.5 52.5 21.5c23.333 0 41.166 -6.83301 53.499 -20.5s18.5 -32.834 18.5 -57.501c0 -24 -7.16699 -43 -21.5 -57s-31.833 -21 -52.5 -21c-48 0 -72 26 -72 78zM308.001 712.002c0 23.333 7.33301 42.167 22 56.5
s32 21.5 52 21.5c48 0 72 -26 72 -78c0 -24 -7.16699 -43 -21.5 -57s-31.833 -21 -52.5 -21c-48 0 -72 26 -72 78z" />
    <glyph glyph-name="copyright" unicode="&#xa9;" horiz-adv-x="823" 
d="M37 345c0 107.333 35.5 196.5 106.5 267.5s160.167 106.5 267.5 106.5c108 0 197.333 -34 268 -102s106 -155.333 106 -262s-37 -195.667 -111 -267s-165 -107 -273 -107c-107.333 0 -194.833 33.667 -262.5 101s-101.5 155 -101.5 263zM139 350
c0 -82 24.333 -148.333 73 -199s113.334 -76 194.001 -76c81.333 0 147.833 25.5 199.5 76.5s77.5 117.167 77.5 198.5c0 80.667 -25.833 146.667 -77.5 198s-118.167 77 -199.5 77c-80.667 0 -145.334 -25.5 -194.001 -76.5s-73 -117.167 -73 -198.5zM523 273l37.001 -57
c-51.333 -42.667 -102 -64 -152 -64c-56.667 0 -101.5 16.5 -134.5 49.5s-49.5 79.833 -49.5 140.5c0 64.667 17.167 116 51.5 154s82.166 57 143.499 57c18.667 0 38.667 -2.5 60 -7.5s38.333 -10.167 51 -15.5l18 -7l-3 -112h-69l-11 55c-16.667 4 -32.667 6 -48 6
c-55.333 0 -83 -39 -83 -117c0 -80 29 -120 87 -120c18.667 0 37.667 4.16699 57 12.5s34.333 16.833 45 25.5z" />
    <glyph glyph-name="ordfeminine" unicode="&#xaa;" horiz-adv-x="468" 
d="M66 135v100h373v-100h-373zM439 328l-139 -6l-14 50l-16 -15.5c-6.66699 -6.33301 -20.167 -14.833 -40.5 -25.5s-40.5 -16 -60.5 -16c-36 0 -63.833 10 -83.5 30s-29.5 48.667 -29.5 86c0 78.667 57 118 171 118h46v36c0 14.667 -4.5 26 -13.5 34s-21.167 12 -36.5 12
c-10 0 -20.167 -0.833008 -30.5 -2.5s-18.166 -3.16699 -23.499 -4.5l-8 -2l-9 -43h-71l-6 109c63.333 19.333 117.666 29 162.999 29c54.667 0 93 -11.167 115 -33.5s33 -58.833 33 -109.5v-168l53 -12v-66zM164 439c0 -10.667 3.66699 -19.333 11 -26s17 -10 29 -10
c10.667 0 21.667 2.83301 33 8.5s20.333 11.167 27 16.5l9 9v47h-39c-46.667 0 -70 -15 -70 -45z" />
    <glyph glyph-name="guillemotleft" unicode="&#xab;" horiz-adv-x="599" 
d="M431 265l113 -160l-83 -56l-156 177v77l156 177l83 -55zM181 265l109 -160l-83 -56l-152 177v77l152 177l83 -55z" />
    <glyph glyph-name="logicalnot" unicode="&#xac;" horiz-adv-x="642" 
d="M60 260v115h527v-295h-127v180h-400z" />
    <glyph glyph-name="registered" unicode="&#xae;" horiz-adv-x="723" 
d="M45 449c0 91.333 30.167 166.999 90.5 226.999s135.833 90 226.5 90s166 -28.5 226 -85.5s90 -130.5 90 -220.5c0 -90.667 -31.5 -166.167 -94.5 -226.5s-140.5 -90.5 -232.5 -90.5c-90 0 -163.5 28.333 -220.5 85s-85.5 130.334 -85.5 221.001zM143 454.999
c0 -67.333 19.167 -121.5 57.5 -162.5s90.5 -61.5 156.5 -61.5c66.667 0 120.667 20.667 162 62s62 95.333 62 162s-20.667 120.5 -62 161.5s-95.333 61.5 -162 61.5c-66 0 -118.167 -20.333 -156.5 -61s-57.5 -94.667 -57.5 -162zM366 346.999v-45.001h-144v45l34 12v198
l-34 14v42l143 2h3c24 0 44.833 -3.33301 62.5 -10s31.667 -17 42 -31s15.5 -30.667 15.5 -50c0 -38.667 -17.667 -66.667 -53 -84c5.33301 -3.33301 11 -10.666 17 -21.999l31 -59l33 -12v-45h-90l-41 91c-5.33301 12 -10 20 -14 24s-9 6 -15 6h-23v-64zM333 555.998v-80
h26c14 0 26 3.66699 36 11s15 17 15 29c0 26.667 -14.667 40 -44 40h-33z" />
    <glyph glyph-name="macron" unicode="&#xaf;" horiz-adv-x="350" 
d="M42 640v107h265v-107h-265z" />
    <glyph glyph-name="degree" unicode="&#xb0;" horiz-adv-x="426" 
d="M45 580c0 48 15.668 86.832 47.001 116.499s71.666 44.5 120.999 44.5s89.666 -14.167 120.999 -42.5s47 -66.166 47 -113.499c0 -50.667 -15.667 -91 -47 -121s-71.666 -45 -120.999 -45c-50 0 -90.5 14.333 -121.5 43s-46.5 68 -46.5 118zM145.001 583.999
c0 -24 5.83301 -42.667 17.5 -56s28.5 -20 50.5 -20s38.833 6.66699 50.5 20s17.5 32 17.5 56c0 21.333 -6.16699 38 -18.5 50s-28.833 18 -49.5 18s-37.167 -6 -49.5 -18s-18.5 -28.667 -18.5 -50z" />
    <glyph glyph-name="plusminus" unicode="&#xb1;" horiz-adv-x="622" 
d="M52 288v117h193v147h133v-147h192v-117h-192v-151h-133v151h-193zM52 -36v114h518v-114h-518z" />
    <glyph glyph-name="twosuperior" unicode="&#xb2;" horiz-adv-x="404" 
d="M33 380c84.667 64.667 136 106.332 154 124.999c25.333 26.667 38 51.334 38 74.001c0 26 -17 39 -51 39c-7.33301 0 -14.5 -0.666992 -21.5 -2s-12.5 -2.66602 -16.5 -3.99902l-5 -1l-7 -53h-85l-3 132c51.333 16.667 100.666 25 147.999 25
c54.667 0 97.834 -9.83301 129.501 -29.5s47.5 -49.834 47.5 -90.501c0 -38 -11.333 -71 -34 -99s-63.667 -65 -123 -111h161v-105h-332v100z" />
    <glyph glyph-name="threesuperior" unicode="&#xb3;" horiz-adv-x="395" 
d="M352 604c0 -26 -7.33105 -47.499 -21.998 -64.499s-34.334 -28.833 -59.001 -35.5c25.333 -4.66699 46.833 -15.834 64.5 -33.501s26.5 -38.834 26.5 -63.501c0 -45.333 -17.833 -79.166 -53.5 -101.499s-81.167 -33.5 -136.5 -33.5c-23.333 0 -47.833 3.16699 -73.5 9.5
s-45.834 12.5 -60.501 18.5l-21 10l27 84c41.333 -18 81 -27 119 -27c20.667 0 37.167 4.83301 49.5 14.5s18.5 20.5 18.5 32.5c0 30 -24.333 45 -73 45h-54v75h55c45.333 0 68 16 68 48c0 26.667 -18.333 40 -55 40l-53 -6l-5 -42h-82l-3 118c57.333 15.333 109 23 155 23
c54 0 95.5 -9.5 124.5 -28.5s43.5 -46.5 43.5 -82.5z" />
    <glyph glyph-name="acute" unicode="&#xb4;" horiz-adv-x="418" 
d="M346 740l-227 -113l-47 80l216 141z" />
    <glyph glyph-name="mu" unicode="&#xb5;" horiz-adv-x="659" 
d="M91 -235l-0.000976562 667l-74 20v80l221 8v-349c0 -49.333 19.333 -74 58 -74c19.333 0 38.833 4.5 58.5 13.5s34.834 18.167 45.501 27.5l15 14v260l-74 20v80l221 8v-435l76 -20v-78l-203 -7l-10 71c-6 -6 -14.167 -13.5 -24.5 -22.5s-28.833 -21 -55.5 -36
s-50 -22.5 -70 -22.5c-14 0 -26.333 2 -37 6v-231h-147z" />
    <glyph glyph-name="mu" unicode="&#x3bc;" horiz-adv-x="659" 
d="M91 -235l-0.000976562 667l-74 20v80l221 8v-349c0 -49.333 19.333 -74 58 -74c19.333 0 38.833 4.5 58.5 13.5s34.834 18.167 45.501 27.5l15 14v260l-74 20v80l221 8v-435l76 -20v-78l-203 -7l-10 71c-6 -6 -14.167 -13.5 -24.5 -22.5s-28.833 -21 -55.5 -36
s-50 -22.5 -70 -22.5c-14 0 -26.333 2 -37 6v-231h-147z" />
    <glyph glyph-name="paragraph" unicode="&#xb6;" horiz-adv-x="721" 
d="M154 -170v83l82 22v338c-53.333 5.33301 -97.666 28.5 -132.999 69.5s-53 90.5 -53 148.5c0 62 20.167 113.167 60.5 153.5s95.166 60.5 164.499 60.5h185l206 -8v-80l-80 -20v-767h-126v767h-105v-767h-201z" />
    <glyph glyph-name="periodcentered" unicode="&#xb7;" horiz-adv-x="299" 
d="M61 306c0 29.333 8.33203 52.332 24.999 68.999s38.334 25 65.001 25c57.333 0 86 -31.333 86 -94c0 -29.333 -8.16699 -52.166 -24.5 -68.499s-37.833 -24.5 -64.5 -24.5c-58 0 -87 31 -87 93z" />
    <glyph glyph-name="cedilla" unicode="&#xb8;" horiz-adv-x="431" 
d="M204 -167c15.333 0 27.499 3.49902 36.499 10.499s13.5 16.167 13.5 27.5c0 28.667 -27.333 43 -82 43v86h85v-43c26.667 -5.33301 47.667 -15.666 63 -30.999s23 -34.666 23 -57.999c0 -30 -11.667 -54.333 -35 -73s-53.666 -28 -90.999 -28
c-20 0 -40.167 2.66699 -60.5 8s-35.833 10.666 -46.5 15.999l-15 8l31 55c26.667 -14 52.667 -21 78 -21z" />
    <glyph glyph-name="onesuperior" unicode="&#xb9;" horiz-adv-x="393" 
d="M373 369v-89h-314v89h96v209l-91 -55l-49 83l158 99h109v-336h91z" />
    <glyph glyph-name="ordmasculine" unicode="&#xba;" horiz-adv-x="494" 
d="M254 717c58.667 0 105.001 -16.834 139.001 -50.501s51 -81.167 51 -142.5s-18.833 -111.5 -56.5 -150.5s-86.167 -58.5 -145.5 -58.5c-60 0 -107 16.5 -141 49.5s-51 81.5 -51 145.5c0 62.667 19.167 112.834 57.5 150.501s87.166 56.5 146.499 56.5zM249.001 624.999
c-49.333 0 -74 -37 -74 -111c0 -71.333 24 -107 72 -107s72 37.667 72 113c0 70 -23.333 105 -70 105zM58.001 134.999v100h378v-100h-378z" />
    <glyph glyph-name="guillemotright" unicode="&#xbb;" horiz-adv-x="599" 
d="M55 105l113 160l-113 160l83 55l156 -177v-77l-156 -177zM309 105l109 160l-109 160l83 55l152 -177v-77l-152 -177z" />
    <glyph glyph-name="onequarter" unicode="&#xbc;" horiz-adv-x="1072" 
d="M255 0l408 705h145l-408 -705h-145zM815 430l144 -17v-243h58v-93h-58v-77h-127v77h-200l-14 84zM392 369v-89h-303v89h96v209l-91 -55l-49 83l158 99h109v-336h80zM832 297l-95 -127h95v127z" />
    <glyph glyph-name="onehalf" unicode="&#xbd;" horiz-adv-x="1073" 
d="M256 0l408 705h145l-408 -705h-145zM683 100c84 64.667 134 105.333 150 122c28 28 42 54 42 78c0 25.333 -17.333 38 -52 38c-7.33301 0 -14.5 -0.666992 -21.5 -2s-12.167 -2.66602 -15.5 -3.99902l-6 -1l-6 -53h-85l-3 132c50.667 16.667 99.667 25 147 25
c55.333 0 98.833 -9.83301 130.5 -29.5s47.5 -49.834 47.5 -90.501c0 -38 -11.333 -71 -34 -99s-63.667 -65 -123 -111h161v-105h-332v100zM392 368.999v-89h-303v89h96v209l-91 -55l-49 83l158 99h109v-336h80z" />
    <glyph glyph-name="threequarters" unicode="&#xbe;" horiz-adv-x="1054" 
d="M238 0l408 705h145l-408 -705h-145zM615 77l-14 84l196 269l144 -17v-243h58v-93h-58v-77h-127v77h-199zM374 596c0 -52.667 -26.999 -86.334 -80.999 -101.001c24.667 -4 46.167 -15 64.5 -33s27.5 -39.333 27.5 -64c0 -44.667 -17.833 -78.167 -53.5 -100.5
s-81.167 -33.5 -136.5 -33.5c-23.333 0 -48 3 -74 9s-46 12.333 -60 19l-21 9l27 84c40.667 -17.333 80 -26 118 -26c17.333 0 33.166 4.16699 47.499 12.5s21.5 19.833 21.5 34.5c0 30 -24.667 45 -74 45h-53v74h55c44.667 0 67 16.667 67 50c0 26 -18 39 -54 39
c-8.66699 0 -17.5 -0.666992 -26.5 -2s-15.833 -2.66602 -20.5 -3.99902l-7 -1l-5 -41h-81l-4 117c58 15.333 110 23 156 23c54 0 95.333 -9.5 124 -28.5s43 -46.167 43 -81.5zM814.001 297l-95 -127h95v127z" />
    <glyph glyph-name="questiondown" unicode="&#xbf;" horiz-adv-x="461" 
d="M370 466c0 -27.333 -8.5 -49.168 -25.5 -65.501s-37.167 -24.5 -60.5 -24.5c-27.333 0 -48.166 7.83301 -62.499 23.5s-21.5 37.834 -21.5 66.501c0 28 8.33301 50.167 25 66.5s37 24.5 61 24.5c27.333 0 48.166 -7.83301 62.499 -23.5s21.5 -38.167 21.5 -67.5z
M228 290.998l131.999 5.99609c6 -43.333 9 -76 9 -98c0 -21.333 -8.83301 -43.166 -26.5 -65.499s-36.834 -41.333 -57.501 -57s-39.834 -34.167 -57.501 -55.5s-26.5 -42.333 -26.5 -63c0 -44 30 -66 90 -66c12.667 0 26.334 1 41.001 3s26.334 3.66699 35.001 5l13 3
l19 -104c-56 -16 -105.667 -24 -149 -24c-36 0 -68.333 4.5 -97 13.5s-53 25.5 -73 49.5s-30 54.667 -30 92c0 28.667 6.16699 55.667 18.5 81s27.333 47.333 45 66s35.334 36.334 53.001 53.001s32.667 33.834 45 51.501s18.5 34.834 18.5 51.501z" />
    <glyph glyph-name="Agrave" unicode="&#xc0;" horiz-adv-x="762" 
d="M473 735l-227 112l58 109l215 -141zM465 705l215 -595l70 -23v-87h-318v87l75 23l-24 75h-222l-25 -74l78 -24v-87h-302v87l73 23l220 592zM375 529l-79 -237h154z" />
    <glyph glyph-name="Aacute" unicode="&#xc1;" horiz-adv-x="762" 
d="M579 847l-227 -112l-46 80l215 141zM465 705l215 -595l70 -23v-87h-318v87l75 23l-24 75h-222l-25 -74l78 -24v-87h-302v87l73 23l220 592zM375 529l-79 -237h154z" />
    <glyph glyph-name="Acircumflex" unicode="&#xc2;" horiz-adv-x="762" 
d="M385 840l-157 -98l-48 66l153 131l89 8l162 -139l-48 -66zM465 705l215 -595l70 -23v-87h-318v87l75 23l-24 75h-222l-25 -74l78 -24v-87h-302v87l73 23l220 592zM375 529l-79 -237h154z" />
    <glyph glyph-name="Atilde" unicode="&#xc3;" horiz-adv-x="762" 
d="M465 705l215 -595l70 -23v-87h-318v87l75 23l-24 75h-222l-25 -74l78 -24v-87h-302v87l73 23l220 592zM375 529l-79 -237h154zM252 795l-47.0029 45.999c1.33301 2.66699 3 6.5 5 11.5s7 13.833 15 26.5s16.333 23.834 25 33.501s20.334 18.5 35.001 26.5
s29.667 12 45 12c24 0 52.833 -7.66699 86.5 -23s60.167 -23 79.5 -23c11.333 0 22.833 3.5 34.5 10.5s20.5 14.167 26.5 21.5l8 10l53 -46l-5.5 -11.5c-2.33301 -5 -7.33301 -13.833 -15 -26.5s-16 -23.667 -25 -33s-20.667 -18 -35 -26s-29.166 -12 -44.499 -12
c-24 0 -53.167 7.33301 -87.5 22s-61.166 22 -80.499 22c-12.667 0 -25 -3.5 -37 -10.5s-21 -13.833 -27 -20.5z" />
    <glyph glyph-name="Adieresis" unicode="&#xc4;" horiz-adv-x="762" 
d="M465 705l215 -595l70 -23v-87h-318v87l75 23l-24 75h-222l-25 -74l78 -24v-87h-302v87l73 23l220 592zM375 529l-79 -237h154zM226 847c0 23.333 7.16797 42.168 21.501 56.501s31.833 21.5 52.5 21.5c23.333 0 41.166 -6.83301 53.499 -20.5s18.5 -32.834 18.5 -57.501
c0 -24 -7.16699 -43 -21.5 -57s-31.833 -21 -52.5 -21c-48 0 -72 26 -72 78zM444.001 847.002c0 23.333 7.33301 42.167 22 56.5s32 21.5 52 21.5c48 0 72 -26 72 -78c0 -24 -7.16699 -43 -21.5 -57s-31.833 -21 -52.5 -21c-48 0 -72 26 -72 78z" />
    <glyph glyph-name="Aring" unicode="&#xc5;" horiz-adv-x="762" 
d="M465 705l215 -595l70 -23v-87h-318v87l75 23l-24 75h-222l-25 -74l78 -24v-87h-302v87l73 23l220 592zM375 529l-79 -237h154zM249 804c0 40 13.5 72.167 40.5 96.5s58.167 36.5 93.5 36.5s66.333 -11.333 93 -34s40 -53.667 40 -93s-13.5 -71.333 -40.5 -96
s-57.833 -37 -92.5 -37c-36 0 -67.333 11.333 -94 34s-40 53.667 -40 93zM334 807c0 -38 16.333 -57 49 -57c14 0 25.5 5 34.5 15s13.5 24.333 13.5 43c0 38 -16 57 -48 57c-14.667 0 -26.5 -5 -35.5 -15s-13.5 -24.333 -13.5 -43z" />
    <glyph glyph-name="AE" unicode="&#xc6;" horiz-adv-x="984" 
d="M644 587v-167h202v-110h-202v-193h177l23 85h92v-202h-521v87l74 25v80h-193l-40 -84l62 -21v-87h-298v87l82 25l231 477l-85 28v83l191 5h485v-195h-93l-25 77h-162zM489 300v287h-14l-132 -287h146z" />
    <glyph glyph-name="Ccedilla" unicode="&#xc7;" horiz-adv-x="652" 
d="M567 187l54.9971 -89.999c-2 -2 -5.16699 -5 -9.5 -9s-13.5 -11.333 -27.5 -22s-28.5 -20.334 -43.5 -29.001s-34.167 -17.334 -57.5 -26.001s-47 -15 -71 -19v-36c56.667 -11.333 85 -41.333 85 -90c0 -29.333 -12 -53.333 -36 -72s-54 -28 -90 -28
c-20 0 -40.5 2.83301 -61.5 8.5s-36.833 11.5 -47.5 17.5l-16 8l32 56c28 -15.333 55.333 -23 82 -23c14 0 25.167 3.33301 33.5 10s12.5 15.667 12.5 27c0 28.667 -27.333 43 -82 43v77c-91.333 6 -161.666 39 -210.999 99s-74 144.333 -74 253
c0 116.667 30.333 208.334 91 275.001s142.667 100 246 100c36 0 73.333 -3.83301 112 -11.5s68.334 -15.5 89.001 -23.5l32 -12l-5 -190h-98l-23 96c-31.333 10.667 -68.666 16 -111.999 16c-110 0 -165 -81.667 -165 -245c0 -153.333 56.667 -230 170 -230
c29.333 0 59.833 5.83301 91.5 17.5s56.167 23.5 73.5 35.5z" />
    <glyph glyph-name="Egrave" unicode="&#xc8;" horiz-adv-x="625" 
d="M285 587v-167h202v-110h-202v-193h177l23 83h92v-200h-522v87l75 25v475l-75 30v83l230 5h280v-193h-93l-25 75h-162zM386 735l-227 112l58 109l216 -141z" />
    <glyph glyph-name="Eacute" unicode="&#xc9;" horiz-adv-x="627" 
d="M285 587v-167h202v-110h-202v-193h177l23 83h92v-200h-522v87l75 25v475l-75 30v83l230 5h280v-193h-93l-25 75h-162zM490 848l-227 -113l-47 80l216 141z" />
    <glyph glyph-name="Ecircumflex" unicode="&#xca;" horiz-adv-x="627" 
d="M285 587v-167h202v-110h-202v-193h177l23 83h92v-200h-522v87l75 25v475l-75 30v83l230 5h280v-193h-93l-25 75h-162zM342 840l-157 -98l-48 66l153 131l89 8l162 -139l-48 -66z" />
    <glyph glyph-name="Edieresis" unicode="&#xcb;" horiz-adv-x="627" 
d="M285 587v-167h202v-110h-202v-193h177l23 83h92v-200h-522v87l75 25v475l-75 30v83l230 5h280v-193h-93l-25 75h-162zM145 848c0 23.333 7.16797 42.168 21.501 56.501s31.833 21.5 52.5 21.5c23.333 0 41.166 -6.83301 53.499 -20.5s18.5 -32.834 18.5 -57.501
c0 -24 -7.16699 -43 -21.5 -57s-31.833 -21 -52.5 -21c-48 0 -72 26 -72 78zM363.001 848.002c0 23.333 7.33301 42.167 22 56.5s32 21.5 52 21.5c48 0 72 -26 72 -78c0 -24 -7.16699 -43 -21.5 -57s-31.833 -21 -52.5 -21c-48 0 -72 26 -72 78z" />
    <glyph glyph-name="Igrave" unicode="&#xcc;" horiz-adv-x="370" 
d="M330 87v-87h-305v87l75 25v475l-75 30v83l305 5v-88l-75 -30v-475zM236 735l-227 112l58 109l216 -141z" />
    <glyph glyph-name="Iacute" unicode="&#xcd;" horiz-adv-x="400" 
d="M345 87v-87h-305v87l75 25v475l-75 30v83l305 5v-88l-75 -30v-475zM365 848l-227 -113l-47 80l216 141z" />
    <glyph glyph-name="Icircumflex" unicode="&#xce;" horiz-adv-x="449" 
d="M378 87v-87h-305v87l75 25v475l-75 30v83l305 5v-88l-75 -30v-475zM225 840l-157 -98l-48 66l153 131l89 8l162 -139l-48 -66z" />
    <glyph glyph-name="Idieresis" unicode="&#xcf;" horiz-adv-x="404" 
d="M26 847c0 23.333 7.16797 42.168 21.501 56.501s31.833 21.5 52.5 21.5c23.333 0 41.166 -6.83301 53.499 -20.5s18.5 -32.834 18.5 -57.501c0 -24 -7.16699 -43 -21.5 -57s-31.833 -21 -52.5 -21c-48 0 -72 26 -72 78zM234.001 847.002c0 23.333 7.33301 42.167 22 56.5
s32 21.5 52 21.5c48 0 72 -26 72 -78c0 -24 -7.16699 -43 -21.5 -57s-31.833 -21 -52.5 -21c-48 0 -72 26 -72 78zM354.001 87.0029v-87h-305v87l75 25v475l-75 30v83l305 5v-88l-75 -30v-475z" />
    <glyph glyph-name="Eth" unicode="&#xd0;" horiz-adv-x="761" 
d="M57 312v110h83v165l-90 30v83l245 5h99c100.667 0 178.667 -29.333 234 -88s83 -143.667 83 -255c0 -112 -30 -200.333 -90 -265s-140.667 -97 -242 -97h-329v87l90 25v200h-83zM294 587v-165h121v-110h-121v-195h87c52 0 92.167 18.5 120.5 55.5s42.5 98.5 42.5 184.5
c0 81.333 -13.167 140 -39.5 176s-64.833 54 -115.5 54h-95z" />
    <glyph glyph-name="Ntilde" unicode="&#xd1;" horiz-adv-x="785" 
d="M235 772l-48.002 38.999c1.33301 2.66699 3 6.5 5 11.5s7 13.833 15 26.5s16.333 23.834 25 33.501s20.334 18.5 35.001 26.5s29.667 12 45 12c24 0 54.167 -7.66699 90.5 -23s64.166 -23 83.499 -23c11.333 0 22.833 3.5 34.5 10.5s20.167 13.833 25.5 20.5l9 11l55 -42
c-1.33301 -2.66699 -3.33301 -6.33398 -6 -11.001s-8.5 -13 -17.5 -25s-18.333 -22.667 -28 -32s-22.167 -17.666 -37.5 -24.999s-30.666 -11 -45.999 -11c-24 0 -53.167 6.5 -87.5 19.5s-61.166 19.5 -80.499 19.5c-12.667 0 -25 -3.16699 -37 -9.5
s-20.667 -12.5 -26 -18.5zM324.998 86.999v-87h-290v87l75 25v475l-75 30v83l240 5l270 -462v344l-73 30v83l285 5v-88l-75 -30v-587h-167l-268 453v-341z" />
    <glyph glyph-name="Ograve" unicode="&#xd2;" horiz-adv-x="755" 
d="M385 717c100 0 177.5 -31.165 232.5 -93.498s82.5 -149.5 82.5 -261.5c0 -112.667 -30.833 -203.334 -92.5 -272.001s-142.5 -103 -242.5 -103s-176.667 30.667 -230 92s-80 150.666 -80 267.999c0 114.667 29.5 205 88.5 271s139.5 99 241.5 99zM380 592.002
c-52 0 -91.334 -18.5 -118.001 -55.5s-40 -98.5 -40 -184.5c0 -82 12.167 -142.5 36.5 -181.5s61.5 -58.5 111.5 -58.5c52.667 0 92.834 19.167 120.501 57.5s41.5 100.833 41.5 187.5c0 81.333 -12.667 140.833 -38 178.5s-63.333 56.5 -114 56.5zM435.999 735.002
l-227 112l58 109l216 -141z" />
    <glyph glyph-name="Oacute" unicode="&#xd3;" horiz-adv-x="755" 
d="M385 717c100 0 177.5 -31.165 232.5 -93.498s82.5 -149.5 82.5 -261.5c0 -112.667 -30.833 -203.334 -92.5 -272.001s-142.5 -103 -242.5 -103s-176.667 30.667 -230 92s-80 150.666 -80 267.999c0 114.667 29.5 205 88.5 271s139.5 99 241.5 99zM380 592.002
c-52 0 -91.334 -18.5 -118.001 -55.5s-40 -98.5 -40 -184.5c0 -82 12.167 -142.5 36.5 -181.5s61.5 -58.5 111.5 -58.5c52.667 0 92.834 19.167 120.501 57.5s41.5 100.833 41.5 187.5c0 81.333 -12.667 140.833 -38 178.5s-63.333 56.5 -114 56.5zM530.999 848.002
l-227 -113l-47 80l216 141z" />
    <glyph glyph-name="Ocircumflex" unicode="&#xd4;" horiz-adv-x="755" 
d="M385 717c100 0 177.5 -31.165 232.5 -93.498s82.5 -149.5 82.5 -261.5c0 -112.667 -30.833 -203.334 -92.5 -272.001s-142.5 -103 -242.5 -103s-176.667 30.667 -230 92s-80 150.666 -80 267.999c0 114.667 29.5 205 88.5 271s139.5 99 241.5 99zM380 592.002
c-52 0 -91.334 -18.5 -118.001 -55.5s-40 -98.5 -40 -184.5c0 -82 12.167 -142.5 36.5 -181.5s61.5 -58.5 111.5 -58.5c52.667 0 92.834 19.167 120.501 57.5s41.5 100.833 41.5 187.5c0 81.333 -12.667 140.833 -38 178.5s-63.333 56.5 -114 56.5zM384.999 840.002
l-157 -98l-48 66l153 131l89 8l162 -139l-48 -66z" />
    <glyph glyph-name="Otilde" unicode="&#xd5;" horiz-adv-x="755" 
d="M215 777l-48.002 38.999c1.33301 2.66699 3 6.5 5 11.5s7 13.833 15 26.5s16.333 23.834 25 33.501s20.334 18.5 35.001 26.5s29.667 12 45 12c24 0 54.167 -7.66699 90.5 -23s64.166 -23 83.499 -23c11.333 0 22.833 3.5 34.5 10.5s20.167 14.167 25.5 21.5l9 10l55 -42
c-1.33301 -2.66699 -3.33301 -6.33398 -6 -11.001s-8.5 -13 -17.5 -25s-18.333 -22.667 -28 -32s-22.167 -17.666 -37.5 -24.999s-30.666 -11 -45.999 -11c-24 0 -53.167 6.5 -87.5 19.5s-61.166 19.5 -80.499 19.5c-12.667 0 -25 -3.16699 -37 -9.5
s-20.667 -12.833 -26 -19.5zM384.998 716.999c100 0 177.5 -31.165 232.5 -93.498s82.5 -149.5 82.5 -261.5c0 -112.667 -30.833 -203.334 -92.5 -272.001s-142.5 -103 -242.5 -103s-176.667 30.667 -230 92s-80 150.666 -80 267.999c0 114.667 29.5 205 88.5 271
s139.5 99 241.5 99zM379.998 592.001c-52 0 -91.334 -18.5 -118.001 -55.5s-40 -98.5 -40 -184.5c0 -82 12.167 -142.5 36.5 -181.5s61.5 -58.5 111.5 -58.5c52.667 0 92.834 19.167 120.501 57.5s41.5 100.833 41.5 187.5c0 81.333 -12.667 140.833 -38 178.5
s-63.333 56.5 -114 56.5z" />
    <glyph glyph-name="Odieresis" unicode="&#xd6;" horiz-adv-x="755" 
d="M385 717c100 0 177.5 -31.165 232.5 -93.498s82.5 -149.5 82.5 -261.5c0 -112.667 -30.833 -203.334 -92.5 -272.001s-142.5 -103 -242.5 -103s-176.667 30.667 -230 92s-80 150.666 -80 267.999c0 114.667 29.5 205 88.5 271s139.5 99 241.5 99zM380 592.002
c-52 0 -91.334 -18.5 -118.001 -55.5s-40 -98.5 -40 -184.5c0 -82 12.167 -142.5 36.5 -181.5s61.5 -58.5 111.5 -58.5c52.667 0 92.834 19.167 120.501 57.5s41.5 100.833 41.5 187.5c0 81.333 -12.667 140.833 -38 178.5s-63.333 56.5 -114 56.5zM193.999 847.002
c0 23.333 7.16797 42.168 21.501 56.501s31.833 21.5 52.5 21.5c23.333 0 41.166 -6.83301 53.499 -20.5s18.5 -32.834 18.5 -57.501c0 -24 -7.16699 -43 -21.5 -57s-31.833 -21 -52.5 -21c-48 0 -72 26 -72 78zM412 847.004c0 23.333 7.33301 42.167 22 56.5
s32 21.5 52 21.5c48 0 72 -26 72 -78c0 -24 -7.16699 -43 -21.5 -57s-31.833 -21 -52.5 -21c-48 0 -72 26 -72 78z" />
    <glyph glyph-name="multiply" unicode="&#xd7;" horiz-adv-x="613" 
d="M53 439l84 85l169 -170l170 170l84 -85l-169 -169l169 -169l-84 -85l-170 170l-169 -170l-84 85l169 169z" />
    <glyph glyph-name="Oslash" unicode="&#xd8;" horiz-adv-x="770" 
d="M163 -110l-88.999 51l78 128c-60 61.333 -90 154 -90 278c0 114.667 29.667 205 89 271s139.666 99 240.999 99c52 0 98.333 -9 139 -27l62 103l89 -51l-67 -109c61.333 -62.667 92 -153 92 -271c0 -112 -30.833 -202.333 -92.5 -271s-142.5 -103 -242.5 -103
c-50.667 0 -95.667 8 -135 24zM387.001 592c-51.333 0 -90.334 -18 -117.001 -54s-40 -94.333 -40 -175c0 -57.333 7 -101.333 21 -132l209 344c-21.333 11.333 -45.666 17 -72.999 17zM540 357c0 46.667 -7.33301 85.333 -22 116l-210 -344
c19.333 -11.333 42.333 -17 69 -17c108.667 0 163 81.667 163 245z" />
    <glyph glyph-name="Ugrave" unicode="&#xd9;" horiz-adv-x="782" 
d="M262 587v-316.999c0 -58 9.66699 -99.167 29 -123.5s53 -36.5 101 -36.5c50.667 0 84.667 13.5 102 40.5s26 71.833 26 134.5v302l-78 30v83l308 5v-88l-75 -30v-302c0 -100 -22 -174.5 -66 -223.5s-118 -73.5 -222 -73.5c-98.667 0 -170 22.667 -214 68
s-66 116.666 -66 213.999v317l-75 30v83l308 5v-88zM446 735.001l-227 112l58 109l216 -141z" />
    <glyph glyph-name="Uacute" unicode="&#xda;" horiz-adv-x="782" 
d="M262 587v-316.999c0 -58 9.66699 -99.167 29 -123.5s53 -36.5 101 -36.5c50.667 0 84.667 13.5 102 40.5s26 71.833 26 134.5v302l-78 30v83l308 5v-88l-75 -30v-302c0 -100 -22 -174.5 -66 -223.5s-118 -73.5 -222 -73.5c-98.667 0 -170 22.667 -214 68
s-66 116.666 -66 213.999v317l-75 30v83l308 5v-88zM586 848.001l-227 -113l-47 80l216 141z" />
    <glyph glyph-name="Ucircumflex" unicode="&#xdb;" horiz-adv-x="782" 
d="M262 587v-316.999c0 -58 9.66699 -99.167 29 -123.5s53 -36.5 101 -36.5c50.667 0 84.667 13.5 102 40.5s26 71.833 26 134.5v302l-78 30v83l308 5v-88l-75 -30v-302c0 -100 -22 -174.5 -66 -223.5s-118 -73.5 -222 -73.5c-98.667 0 -170 22.667 -214 68
s-66 116.666 -66 213.999v317l-75 30v83l308 5v-88zM391 840.001l-157 -98l-48 66l153 131l89 8l162 -139l-48 -66z" />
    <glyph glyph-name="Udieresis" unicode="&#xdc;" horiz-adv-x="782" 
d="M262 587v-316.999c0 -58 9.66699 -99.167 29 -123.5s53 -36.5 101 -36.5c50.667 0 84.667 13.5 102 40.5s26 71.833 26 134.5v302l-78 30v83l308 5v-88l-75 -30v-302c0 -100 -22 -174.5 -66 -223.5s-118 -73.5 -222 -73.5c-98.667 0 -170 22.667 -214 68
s-66 116.666 -66 213.999v317l-75 30v83l308 5v-88zM209 847.001c0 23.333 7.16797 42.168 21.501 56.501s31.833 21.5 52.5 21.5c23.333 0 41.166 -6.83301 53.499 -20.5s18.5 -32.834 18.5 -57.501c0 -24 -7.16699 -43 -21.5 -57s-31.833 -21 -52.5 -21
c-48 0 -72 26 -72 78zM427.001 847.003c0 23.333 7.33301 42.167 22 56.5s32 21.5 52 21.5c48 0 72 -26 72 -78c0 -24 -7.16699 -43 -21.5 -57s-31.833 -21 -52.5 -21c-48 0 -72 26 -72 78z" />
    <glyph glyph-name="Yacute" unicode="&#xdd;" horiz-adv-x="667" 
d="M485 87v-87h-305v87l75 25v132l-183 346l-65 27v83l283 5v-88l-51 -21l100 -217l106 216l-55 22v83l270 5v-88l-69 -27l-181 -345v-133zM526 848l-227 -113l-47 80l216 141z" />
    <glyph glyph-name="Thorn" unicode="&#xde;" horiz-adv-x="644" 
d="M365 87l-0.000976562 -87h-335v87l90 25v475l-90 30v83l335 5v-88l-90 -30v-32h99c76 0 135 -16 177 -48s63 -77.667 63 -137c0 -72 -25.167 -125 -75.5 -159s-120.166 -51 -209.499 -51h-54v-48zM355.999 445l-81 -0.000976562v-178h64c38.667 0 68.667 7.83301 90 23.5
s32 38.834 32 69.501c0 27.333 -9.5 48.333 -28.5 63s-44.5 22 -76.5 22z" />
    <glyph glyph-name="germandbls" unicode="&#xdf;" horiz-adv-x="787" 
d="M152 522l0.00195312 47.9971c0 65.333 22.167 117.833 66.5 157.5s103.166 59.5 176.499 59.5c80 0 142 -15.167 186 -45.5s66 -71.5 66 -123.5c0 -26.667 -5.83301 -50.834 -17.5 -72.501s-24.667 -38.334 -39 -50.001s-27.333 -25.167 -39 -40.5
s-17.5 -30.333 -17.5 -45c0 -16.667 8 -31.167 24 -43.5s35.333 -23.166 58 -32.499s45.167 -19.666 67.5 -30.999s41.5 -28.166 57.5 -50.499s24 -49.166 24 -80.499c0 -54.667 -20.333 -98.667 -61 -132s-93.334 -50 -158.001 -50c-24 0 -50.167 1.83301 -78.5 5.5
s-50.833 7.16699 -67.5 10.5l-25 6v161h90l10 -67c18 -7.33301 40 -11 66 -11c48 0 72 18 72 54c0 16 -8 29.833 -24 41.5s-35.167 22.167 -57.5 31.5s-44.833 20 -67.5 32s-42 29.667 -58 53s-24 51.333 -24 84c0 26 6.16699 49.167 18.5 69.5s25.833 35.833 40.5 46.5
s28.167 23.834 40.5 39.501s18.5 32.5 18.5 50.5c0 25.333 -10.333 45 -31 59s-44.667 21 -72 21c-30.667 0 -54.5 -8.83301 -71.5 -26.5s-25.5 -42.167 -25.5 -73.5v-577h-228v80l80 25v315h-100v87z" />
    <glyph glyph-name="agrave" unicode="&#xe0;" 
d="M570 7l-198.001 -6.99805l-18 65l-24 -20.5c-10 -8.33301 -29.167 -19.5 -57.5 -33.5s-55.166 -21 -80.499 -21c-48.667 0 -86.667 13.667 -114 41s-41 66 -41 116c0 110 80 165 240 165h70v55c0 50 -25.667 75 -77 75c-15.333 0 -30.333 -1.33301 -45 -4
s-25.667 -5.33398 -33 -8.00098l-10 -3l-15 -65h-90l-7 148c80.667 26.667 153 40 217 40c76 0 129.667 -14.833 161 -44.5s47 -80.834 47 -153.501v-247l75 -18v-80zM180.999 162.002c0 -40 19.667 -60 59 -60c16 0 32.833 4.83301 50.5 14.5s31.5 19.5 41.5 29.5l15 14v67
h-57c-38.667 0 -66.5 -5.16699 -83.5 -15.5s-25.5 -26.833 -25.5 -49.5zM352.999 598.002l-242 147l68 104l223 -178z" />
    <glyph glyph-name="aacute" unicode="&#xe1;" 
d="M570 7l-198.001 -6.99805l-18 65l-24 -20.5c-10 -8.33301 -29.167 -19.5 -57.5 -33.5s-55.166 -21 -80.499 -21c-48.667 0 -86.667 13.667 -114 41s-41 66 -41 116c0 110 80 165 240 165h70v55c0 50 -25.667 75 -77 75c-15.333 0 -30.333 -1.33301 -45 -4
s-25.667 -5.33398 -33 -8.00098l-10 -3l-15 -65h-90l-7 148c80.667 26.667 153 40 217 40c76 0 129.667 -14.833 161 -44.5s47 -80.834 47 -153.501v-247l75 -18v-80zM180.999 162.002c0 -40 19.667 -60 59 -60c16 0 32.833 4.83301 50.5 14.5s31.5 19.5 41.5 29.5l15 14v67
h-57c-38.667 0 -66.5 -5.16699 -83.5 -15.5s-25.5 -26.833 -25.5 -49.5zM436.999 745.002l-242 -147l-49 73l223 178z" />
    <glyph glyph-name="acircumflex" unicode="&#xe2;" 
d="M570 7l-198.001 -6.99805l-18 65l-24 -20.5c-10 -8.33301 -29.167 -19.5 -57.5 -33.5s-55.166 -21 -80.499 -21c-48.667 0 -86.667 13.667 -114 41s-41 66 -41 116c0 110 80 165 240 165h70v55c0 50 -25.667 75 -77 75c-15.333 0 -30.333 -1.33301 -45 -4
s-25.667 -5.33398 -33 -8.00098l-10 -3l-15 -65h-90l-7 148c80.667 26.667 153 40 217 40c76 0 129.667 -14.833 161 -44.5s47 -80.834 47 -153.501v-247l75 -18v-80zM180.999 162.002c0 -40 19.667 -60 59 -60c16 0 32.833 4.83301 50.5 14.5s31.5 19.5 41.5 29.5l15 14v67
h-57c-38.667 0 -66.5 -5.16699 -83.5 -15.5s-25.5 -26.833 -25.5 -49.5zM286.999 724.002l-168 -120l-48 66l164 153l89 8l175 -161l-48 -66z" />
    <glyph glyph-name="atilde" unicode="&#xe3;" 
d="M570 7l-198.001 -6.99805l-18 65l-24 -20.5c-10 -8.33301 -29.167 -19.5 -57.5 -33.5s-55.166 -21 -80.499 -21c-48.667 0 -86.667 13.667 -114 41s-41 66 -41 116c0 110 80 165 240 165h70v55c0 50 -25.667 75 -77 75c-15.333 0 -30.333 -1.33301 -45 -4
s-25.667 -5.33398 -33 -8.00098l-10 -3l-15 -65h-90l-7 148c80.667 26.667 153 40 217 40c76 0 129.667 -14.833 161 -44.5s47 -80.834 47 -153.501v-247l75 -18v-80zM180.999 162.002c0 -40 19.667 -60 59 -60c16 0 32.833 4.83301 50.5 14.5s31.5 19.5 41.5 29.5l15 14v67
h-57c-38.667 0 -66.5 -5.16699 -83.5 -15.5s-25.5 -26.833 -25.5 -49.5zM115.999 630.002l-47.0029 45.999c1.33301 2.66699 3 6.5 5 11.5s7 13.833 15 26.5s16.333 23.834 25 33.501s20.334 18.5 35.001 26.5s29.667 12 45 12c24 0 52.833 -7.66699 86.5 -23
s60.167 -23 79.5 -23c11.333 0 22.833 3.5 34.5 10.5s20.167 14.167 25.5 21.5l9 10l53 -46l-5.5 -11.5c-2.33301 -5 -7.33301 -13.833 -15 -26.5s-16 -23.667 -25 -33s-20.667 -18 -35 -26s-29.166 -12 -44.499 -12c-24 0 -53.167 7.33301 -87.5 22s-61.166 22 -80.499 22
c-12.667 0 -25 -3.5 -37 -10.5s-21 -13.833 -27 -20.5z" />
    <glyph glyph-name="adieresis" unicode="&#xe4;" 
d="M570 7l-198.001 -6.99805l-18 65l-24 -20.5c-10 -8.33301 -29.167 -19.5 -57.5 -33.5s-55.166 -21 -80.499 -21c-48.667 0 -86.667 13.667 -114 41s-41 66 -41 116c0 110 80 165 240 165h70v55c0 50 -25.667 75 -77 75c-15.333 0 -30.333 -1.33301 -45 -4
s-25.667 -5.33398 -33 -8.00098l-10 -3l-15 -65h-90l-7 148c80.667 26.667 153 40 217 40c76 0 129.667 -14.833 161 -44.5s47 -80.834 47 -153.501v-247l75 -18v-80zM180.999 162.002c0 -40 19.667 -60 59 -60c16 0 32.833 4.83301 50.5 14.5s31.5 19.5 41.5 29.5l15 14v67
h-57c-38.667 0 -66.5 -5.16699 -83.5 -15.5s-25.5 -26.833 -25.5 -49.5zM103.999 698.002c0 23.333 7.16797 42.168 21.501 56.501s31.833 21.5 52.5 21.5c23.333 0 41.166 -6.83301 53.499 -20.5s18.5 -32.834 18.5 -57.501c0 -24 -7.16699 -43 -21.5 -57
s-31.833 -21 -52.5 -21c-48 0 -72 26 -72 78zM322 698.004c0 23.333 7.33301 42.167 22 56.5s32 21.5 52 21.5c48 0 72 -26 72 -78c0 -24 -7.16699 -43 -21.5 -57s-31.833 -21 -52.5 -21c-48 0 -72 26 -72 78z" />
    <glyph glyph-name="aring" unicode="&#xe5;" 
d="M570 7l-198.001 -6.99805l-18 65l-24 -20.5c-10 -8.33301 -29.167 -19.5 -57.5 -33.5s-55.166 -21 -80.499 -21c-48.667 0 -86.667 13.667 -114 41s-41 66 -41 116c0 110 80 165 240 165h70v55c0 50 -25.667 75 -77 75c-15.333 0 -30.333 -1.33301 -45 -4
s-25.667 -5.33398 -33 -8.00098l-10 -3l-15 -65h-90l-7 148c80.667 26.667 153 40 217 40c76 0 129.667 -14.833 161 -44.5s47 -80.834 47 -153.501v-247l75 -18v-80zM180.999 162.002c0 -40 19.667 -60 59 -60c16 0 32.833 4.83301 50.5 14.5s31.5 19.5 41.5 29.5l15 14v67
h-57c-38.667 0 -66.5 -5.16699 -83.5 -15.5s-25.5 -26.833 -25.5 -49.5zM161.999 704.002c0 40 13.5 72.167 40.5 96.5s58.167 36.5 93.5 36.5s66.333 -11.333 93 -34s40 -53.667 40 -93s-13.5 -71.333 -40.5 -96s-57.833 -37 -92.5 -37c-36 0 -67.333 11.333 -94 34
s-40 53.667 -40 93zM246.999 707.002c0 -38 16.333 -57 49 -57c14 0 25.5 5 34.5 15s13.5 24.333 13.5 43c0 38 -16 57 -48 57c-14.667 0 -26.5 -5 -35.5 -15s-13.5 -24.333 -13.5 -43z" />
    <glyph glyph-name="ae" unicode="&#xe6;" horiz-adv-x="863" 
d="M827 238l-331.002 -3c2.66699 -40.667 14.834 -72.167 36.501 -94.5s49.834 -33.5 84.501 -33.5c24.667 0 50.834 3.83301 78.501 11.5s49.167 15.5 64.5 23.5l23 12l44 -80c-8 -6 -19 -13.667 -33 -23s-41.167 -21.833 -81.5 -37.5s-78.833 -23.5 -115.5 -23.5
c-97.333 0 -166.666 33.333 -207.999 100c-56.667 -66.667 -122.334 -100 -197.001 -100c-47.333 0 -85 14 -113 42s-42 66.333 -42 115c0 110 80 165 240 165h70v55c0 50 -25.667 75 -77 75c-14.667 0 -29.334 -1.33301 -44.001 -4s-25.667 -5.33398 -33 -8.00098l-11 -3
l-15 -65h-90l-7 148c0 1.33301 11 5 33 11s50.833 12.167 86.5 18.5s67.5 9.5 95.5 9.5c74.667 0 126.667 -19.333 156 -58c44.667 39.333 100 59 166 59c72 0 127.667 -20.667 167 -62s59 -98.666 59 -171.999zM179.998 162c0 -18.667 5.33203 -33.333 15.999 -44
s25.334 -16 44.001 -16c15.333 0 32 5 50 15s32 20 42 30l15 15v65h-57c-38.667 0 -66.667 -5.16699 -84 -15.5s-26 -26.833 -26 -49.5zM596.997 433.001c-28 0 -50.833 -9.5 -68.5 -28.5s-28.5 -45.5 -32.5 -79.5h183c0 72 -27.333 108 -82 108z" />
    <glyph glyph-name="ccedilla" unicode="&#xe7;" horiz-adv-x="515" 
d="M455 160l50.002 -84.9971c-52.667 -45.333 -109.667 -72.333 -171 -81v-34c26 -5.33301 46.833 -15.833 62.5 -31.5s23.5 -35.167 23.5 -58.5c0 -28.667 -12 -52.334 -36 -71.001s-53.667 -28 -89 -28c-20 0 -40.333 2.66699 -61 8s-36.334 10.666 -47.001 15.999l-16 8
l31 55c28 -14 55.333 -21 82 -21c14.667 0 26.167 3.33301 34.5 10s12.5 15.667 12.5 27c0 14 -7.5 24.833 -22.5 32.5s-35.167 11.5 -60.5 11.5v75c-69.333 7.33301 -123 34.5 -161 81.5s-57 109.5 -57 187.5c0 89.333 24.167 159.666 72.5 210.999s115.833 77 202.5 77
c25.333 0 52.666 -2.83301 81.999 -8.5s52.333 -11.5 69 -17.5l24 -9l-5 -163h-90l-14 72c-19.333 5.33301 -42.333 8 -69 8c-37.333 0 -66.166 -12.5 -86.499 -37.5s-30.5 -62.5 -30.5 -112.5c0 -56.667 10.5 -100 31.5 -130s52.167 -45 93.5 -45
c13.333 0 26 1.16699 38 3.5s23.667 5.83301 35 10.5s20.166 8.66699 26.499 12s15 8.33301 26 15s17.5 10.667 19.5 12z" />
    <glyph glyph-name="egrave" unicode="&#xe8;" horiz-adv-x="557" 
d="M524 240l-332 -3c2.66699 -41.333 14.834 -73.333 36.501 -96s49.5 -34 83.5 -34c24.667 0 51 3.83301 79 11.5s49.667 15.5 65 23.5l24 12l43 -80c-7.33301 -6 -17.666 -13.667 -30.999 -23s-40 -21.833 -80 -37.5s-79 -23.5 -117 -23.5
c-84.667 0 -149.167 23.5 -193.5 70.5s-66.5 113.5 -66.5 199.5c0 88.667 23.667 159.167 71 211.5s112.666 78.5 195.999 78.5c73.333 0 129.666 -21 168.999 -63s59 -99.333 59 -172zM292 433c-27.333 0 -49.5 -9.33301 -66.5 -28s-27.5 -43.667 -31.5 -75h180
c0 68.667 -27.333 103 -82 103zM368 598l-242 147l68 104l223 -178z" />
    <glyph glyph-name="eacute" unicode="&#xe9;" horiz-adv-x="557" 
d="M524 240l-332 -3c2.66699 -41.333 14.834 -73.333 36.501 -96s49.5 -34 83.5 -34c24.667 0 51 3.83301 79 11.5s49.667 15.5 65 23.5l24 12l43 -80c-7.33301 -6 -17.666 -13.667 -30.999 -23s-40 -21.833 -80 -37.5s-79 -23.5 -117 -23.5
c-84.667 0 -149.167 23.5 -193.5 70.5s-66.5 113.5 -66.5 199.5c0 88.667 23.667 159.167 71 211.5s112.666 78.5 195.999 78.5c73.333 0 129.666 -21 168.999 -63s59 -99.333 59 -172zM292 433c-27.333 0 -49.5 -9.33301 -66.5 -28s-27.5 -43.667 -31.5 -75h180
c0 68.667 -27.333 103 -82 103zM459 745l-242 -147l-49 73l223 178z" />
    <glyph glyph-name="ecircumflex" unicode="&#xea;" horiz-adv-x="557" 
d="M524 240l-332 -3c2.66699 -41.333 14.834 -73.333 36.501 -96s49.5 -34 83.5 -34c24.667 0 51 3.83301 79 11.5s49.667 15.5 65 23.5l24 12l43 -80c-7.33301 -6 -17.666 -13.667 -30.999 -23s-40 -21.833 -80 -37.5s-79 -23.5 -117 -23.5
c-84.667 0 -149.167 23.5 -193.5 70.5s-66.5 113.5 -66.5 199.5c0 88.667 23.667 159.167 71 211.5s112.666 78.5 195.999 78.5c73.333 0 129.666 -21 168.999 -63s59 -99.333 59 -172zM292 433c-27.333 0 -49.5 -9.33301 -66.5 -28s-27.5 -43.667 -31.5 -75h180
c0 68.667 -27.333 103 -82 103zM290 724l-168 -120l-48 66l164 153l89 8l175 -161l-48 -66z" />
    <glyph glyph-name="edieresis" unicode="&#xeb;" horiz-adv-x="557" 
d="M524 240l-332 -3c2.66699 -41.333 14.834 -73.333 36.501 -96s49.5 -34 83.5 -34c24.667 0 51 3.83301 79 11.5s49.667 15.5 65 23.5l24 12l43 -80c-7.33301 -6 -17.666 -13.667 -30.999 -23s-40 -21.833 -80 -37.5s-79 -23.5 -117 -23.5
c-84.667 0 -149.167 23.5 -193.5 70.5s-66.5 113.5 -66.5 199.5c0 88.667 23.667 159.167 71 211.5s112.666 78.5 195.999 78.5c73.333 0 129.666 -21 168.999 -63s59 -99.333 59 -172zM292 433c-27.333 0 -49.5 -9.33301 -66.5 -28s-27.5 -43.667 -31.5 -75h180
c0 68.667 -27.333 103 -82 103zM104 698c0 23.333 7.16797 42.168 21.501 56.501s31.833 21.5 52.5 21.5c23.333 0 41.166 -6.83301 53.499 -20.5s18.5 -32.834 18.5 -57.501c0 -24 -7.16699 -43 -21.5 -57s-31.833 -21 -52.5 -21c-48 0 -72 26 -72 78zM322.001 698.002
c0 23.333 7.33301 42.167 22 56.5s32 21.5 52 21.5c48 0 72 -26 72 -78c0 -24 -7.16699 -43 -21.5 -57s-31.833 -21 -52.5 -21c-48 0 -72 26 -72 78z" />
    <glyph glyph-name="igrave" unicode="&#xec;" horiz-adv-x="369" 
d="M46 532l227 8v-435l70 -25v-80h-297v80l80 25v327l-80 20v80zM267 598l-242 147l68 104l223 -178z" />
    <glyph glyph-name="iacute" unicode="&#xed;" horiz-adv-x="358" 
d="M35 532l227 8v-435l70 -25v-80h-297v80l80 25v327l-80 20v80zM345 745l-242 -147l-49 73l223 178z" />
    <glyph glyph-name="icircumflex" unicode="&#xee;" horiz-adv-x="358" 
d="M180 724l-159 -120l-49 66l156 153l89 8l166 -161l-49 -66zM35 532l227 8v-435l70 -25v-80h-297v80l80 25v327l-80 20v80z" />
    <glyph glyph-name="idieresis" unicode="&#xef;" horiz-adv-x="358" 
d="M-1 698c0 23.333 7.16797 42.168 21.501 56.501s31.833 21.5 52.5 21.5c23.333 0 41.166 -6.83301 53.499 -20.5s18.5 -32.834 18.5 -57.501c0 -24 -7.16699 -43 -21.5 -57s-31.833 -21 -52.5 -21c-48 0 -72 26 -72 78zM207.001 698.002c0 23.333 7.33301 42.167 22 56.5
s32 21.5 52 21.5c48 0 72 -26 72 -78c0 -24 -7.16699 -43 -21.5 -57s-31.833 -21 -52.5 -21c-48 0 -72 26 -72 78zM35.001 532.003l227 8v-435l70 -25v-80h-297v80l80 25v327l-80 20v80z" />
    <glyph glyph-name="eth" unicode="&#xf0;" horiz-adv-x="595" 
d="M115 702l46 86.999c52 -12.667 101 -33 147 -61l105 61l58 -79l-81 -46c96.667 -95.333 145 -226 145 -392c0 -86 -23.333 -154.833 -70 -206.5s-109.334 -77.5 -188.001 -77.5c-76.667 0 -136.667 21.333 -180 64s-65 105.334 -65 188.001c0 82 23.5 146.667 70.5 194
s108.5 71 184.5 71c26 0 52 -7.33301 78 -22c-18 48 -44 88 -78 120l-117 -67l-58 79l88 50c-27.333 14.667 -55.666 27 -84.999 37zM287 389.999c-66.667 0 -99.999 -48.333 -99.999 -145c0 -95.333 31.667 -143 95 -143c35.333 0 60.5 12.5 75.5 37.5
s22.5 61.833 22.5 110.5c0 46.667 -6.83301 81.667 -20.5 105s-37.834 35 -72.501 35z" />
    <glyph glyph-name="ntilde" unicode="&#xf1;" horiz-adv-x="677" 
d="M30 532l215 8l6 -69c18.667 17.333 44.5 34.5 77.5 51.5s68.5 25.5 106.5 25.5c48 0 85 -15.833 111 -47.5s39 -75.167 39 -130.5v-263l72 -27v-80h-272v80l52 27v240c0 24 -5.83301 43.333 -17.5 58s-28.167 22 -49.5 22c-18.667 0 -37 -4.83301 -55 -14.5
s-31.333 -19.167 -40 -28.5l-13 -14v-263l53 -27v-80h-285v80l85 27v325l-85 20v80zM180 631l-47.001 46.002c1.33301 2.66699 3 6.5 5 11.5s6.83301 13.833 14.5 26.5s16 23.667 25 33s20.667 18 35 26s29.5 12 45.5 12c24 0 52.5 -7.5 85.5 -22.5s59.167 -22.5 78.5 -22.5
c11.333 0 22.833 3.5 34.5 10.5s20.834 13.833 27.501 20.5l9 11l53 -46l-5.5 -11.5c-2.33301 -5 -7.33301 -13.833 -15 -26.5s-16 -23.834 -25 -33.501s-20.833 -18.5 -35.5 -26.5s-29.667 -12 -45 -12c-24 0 -53 7.5 -87 22.5s-60.667 22.5 -80 22.5
c-12.667 0 -25.167 -3.33301 -37.5 -10s-21.5 -13.334 -27.5 -20.001z" />
    <glyph glyph-name="ograve" unicode="&#xf2;" 
d="M305 550c80.667 0 142.831 -23.499 186.498 -70.499s65.5 -113.5 65.5 -199.5c0 -89.333 -24.167 -160 -72.5 -212s-113.166 -78 -194.499 -78c-170 0 -255 91.667 -255 275c0 89.333 24.333 159.166 73 209.499s114.334 75.5 197.001 75.5zM299.997 435.001
c-38 0 -65.835 -12.333 -83.502 -37s-26.5 -67.334 -26.5 -128.001c0 -57.333 8.33301 -99.166 25 -125.499s43.334 -39.5 80.001 -39.5s63.667 13 81 39s26 69.667 26 131c0 54 -8.16699 94.167 -24.5 120.5s-42.166 39.5 -77.499 39.5zM382.995 598.001l-242 147l68 104
l223 -178z" />
    <glyph glyph-name="oacute" unicode="&#xf3;" 
d="M305 550c80.667 0 142.831 -23.499 186.498 -70.499s65.5 -113.5 65.5 -199.5c0 -89.333 -24.167 -160 -72.5 -212s-113.166 -78 -194.499 -78c-170 0 -255 91.667 -255 275c0 89.333 24.333 159.166 73 209.499s114.334 75.5 197.001 75.5zM299.997 435.001
c-38 0 -65.835 -12.333 -83.502 -37s-26.5 -67.334 -26.5 -128.001c0 -57.333 8.33301 -99.166 25 -125.499s43.334 -39.5 80.001 -39.5s63.667 13 81 39s26 69.667 26 131c0 54 -8.16699 94.167 -24.5 120.5s-42.166 39.5 -77.499 39.5zM453.995 745.001l-242 -147l-49 73
l223 178z" />
    <glyph glyph-name="ocircumflex" unicode="&#xf4;" 
d="M305 550c80.667 0 142.831 -23.499 186.498 -70.499s65.5 -113.5 65.5 -199.5c0 -89.333 -24.167 -160 -72.5 -212s-113.166 -78 -194.499 -78c-170 0 -255 91.667 -255 275c0 89.333 24.333 159.166 73 209.499s114.334 75.5 197.001 75.5zM299.997 435.001
c-38 0 -65.835 -12.333 -83.502 -37s-26.5 -67.334 -26.5 -128.001c0 -57.333 8.33301 -99.166 25 -125.499s43.334 -39.5 80.001 -39.5s63.667 13 81 39s26 69.667 26 131c0 54 -8.16699 94.167 -24.5 120.5s-42.166 39.5 -77.499 39.5zM300.995 724.001l-168 -120l-48 66
l164 153l89 8l175 -161l-48 -66z" />
    <glyph glyph-name="otilde" unicode="&#xf5;" 
d="M305 550c80.667 0 142.831 -23.499 186.498 -70.499s65.5 -113.5 65.5 -199.5c0 -89.333 -24.167 -160 -72.5 -212s-113.166 -78 -194.499 -78c-170 0 -255 91.667 -255 275c0 89.333 24.333 159.166 73 209.499s114.334 75.5 197.001 75.5zM299.997 435.001
c-38 0 -65.835 -12.333 -83.502 -37s-26.5 -67.334 -26.5 -128.001c0 -57.333 8.33301 -99.166 25 -125.499s43.334 -39.5 80.001 -39.5s63.667 13 81 39s26 69.667 26 131c0 54 -8.16699 94.167 -24.5 120.5s-42.166 39.5 -77.499 39.5zM135.995 630.001l-47.0029 45.999
c1.33301 2.66699 3 6.5 5 11.5s7 13.833 15 26.5s16.333 23.834 25 33.501s20.334 18.5 35.001 26.5s29.667 12 45 12c24 0 52.833 -7.66699 86.5 -23s60.167 -23 79.5 -23c11.333 0 22.833 3.5 34.5 10.5s20.5 14.167 26.5 21.5l8 10l53 -46l-5.5 -11.5
c-2.33301 -5 -7.33301 -13.833 -15 -26.5s-16 -23.667 -25 -33s-20.667 -18 -35 -26s-29.166 -12 -44.499 -12c-24 0 -53.167 7.33301 -87.5 22s-61.166 22 -80.499 22c-12.667 0 -25 -3.5 -37 -10.5s-21 -13.833 -27 -20.5z" />
    <glyph glyph-name="odieresis" unicode="&#xf6;" 
d="M305 550c80.667 0 142.831 -23.499 186.498 -70.499s65.5 -113.5 65.5 -199.5c0 -89.333 -24.167 -160 -72.5 -212s-113.166 -78 -194.499 -78c-170 0 -255 91.667 -255 275c0 89.333 24.333 159.166 73 209.499s114.334 75.5 197.001 75.5zM299.997 435.001
c-38 0 -65.835 -12.333 -83.502 -37s-26.5 -67.334 -26.5 -128.001c0 -57.333 8.33301 -99.166 25 -125.499s43.334 -39.5 80.001 -39.5s63.667 13 81 39s26 69.667 26 131c0 54 -8.16699 94.167 -24.5 120.5s-42.166 39.5 -77.499 39.5zM113.995 698.001
c0 23.333 7.16797 42.168 21.501 56.501s31.833 21.5 52.5 21.5c23.333 0 41.166 -6.83301 53.499 -20.5s18.5 -32.834 18.5 -57.501c0 -24 -7.16699 -43 -21.5 -57s-31.833 -21 -52.5 -21c-48 0 -72 26 -72 78zM331.996 698.003c0 23.333 7.33301 42.167 22 56.5
s32 21.5 52 21.5c48 0 72 -26 72 -78c0 -24 -7.16699 -43 -21.5 -57s-31.833 -21 -52.5 -21c-48 0 -72 26 -72 78z" />
    <glyph glyph-name="divide" unicode="&#xf7;" horiz-adv-x="630" 
d="M228 51c0 29.333 8.33301 51.999 25 67.999s38 24 64 24c56.667 0 85 -30.667 85 -92c0 -29.333 -8.16699 -52.166 -24.5 -68.499s-37.5 -24.5 -63.5 -24.5c-57.333 0 -86 31 -86 93zM228 480.999c0 29.333 8.33301 51.999 25 67.999s38 24 64 24
c56.667 0 85 -30.667 85 -92c0 -29.333 -8.16699 -52.166 -24.5 -68.499s-37.5 -24.5 -63.5 -24.5c-57.333 0 -86 31 -86 93zM52 207.998v115h525v-115h-525z" />
    <glyph glyph-name="oslash" unicode="&#xf8;" horiz-adv-x="602" 
d="M119 -117l-75.002 42.002l72 121c-50.667 44.667 -76 117.667 -76 219c0 89.333 24.333 159.166 73 209.499s114.334 75.5 197.001 75.5c34 0 67 -5.33301 99 -16l65 109l75 -42l-65 -109c52 -46.667 78 -117.334 78 -212.001c0 -89.333 -24.167 -160 -72.5 -212
s-113.166 -78 -194.499 -78c-34 0 -68.333 4.66699 -103 14zM406.998 275.002c0 29.333 -3.66699 52.667 -11 70l-139 -232c10.667 -5.33301 25 -8 43 -8c37.333 0 64.5 13.333 81.5 40s25.5 70 25.5 130zM304.998 435.003c-38.667 0 -66.667 -12.667 -84 -38
s-26 -68 -26 -128c0 -28 3.66699 -52.333 11 -73l138 231c-12 5.33301 -25 8 -39 8z" />
    <glyph glyph-name="ugrave" unicode="&#xf9;" horiz-adv-x="655" 
d="M89 169l-0.00195312 265l-73 18v80l221 8v-343c0 -27.333 4.33301 -47.5 13 -60.5s23 -19.5 43 -19.5c18.667 0 37.834 4.5 57.501 13.5s34.834 18.167 45.501 27.5l15 14v262l-74 18v80l221 8v-435l76 -20v-78l-204 -7l-10 70c-2 -2 -5.16699 -4.83301 -9.5 -8.5
s-12.833 -10.167 -25.5 -19.5s-25.667 -17.5 -39 -24.5s-29.5 -13.333 -48.5 -19s-37.167 -8.5 -54.5 -8.5c-50 0 -88.167 15.667 -114.5 47s-39.5 75.333 -39.5 132zM393.998 598l-242 147l68 104l223 -178z" />
    <glyph glyph-name="uacute" unicode="&#xfa;" horiz-adv-x="655" 
d="M89 169l-0.00195312 265l-73 18v80l221 8v-343c0 -27.333 4.33301 -47.5 13 -60.5s23 -19.5 43 -19.5c18.667 0 37.834 4.5 57.501 13.5s34.834 18.167 45.501 27.5l15 14v262l-74 18v80l221 8v-435l76 -20v-78l-204 -7l-10 70c-2 -2 -5.16699 -4.83301 -9.5 -8.5
s-12.833 -10.167 -25.5 -19.5s-25.667 -17.5 -39 -24.5s-29.5 -13.333 -48.5 -19s-37.167 -8.5 -54.5 -8.5c-50 0 -88.167 15.667 -114.5 47s-39.5 75.333 -39.5 132zM475.998 745l-242 -147l-49 73l223 178z" />
    <glyph glyph-name="ucircumflex" unicode="&#xfb;" horiz-adv-x="655" 
d="M89 169l-0.00195312 265l-73 18v80l221 8v-343c0 -27.333 4.33301 -47.5 13 -60.5s23 -19.5 43 -19.5c18.667 0 37.834 4.5 57.501 13.5s34.834 18.167 45.501 27.5l15 14v262l-74 18v80l221 8v-435l76 -20v-78l-204 -7l-10 70c-2 -2 -5.16699 -4.83301 -9.5 -8.5
s-12.833 -10.167 -25.5 -19.5s-25.667 -17.5 -39 -24.5s-29.5 -13.333 -48.5 -19s-37.167 -8.5 -54.5 -8.5c-50 0 -88.167 15.667 -114.5 47s-39.5 75.333 -39.5 132zM319.998 724l-168 -120l-48 66l164 153l89 8l175 -161l-48 -66z" />
    <glyph glyph-name="udieresis" unicode="&#xfc;" horiz-adv-x="655" 
d="M89 169l-0.00195312 265l-73 18v80l221 8v-343c0 -27.333 4.33301 -47.5 13 -60.5s23 -19.5 43 -19.5c18.667 0 37.834 4.5 57.501 13.5s34.834 18.167 45.501 27.5l15 14v262l-74 18v80l221 8v-435l76 -20v-78l-204 -7l-10 70c-2 -2 -5.16699 -4.83301 -9.5 -8.5
s-12.833 -10.167 -25.5 -19.5s-25.667 -17.5 -39 -24.5s-29.5 -13.333 -48.5 -19s-37.167 -8.5 -54.5 -8.5c-50 0 -88.167 15.667 -114.5 47s-39.5 75.333 -39.5 132zM131.998 698c0 23.333 7.16797 42.168 21.501 56.501s31.833 21.5 52.5 21.5
c23.333 0 41.166 -6.83301 53.499 -20.5s18.5 -32.834 18.5 -57.501c0 -24 -7.16699 -43 -21.5 -57s-31.833 -21 -52.5 -21c-48 0 -72 26 -72 78zM349.999 698.002c0 23.333 7.33301 42.167 22 56.5s32 21.5 52 21.5c48 0 72 -26 72 -78c0 -24 -7.16699 -43 -21.5 -57
s-31.833 -21 -52.5 -21c-48 0 -72 26 -72 78z" />
    <glyph glyph-name="yacute" unicode="&#xfd;" horiz-adv-x="611" 
d="M241 -1l-178.001 440l-53 16v80l267 5v-85l-56 -10l89 -280l85 277l-58 13v80l269 5v-85l-62 -13l-147 -410c-14.667 -39.333 -28.5 -72.5 -41.5 -99.5s-30.167 -55 -51.5 -84s-47 -51 -77 -66s-64 -22.5 -102 -22.5l-97 8l14 107h65
c18.667 0 35.834 4.16699 51.501 12.5s29 20.333 40 36s19.167 28.5 24.5 38.5s11.333 22.333 18 37zM520.999 745l-242 -147l-49 73l223 178z" />
    <glyph glyph-name="thorn" unicode="&#xfe;" horiz-adv-x="615" 
d="M25 767l230 8v-283c4 4 9.83301 9.33301 17.5 16s23.834 15.334 48.501 26.001s50 16 76 16c65.333 0 115.5 -23.667 150.5 -71s52.5 -112 52.5 -194c0 -94 -23.833 -166.667 -71.5 -218s-118.834 -77 -213.501 -77c-8 0 -17 0.666992 -27 2s-18 2.66602 -24 3.99902
l-9 2v-130l105 -23v-80h-333v80l78 23v799l-80 20v80zM255 385v-267c16.667 -8.66699 42 -13 76 -13c76 0 114 56.667 114 170c0 104.667 -32.667 157 -98 157c-18 0 -34.667 -4 -50 -12s-26.333 -16 -33 -24z" />
    <glyph glyph-name="ydieresis" unicode="&#xff;" horiz-adv-x="611" 
d="M241 -1l-178.001 440l-53 16v80l267 5v-85l-56 -10l89 -280l85 277l-58 13v80l269 5v-85l-62 -13l-147 -410c-14.667 -39.333 -28.5 -72.5 -41.5 -99.5s-30.167 -55 -51.5 -84s-47 -51 -77 -66s-64 -22.5 -102 -22.5l-97 8l14 107h65
c18.667 0 35.834 4.16699 51.501 12.5s29 20.333 40 36s19.167 28.5 24.5 38.5s11.333 22.333 18 37zM122.999 712c0 -52 23.999 -78.002 71.999 -78.002c20.667 0 38.167 7 52.5 21s21.5 33 21.5 57c0 24.667 -6.16699 43.834 -18.5 57.501s-30.166 20.5 -53.499 20.5
c-20.667 0 -38.167 -7.16699 -52.5 -21.5s-21.5 -33.166 -21.5 -56.499zM340.998 711.998c0 -52 24 -78.001 72 -78.001c20.667 0 38.167 7 52.5 21s21.5 33 21.5 57c0 52 -24 78 -72 78c-20 0 -37.333 -7.16699 -52 -21.5s-22 -33.166 -22 -56.499zM113.998 697.997
c0 23.333 7.16797 42.168 21.501 56.501s31.833 21.5 52.5 21.5c23.333 0 41.166 -6.83301 53.499 -20.5s18.5 -32.834 18.5 -57.501c0 -24 -7.16699 -43 -21.5 -57s-31.833 -21 -52.5 -21c-48 0 -72 26 -72 78zM331.999 697.999c0 23.333 7.33301 42.167 22 56.5
s32 21.5 52 21.5c48 0 72 -26 72 -78c0 -24 -7.16699 -43 -21.5 -57s-31.833 -21 -52.5 -21c-48 0 -72 26 -72 78z" />
    <glyph glyph-name="aogonek" unicode="&#x105;" horiz-adv-x="570" 
d="M570 7l-13.0029 -7.5c-5.33301 -3 -14.666 -9.16699 -27.999 -18.5s-25.166 -18.5 -35.499 -27.5s-19.833 -19.333 -28.5 -31s-13 -22.5 -13 -32.5c0 -11.333 3.5 -20.166 10.5 -26.499s16.167 -9.5 27.5 -9.5l43 6l17 -70c-32 -16.667 -66.333 -25 -103 -25
c-31.333 0 -57.5 8.5 -78.5 25.5s-31.5 41.833 -31.5 74.5c0 33.333 12.333 62.333 37 87s47 41.334 67 50.001l-69 -2l-18 65l-24 -20.5c-10 -8.33301 -29.167 -19.5 -57.5 -33.5s-55.166 -21 -80.499 -21c-48.667 0 -86.667 13.667 -114 41s-41 66 -41 116
c0 110 80 165 240 165h70v55c0 50 -25.667 75 -77 75c-15.333 0 -30.333 -1.33301 -45 -4s-25.667 -5.33398 -33 -8.00098l-10 -3l-15 -65h-90l-7 148c80.667 26.667 153 40 217 40c76 0 129.667 -14.833 161 -44.5s47 -80.834 47 -153.501v-247l75 -18v-80zM180.997 162
c0 -40 19.667 -60 59 -60c16 0 32.833 4.83301 50.5 14.5s31.5 19.5 41.5 29.5l15 14v67h-57c-38.667 0 -66.5 -5.16699 -83.5 -15.5s-25.5 -26.833 -25.5 -49.5z" />
    <glyph glyph-name="eogonek" unicode="&#x119;" horiz-adv-x="530" 
d="M342 -107c0 -12 3.50098 -21.5 10.501 -28.5s16.167 -10.5 27.5 -10.5l42 6l17 -70c-31.333 -16.667 -65.333 -25 -102 -25c-32 0 -58.333 8.5 -79 25.5s-31 41.167 -31 72.5c0 43.333 26.667 86.333 80 129c-12 -1.33301 -21 -2 -27 -2
c-84.667 0 -149.167 23.5 -193.5 70.5s-66.5 113.5 -66.5 199.5c0 88.667 23.667 159.167 71 211.5s112.666 78.5 195.999 78.5c73.333 0 129.666 -21 168.999 -63s59 -99.333 59 -172l-6 -75l-332 -3c2.66699 -41.333 14.834 -73.333 36.501 -96s49.5 -34 83.5 -34
c24 0 46.667 2.83301 68 8.5s42 13.167 62 22.5s32.667 14.666 38 15.999l43 -80c-18 -12.667 -37.5 -27.5 -58.5 -44.5s-44.167 -39.667 -69.5 -68s-38 -51.166 -38 -68.499zM277.001 433c-27.333 0 -49.5 -9.33301 -66.5 -28s-27.5 -43.667 -31.5 -75h180
c0 68.667 -27.333 103 -82 103z" />
    <glyph glyph-name="Itilde" unicode="&#x128;" horiz-adv-x="375" 
d="M25 777l-48.002 38.999c1.33301 2.66699 3 6.5 5 11.5s7 13.833 15 26.5s16.333 23.834 25 33.501s20.334 18.5 35.001 26.5s29.667 12 45 12c24 0 54.167 -7.66699 90.5 -23s64.166 -23 83.499 -23c11.333 0 22.833 3.5 34.5 10.5s20.167 14.167 25.5 21.5l9 10l55 -42
c-1.33301 -2.66699 -3.33301 -6.33398 -6 -11.001s-8.5 -13 -17.5 -25s-18.333 -22.667 -28 -32s-22.167 -17.666 -37.5 -24.999s-30.666 -11 -45.999 -11c-24 0 -53.167 6.5 -87.5 19.5s-61.166 19.5 -80.499 19.5c-12.667 0 -25 -3.16699 -37 -9.5
s-20.667 -12.833 -26 -19.5zM339.998 86.999v-87h-305v87l75 25v475l-75 30v83l305 5v-88l-75 -30v-475z" />
    <glyph glyph-name="itilde" unicode="&#x129;" horiz-adv-x="358" 
d="M15 630l-47.001 45.999c1.33301 2.66699 3 6.5 5 11.5s6.83301 13.833 14.5 26.5s16 23.834 25 33.501s20.5 18.5 34.5 26.5s28.333 12 43 12c22.667 0 49.834 -7.66699 81.501 -23s55.167 -23 70.5 -23c10.667 0 21.5 3.5 32.5 10.5s19.5 14.167 25.5 21.5l8 10l53 -46
c-1.33301 -2.66699 -3 -6.5 -5 -11.5s-7 -13.833 -15 -26.5s-16.333 -23.667 -25 -33s-20 -18 -34 -26s-28.333 -12 -43 -12c-20.667 0 -47 7.33301 -79 22s-57 22 -75 22c-11.333 0 -22.833 -3.5 -34.5 -10.5s-20.5 -13.833 -26.5 -20.5zM34.999 531.999l227 8v-435l70 -25
v-80h-297v80l80 25v327l-80 20v80z" />
    <glyph glyph-name="dotlessi" unicode="&#x131;" horiz-adv-x="358" 
d="M35 532l227 8v-435l70 -25v-80h-297v80l80 25v327l-80 20v80z" />
    <glyph glyph-name="ldot" unicode="&#x140;" horiz-adv-x="657" 
d="M25 767l231 8v-670l95 -25v-80h-326v80l80 25v562l-80 20v80zM402 350c0 29.333 8.33203 52.332 24.999 68.999s38.334 25 65.001 25c57.333 0 86 -31.333 86 -94c0 -29.333 -8.16699 -52.166 -24.5 -68.499s-37.833 -24.5 -64.5 -24.5c-58 0 -87 31 -87 93z" />
    <glyph glyph-name="Lslash" unicode="&#x141;" horiz-adv-x="585" 
d="M302 587v-149l137 61l32 -107l-169 -75v-200h153l22 113h95v-230h-500v87l75 25v142l-77 -34l-32 107l109 48v212l-75 30v83l305 5v-88z" />
    <glyph glyph-name="lslash" unicode="&#x142;" horiz-adv-x="431" 
d="M67 767l231 8v-307l100 44l23 -111l-123 -54v-242l95 -25v-80h-326v80l80 25v181l-91 -40l-31 106l122 54v261l-80 20v80z" />
    <glyph glyph-name="OE" unicode="&#x152;" horiz-adv-x="956" 
d="M614 310l0.00195312 -193.001h177l23 83h92v-200h-360c-15.333 0 -44.333 -1.66699 -87 -5s-75 -5 -97 -5c-100.667 0 -177.5 30.333 -230.5 91s-79.5 149.334 -79.5 266.001c0 114.667 29.667 204.667 89 270s139.666 98 240.999 98c20 0 50.167 -1.66699 90.5 -5
s69.166 -5 86.499 -5h335v-193h-93l-25 75h-162v-167h202v-110h-202zM459.002 116.999v470c-18.667 2.66699 -42.334 4 -71.001 4c-57.333 0 -99.666 -17.5 -126.999 -52.5s-41 -97.167 -41 -186.5c0 -82 12.167 -142.5 36.5 -181.5s62.166 -58.5 113.499 -58.5
c13.333 0 30.833 0.833008 52.5 2.5s33.834 2.5 36.501 2.5z" />
    <glyph glyph-name="oe" unicode="&#x153;" horiz-adv-x="930" 
d="M305 550c79.333 0 141.329 -28.667 185.996 -86c44.667 57.333 106 86 184 86c72 0 127.5 -21 166.5 -63s58.5 -99.333 58.5 -172l-6 -75l-332 -3c2.66699 -41.333 14.834 -73.333 36.501 -96s49.5 -34 83.5 -34c24 0 46.667 2.83301 68 8.5s42 13.167 62 22.5
s32.667 14.666 38 15.999l43 -80c-7.33301 -6 -17.666 -13.667 -30.999 -23s-39.666 -21.833 -78.999 -37.5s-77.666 -23.5 -114.999 -23.5c-83.333 0 -146 29 -188 87c-48 -58 -111.333 -87 -190 -87c-168.667 0 -253 91.667 -253 275c0 88.667 24.333 158.334 73 209.001
s113.667 76 195 76zM301.996 435c-37.333 0 -65 -12.333 -83 -37s-27 -67.334 -27 -128.001c0 -57.333 8.5 -99.166 25.5 -125.499s43.5 -39.5 79.5 -39.5c37.333 0 65 13.167 83 39.5s27 69.833 27 130.5c0 106.667 -35 160 -105 160zM661.996 433
c-27.333 0 -49.5 -9.33301 -66.5 -28s-27.5 -43.667 -31.5 -75h180c0 68.667 -27.333 103 -82 103z" />
    <glyph glyph-name="Scaron" unicode="&#x160;" horiz-adv-x="605" 
d="M297 851l139 106l50 -60l-143 -147h-90l-153 147l56 60zM162 217l14.9971 -83.9941c26.667 -14 59.334 -21 98.001 -21c34 0 62.667 7.16699 86 21.5s35 34.166 35 59.499c0 18 -8.33301 33.667 -25 47s-37.5 23.666 -62.5 30.999s-52.167 17.166 -81.5 29.499
s-56.5 25.666 -81.5 39.999s-45.833 35.666 -62.5 63.999s-25 61.833 -25 100.5c0 67.333 23.5 119.5 70.5 156.5s108.167 55.5 183.5 55.5c33.333 0 68.333 -3.33301 105 -10s65 -13.334 85 -20.001l30 -10l-5 -182h-92l-25 85c-30 10 -59.333 15 -88 15
c-34 0 -60.167 -6.66699 -78.5 -20s-27.5 -30.333 -27.5 -51c0 -18 8.33301 -33.667 25 -47s37.5 -23.833 62.5 -31.5s52 -17.5 81 -29.5s56 -25 81 -39s45.833 -34.667 62.5 -62s25 -59.333 25 -96c0 -72.667 -25.167 -129.5 -75.5 -170.5s-115.166 -61.5 -194.499 -61.5
c-33.333 0 -68.666 3.16699 -105.999 9.5s-66.333 12.833 -87 19.5l-30 9v192h102z" />
    <glyph glyph-name="scaron" unicode="&#x161;" horiz-adv-x="491" 
d="M133 175l8 -70.001c22 -6.66699 49.333 -10 82 -10c52.667 0 79 18 79 54c0 15.333 -9 28.5 -27 39.5s-40 20.5 -66 28.5s-52 17.5 -78 28.5s-48 27.833 -66 50.5s-27 50.334 -27 83.001c0 58.667 19.667 101.834 59 129.501s88.333 41.5 147 41.5
c26.667 0 55.5 -2.5 86.5 -7.5s55.5 -9.83301 73.5 -14.5l26 -8c-1.33301 -33.333 -2.66602 -83.333 -3.99902 -150h-88l-15 65c-17.333 6.66699 -39.333 10 -66 10c-20.667 0 -37 -4.5 -49 -13.5s-18 -21.5 -18 -37.5c0 -15.333 9.16699 -28.333 27.5 -39
s40.333 -20 66 -28s51.5 -17.167 77.5 -27.5s48.167 -26.5 66.5 -48.5s27.5 -49 27.5 -81c0 -56.667 -20.833 -100.834 -62.5 -132.501s-97.5 -47.5 -167.5 -47.5c-28 0 -57.333 1.83301 -88 5.5s-54.334 7.16699 -71.001 10.5l-25 6v163h92zM240 723.999l139 106l50 -60
l-143 -147h-89l-153 147l55 60z" />
    <glyph glyph-name="Ydieresis" unicode="&#x178;" horiz-adv-x="667" 
d="M485 87v-87h-305v87l75 25v132l-183 346l-65 27v83l283 5v-88l-51 -21l100 -217l106 216l-55 22v83l270 5v-88l-69 -27l-181 -345v-133zM148 848c0 23.333 7.16797 42.168 21.501 56.501s31.833 21.5 52.5 21.5c23.333 0 41.166 -6.83301 53.499 -20.5
s18.5 -32.834 18.5 -57.501c0 -24 -7.16699 -43 -21.5 -57s-31.833 -21 -52.5 -21c-48 0 -72 26 -72 78zM366.001 848.002c0 23.333 7.33301 42.167 22 56.5s32 21.5 52 21.5c48 0 72 -26 72 -78c0 -24 -7.16699 -43 -21.5 -57s-31.833 -21 -52.5 -21c-48 0 -72 26 -72 78z
" />
    <glyph glyph-name="Zcaron" unicode="&#x17d;" horiz-adv-x="615" 
d="M309 851l139 106l50 -60l-143 -147h-90l-153 147l56 60zM582 0h-552v102l355 485h-210l-25 -90h-95v208h530v-113l-348 -475h228l22 103h95v-220z" />
    <glyph glyph-name="zcaron" unicode="&#x17e;" horiz-adv-x="517" 
d="M62 540h420v-93l-257 -342h153l19 90h88v-195h-435v92l261 343h-144l-17 -78h-88v183zM251 724l139 106l50 -60l-143 -147h-89l-153 147l55 60z" />
    <glyph glyph-name="florin" unicode="&#x192;" horiz-adv-x="440" 
d="M118 465l8 86c6.66699 75.333 27.5 132.333 62.5 171s87.5 58 157.5 58l94 -6l-10 -104h-65c-31.333 0 -53 -7.33301 -65 -22s-19.667 -39.334 -23 -74.001l-10 -109h131l-3 -100h-136l-32 -336c-7.33301 -75.333 -28.333 -132.333 -63 -171s-87 -58 -157 -58l-74 6
l13 104h42c31.333 0 53 7.33301 65 22s19.667 39.334 23 74.001l33 359h-82l1 85z" />
    <glyph glyph-name="circumflex" unicode="&#x2c6;" horiz-adv-x="544" 
d="M275 733l-157 -98l-48 66l153 131l89 8l162 -139l-48 -66z" />
    <glyph glyph-name="caron" unicode="&#x2c7;" horiz-adv-x="515" 
d="M261 724l139 106l50 -60l-143 -147h-89l-153 147l55 60z" />
    <glyph glyph-name="breve" unicode="&#x2d8;" horiz-adv-x="440" 
d="M56 765l86.999 8.99805c0 -2 0.5 -4.66699 1.5 -8s3.33301 -9.33301 7 -18s8 -16.167 13 -22.5s12.5 -12.166 22.5 -17.499s21 -8 33 -8c20.667 0 37.334 5.33301 50.001 16s20 21.334 22 32.001l4 17l87 7c0 -55.333 -16.5 -98.5 -49.5 -129.5
s-74.167 -46.5 -123.5 -46.5c-44 0 -80.667 15.167 -110 45.5s-44 71.5 -44 123.5z" />
    <glyph glyph-name="dotaccent" unicode="&#x2d9;" horiz-adv-x="297" 
d="M75 700c0 24.667 7 44.167 21 58.5s31.333 21.5 52 21.5c22.667 0 40.667 -7 54 -21s20 -33.667 20 -59c0 -24 -7.16699 -43.167 -21.5 -57.5s-31.833 -21.5 -52.5 -21.5c-22.667 0 -40.5 7 -53.5 21s-19.5 33.333 -19.5 58z" />
    <glyph glyph-name="ring" unicode="&#x2da;" horiz-adv-x="411" 
d="M72 704c0 40 13.5 72.167 40.5 96.5s58.167 36.5 93.5 36.5s66.333 -11.333 93 -34s40 -53.667 40 -93s-13.5 -71.333 -40.5 -96s-57.833 -37 -92.5 -37c-36 0 -67.333 11.333 -94 34s-40 53.667 -40 93zM157 707c0 -38 16.333 -57 49 -57c14 0 25.5 5 34.5 15
s13.5 24.333 13.5 43c0 38 -16 57 -48 57c-14.667 0 -26.5 -5 -35.5 -15s-13.5 -24.333 -13.5 -43z" />
    <glyph glyph-name="ogonek" unicode="&#x2db;" horiz-adv-x="310" 
d="M170 -110c0 -24 12.3311 -35.998 36.998 -35.998l43 6l17 -70c-31.333 -16.667 -65.333 -25 -102 -25c-32 0 -58.333 8.5 -79 25.5s-31 41.833 -31 74.5c0 16.667 3.83301 33 11.5 49s16.834 29.167 27.501 39.5s21.334 19.666 32.001 27.999s20 14.5 28 18.5l11 5h120
l-12.5 -7.5c-5 -3 -14.167 -9 -27.5 -18s-25 -17.833 -35 -26.5s-19.167 -18.834 -27.5 -30.501s-12.5 -22.5 -12.5 -32.5z" />
    <glyph glyph-name="tilde" unicode="&#x2dc;" horiz-adv-x="568" 
d="M127 630l-47.0029 45.999c1.33301 2.66699 3 6.5 5 11.5s7 13.833 15 26.5s16.333 23.834 25 33.501s20.334 18.5 35.001 26.5s29.667 12 45 12c24 0 52.833 -7.66699 86.5 -23s60.167 -23 79.5 -23c11.333 0 22.833 3.5 34.5 10.5s20.5 14.167 26.5 21.5l8 10l53 -46
l-5.5 -11.5c-2.33301 -5 -7.33301 -13.833 -15 -26.5s-16 -23.667 -25 -33s-20.667 -18 -35 -26s-29.166 -12 -44.499 -12c-24 0 -53.167 7.33301 -87.5 22s-61.166 22 -80.499 22c-12.667 0 -25 -3.5 -37 -10.5s-21 -13.833 -27 -20.5z" />
    <glyph glyph-name="hungarumlaut" unicode="&#x2dd;" horiz-adv-x="623" 
d="M563 795l-195 -169l-63 62l177 190zM338 795l-195 -169l-63 62l177 190z" />
    <glyph glyph-name="Delta" unicode="&#x394;" horiz-adv-x="679" 
d="M17 100l259 623h133l252 -623v-100h-644v100zM331 560l-179 -448h358z" />
    <glyph glyph-name="Delta" unicode="&#x2206;" horiz-adv-x="679" 
d="M17 100l259 623h133l252 -623v-100h-644v100zM331 560l-179 -448h358z" />
    <glyph glyph-name="pi" unicode="&#x3c0;" horiz-adv-x="690" 
d="M672 117l35.001 -70c-5.33301 -4 -13 -9.16699 -23 -15.5s-29 -14.833 -57 -25.5s-55 -16 -81 -16c-40.667 0 -74 14.667 -100 44s-39 74.666 -39 135.999v257h-160v-427h-147v430l-78 22v78l213 10h400v-88l-81 -20v-268c0 -42 16.667 -63 50 -63
c8.66699 0 18.667 1.33301 30 4s20.666 5.33398 27.999 8.00098z" />
    <glyph glyph-name="endash" unicode="&#x2013;" horiz-adv-x="500" 
d="M0 267v118h500v-118h-500z" />
    <glyph glyph-name="emdash" unicode="&#x2014;" horiz-adv-x="970" 
d="M0 267v118h970v-118h-970z" />
    <glyph glyph-name="quoteleft" unicode="&#x2018;" horiz-adv-x="311" 
d="M232 523c0 -26.667 -8.16797 -48.1689 -24.501 -64.502s-36.833 -24.5 -61.5 -24.5c-25.333 0 -45.666 8 -60.999 24s-23 39 -23 69c0 74.667 46 161.334 138 260.001l63 -51c-40 -53.333 -60 -93.666 -60 -120.999c0 -7.33301 4.83301 -20 14.5 -38s14.5 -36 14.5 -54z
" />
    <glyph glyph-name="quoteright" unicode="&#x2019;" horiz-adv-x="311" 
d="M47 486c40 53.333 60.001 93.333 60.001 120c0 8 -4.83301 21 -14.5 39s-14.5 35.667 -14.5 53c0 26.667 8.16699 48.167 24.5 64.5s37.166 24.5 62.499 24.5s45.5 -8 60.5 -24s22.5 -38.667 22.5 -68c0 -74.667 -45.667 -161.667 -137 -261z" />
    <glyph glyph-name="quotesinglbase" unicode="&#x201a;" horiz-adv-x="311" 
d="M47 -158c40 53.333 60.001 93.333 60.001 120c0 8 -4.83301 21 -14.5 39s-14.5 35.667 -14.5 53c0 26.667 8.16699 48.167 24.5 64.5s37.166 24.5 62.499 24.5s45.5 -8 60.5 -24s22.5 -38.667 22.5 -68c0 -74.667 -45.667 -161.667 -137 -261z" />
    <glyph glyph-name="quotedblleft" unicode="&#x201c;" horiz-adv-x="543" 
d="M465 523c0 -26.667 -8.16797 -48.168 -24.501 -64.501s-37.166 -24.5 -62.499 -24.5s-45.5 8 -60.5 24s-22.5 39 -22.5 69c0 74 45.667 160.667 137 260l64 -51c-40 -53.333 -60 -93.666 -60 -120.999c0 -7.33301 4.83301 -20 14.5 -38s14.5 -36 14.5 -54z
M231.999 522.999c0 -26.667 -8.16797 -48.1689 -24.501 -64.502s-36.833 -24.5 -61.5 -24.5c-25.333 0 -45.666 8 -60.999 24s-23 39 -23 69c0 74.667 46 161.334 138 260.001l63 -51c-40 -53.333 -60 -93.666 -60 -120.999c0 -7.33301 4.83301 -20 14.5 -38
s14.5 -36 14.5 -54z" />
    <glyph glyph-name="quotedblright" unicode="&#x201d;" horiz-adv-x="543" 
d="M47 486c40 53.333 60.001 93.333 60.001 120c0 8 -4.83301 21 -14.5 39s-14.5 35.667 -14.5 53c0 26.667 8.16699 48.167 24.5 64.5s37.166 24.5 62.499 24.5s45.5 -8 60.5 -24s22.5 -38.667 22.5 -68c0 -74.667 -45.667 -161.667 -137 -261zM280.001 486
c40 53.333 60.001 93.333 60.001 120c0 8 -4.83301 21 -14.5 39s-14.5 35.667 -14.5 53c0 26.667 8.16699 48.167 24.5 64.5s36.833 24.5 61.5 24.5c25.333 0 45.666 -8 60.999 -24s23 -38.667 23 -68c0 -75.333 -46 -162.333 -138 -261z" />
    <glyph glyph-name="quotedblbase" unicode="&#x201e;" horiz-adv-x="543" 
d="M47 -158c40 53.333 60.001 93.333 60.001 120c0 8 -4.83301 21 -14.5 39s-14.5 35.667 -14.5 53c0 26.667 8.16699 48.167 24.5 64.5s37.166 24.5 62.499 24.5s45.5 -8 60.5 -24s22.5 -38.667 22.5 -68c0 -74.667 -45.667 -161.667 -137 -261zM280.001 -158
c40 53.333 60.001 93.333 60.001 120c0 8 -4.83301 21 -14.5 39s-14.5 35.667 -14.5 53c0 26.667 8.16699 48.167 24.5 64.5s36.833 24.5 61.5 24.5c25.333 0 45.666 -8 60.999 -24s23 -38.667 23 -68c0 -75.333 -46 -162.333 -138 -261z" />
    <glyph glyph-name="dagger" unicode="&#x2020;" horiz-adv-x="515" 
d="M35 515v95h165l-5 142l125 8l-7 -150h167v-95l-223 -34zM195 51l-16 392l78 -17l79 17l-16 -392l-63 -51z" />
    <glyph glyph-name="daggerdbl" unicode="&#x2021;" horiz-adv-x="515" 
d="M35 515v95h165l-5 142l125 8l-7 -150h167v-95l-223 -34zM195 51l-9 235l71 -16l72 16l-9 -235l-63 -51zM81 361v99l176 -29l176 29v-99l-176 -42z" />
    <glyph glyph-name="bullet" unicode="&#x2022;" horiz-adv-x="543" 
d="M80 315c0 52 18.5 96.5 55.5 133.5s81.5 55.5 133.5 55.5s96.5 -18.5 133.5 -55.5s55.5 -81.5 55.5 -133.5s-18.5 -96.5 -55.5 -133.5s-81.5 -55.5 -133.5 -55.5s-96.5 18.5 -133.5 55.5s-55.5 81.5 -55.5 133.5z" />
    <glyph glyph-name="ellipsis" unicode="&#x2026;" horiz-adv-x="780" 
d="M52 78c0 27.333 8.49902 49.167 25.499 65.5s37.5 24.5 61.5 24.5c55.333 0 83 -30 83 -90c0 -28 -8.33301 -50.167 -25 -66.5s-37 -24.5 -61 -24.5c-27.333 0 -48.166 7.83301 -62.499 23.5s-21.5 38.167 -21.5 67.5zM304.999 78.001c0 27.333 8.5 49.168 25.5 65.501
s37.167 24.5 60.5 24.5c27.333 0 48.166 -7.83301 62.499 -23.5s21.5 -37.834 21.5 -66.501c0 -28 -8.33301 -50.167 -25 -66.5s-37 -24.5 -61 -24.5c-27.333 0 -48.166 7.83301 -62.499 23.5s-21.5 38.167 -21.5 67.5zM556.999 78.0029
c0 27.333 8.49902 49.167 25.499 65.5s37.5 24.5 61.5 24.5c55.333 0 83 -30 83 -90c0 -28 -8.33301 -50.167 -25 -66.5s-37 -24.5 -61 -24.5c-27.333 0 -48.166 7.83301 -62.499 23.5s-21.5 38.167 -21.5 67.5z" />
    <glyph glyph-name="perthousand" unicode="&#x2030;" horiz-adv-x="1313" 
d="M909 165c0 58 16.999 103.834 50.999 137.501s77 50.5 129 50.5c50.667 0 91.5 -15.333 122.5 -46s46.5 -74.334 46.5 -131.001c0 -57.333 -17 -103.333 -51 -138s-77.333 -52 -130 -52c-51.333 0 -92.166 14.833 -122.499 44.5s-45.5 74.5 -45.5 134.5zM1024 169.001
c0 -64 19.333 -96 58 -96c40.667 0 61 33 61 99c0 63.333 -19.667 95 -59 95c-40 0 -60 -32.667 -60 -98zM178.999 -7.99902l418 720h145l-418 -720h-145zM54.999 529.001c0 58 16.999 103.834 50.999 137.501s77 50.5 129 50.5c50.667 0 91.5 -15.333 122.5 -46
s46.5 -74.334 46.5 -131.001c0 -57.333 -17 -103.333 -51 -138s-77.333 -52 -130 -52c-51.333 0 -92.166 14.833 -122.499 44.5s-45.5 74.5 -45.5 134.5zM169.998 533.002c0 -64 19.333 -96 58 -96c40.667 0 61 33 61 99c0 63.333 -19.667 95 -59 95
c-40 0 -60 -32.667 -60 -98zM518.998 165.002c0 58 16.999 103.834 50.999 137.501s77 50.5 129 50.5c50.667 0 91.5 -15.333 122.5 -46s46.5 -74.334 46.5 -131.001c0 -57.333 -17 -103.333 -51 -138s-77.333 -52 -130 -52c-51.333 0 -92.166 14.833 -122.499 44.5
s-45.5 74.5 -45.5 134.5zM633.997 169.003c0 -64 19.333 -96 58 -96c40.667 0 61 33 61 99c0 63.333 -19.667 95 -59 95c-40 0 -60 -32.667 -60 -98z" />
    <glyph glyph-name="guilsinglleft" unicode="&#x2039;" horiz-adv-x="339" 
d="M176 265l113 -160l-83 -56l-156 177v77l156 177l83 -55z" />
    <glyph glyph-name="guilsinglright" unicode="&#x203a;" horiz-adv-x="339" 
d="M55 105l113 160l-113 160l83 55l156 -177v-77l-156 -177z" />
    <glyph glyph-name="fraction" unicode="&#x2044;" horiz-adv-x="614" 
d="M85 -74l-100 67l539 779l100 -67z" />
    <glyph glyph-name="Euro" unicode="&#x20ac;" horiz-adv-x="637" 
d="M473 580c-25.333 10 -56.333 15.001 -93 15.001c-20.667 0 -38.834 -4.5 -54.501 -13.5s-27.5 -19.833 -35.5 -32.5s-14.667 -25.5 -20 -38.5s-8.66602 -23.833 -9.99902 -32.5l-2 -14h199v-90h-430v90h72c6 33.333 15.5 64.166 28.5 92.499s30.5 55 52.5 80
s50.5 44.667 85.5 59s74.833 21.5 119.5 21.5c31.333 0 63.833 -3.5 97.5 -10.5s59.5 -13.833 77.5 -20.5l27 -11l-5 -165h-93zM27 221.001l-0.000976562 90.001h430v-90h-192c20 -70 62.333 -105 127 -105c25.333 0 51.333 4.66699 78 14s47 18.666 61 27.999l21 15l55 -88
l-11 -10.5c-4.66699 -4.33301 -15 -12 -31 -23s-32.667 -20.833 -50 -29.5s-39.166 -16.5 -65.499 -23.5s-52.833 -10.5 -79.5 -10.5c-46 0 -86.333 7.66699 -121 23s-61.667 35.833 -81 61.5s-33.833 50.167 -43.5 73.5s-17.167 48.333 -22.5 75h-75z" />
    <glyph glyph-name="product" unicode="&#x220f;" horiz-adv-x="735" 
d="M252 -235h-142v830l-78 22v78l218 10h452v-88l-80 -22v-830h-142v827h-228v-827z" />
    <glyph glyph-name="summation" unicode="&#x2211;" horiz-adv-x="614" 
d="M32 -235v103l264 370l-269 365v102h532v-193h-93l-25 80h-242l255 -340l-267 -374h268l16 85h98v-198h-537z" />
    <glyph glyph-name="minus" unicode="&#x2212;" horiz-adv-x="580" 
d="M50 230v117h480v-117h-480z" />
    <glyph glyph-name="radical" unicode="&#x221a;" horiz-adv-x="697" 
d="M68 426l-58 16v83l182 5l118 -382l180 622l217 5v-84l-108 -18l-217 -673h-163z" />
    <glyph glyph-name="integral" unicode="&#x222b;" horiz-adv-x="437" 
d="M104 -247c-10.667 0 -23.665 1.5 -38.998 4.5s-28 5.83301 -38 8.5l-15 4l9 97c20 -3.33301 38.333 -5 55 -5c26 0 44.167 9.33301 54.5 28s15.5 48 15.5 88c0 44.667 -2 120.334 -6 227.001s-6 193 -6 259c0 41.333 2.83301 77.166 8.5 107.499s15.167 58 28.5 83
s32.666 43.833 57.999 56.5s56.333 19 93 19c12 0 25.667 -1.5 41 -4.5s27.666 -6.16699 36.999 -9.5l15 -4c-5.33301 -44 -9 -77 -11 -99c-16.667 4.66699 -35 7 -55 7c-26 0 -44.167 -9.16699 -54.5 -27.5s-15.5 -47.5 -15.5 -87.5c0 -45.333 2 -121.333 6 -228
s6 -193 6 -259c0 -88.667 -13.167 -155 -39.5 -199s-75.5 -66 -147.5 -66z" />
    <glyph glyph-name="approxequal" unicode="&#x2248;" horiz-adv-x="640" 
d="M118 286l-63.002 44.001c1.33301 3.33301 3.5 7.66602 6.5 12.999s9.5 14.833 19.5 28.5s20.667 25.667 32 36s26.333 19.833 45 28.5s38 13 58 13c29.333 0 65.5 -11.333 108.5 -34s75.833 -34 98.5 -34c16.667 0 33.167 4.5 49.5 13.5s28.166 18.167 35.499 27.5l12 14
l65 -44c-1.33301 -3.33301 -3.5 -7.66602 -6.5 -12.999s-9.66699 -15 -20 -29s-21.166 -26.333 -32.499 -37s-26 -20.334 -44 -29.001s-36.333 -13 -55 -13c-28.667 0 -66.167 11.333 -112.5 34s-81.166 34 -104.499 34c-16 0 -31.667 -4.5 -47 -13.5
s-26.666 -17.833 -33.999 -26.5zM117.998 91.001l-63.002 44.002c1.33301 3.33301 3.5 7.66602 6.5 12.999s9.5 14.833 19.5 28.5s20.667 25.667 32 36s26.333 19.833 45 28.5s38 13 58 13c29.333 0 65.5 -11.333 108.5 -34s75.833 -34 98.5 -34
c16.667 0 33.167 4.66699 49.5 14s28.166 18.666 35.499 27.999l12 13l65 -44c-1.33301 -3.33301 -3.5 -7.66602 -6.5 -12.999s-9.66699 -15 -20 -29s-21.166 -26.333 -32.499 -37s-26 -20.334 -44 -29.001s-36.333 -13 -55 -13c-28.667 0 -66.167 11.333 -112.5 34
s-81.166 34 -104.499 34c-16 0 -31.667 -4.33301 -47 -13s-26.666 -17.667 -33.999 -27z" />
    <glyph glyph-name="notequal" unicode="&#x2260;" horiz-adv-x="640" 
d="M62 327v115h266l53 110h132l-53 -110h117v-115h-172l-47 -98h219v-115h-273l-55 -114h-132l55 114h-110v115h164l47 98h-211z" />
    <glyph glyph-name="lessequal" unicode="&#x2264;" horiz-adv-x="582" 
d="M45 -25v119h492v-119h-492zM192 364l345 -107v-122l-492 170v120l492 165v-123z" />
    <glyph glyph-name="greaterequal" unicode="&#x2265;" horiz-adv-x="582" 
d="M537 94v-119h-492v119h492zM45 257l345 107l-345 103v123l492 -165v-120l-492 -170v122z" />
    <glyph glyph-name="lozenge" unicode="&#x25ca;" horiz-adv-x="560" 
d="M215 -45l-199 411l196 409h130l198 -410l-195 -410h-130zM275 631l-117 -257l125 -274l116 257z" />
    <glyph glyph-name="fi" unicode="&#xfb01;" horiz-adv-x="757" 
d="M142 530l0.000976562 41.999c0 70.667 20.167 124.167 60.5 160.5s106.833 54.5 199.5 54.5c39.333 0 79 -3.16699 119 -9.5s70.333 -12.5 91 -18.5l30 -9l-2 -141h-108l-13 63c-38.667 5.33301 -74.334 8 -107.001 8c-44.667 0 -76.167 -7.66699 -94.5 -23
s-27.5 -37.666 -27.5 -66.999v-60l372 10v-435l70 -25v-80h-287v80l70 25v327h-225v-327l73 -25v-80h-301v80l80 25v327h-90v83z" />
    <glyph glyph-name="fl" unicode="&#xfb02;" horiz-adv-x="788" 
d="M142 530l-0.000976562 47c0 140 84.333 210 253 210c40.667 0 83.334 -2.16699 128.001 -6.5s79 -8.5 103 -12.5l37 -6v-657l82 -25v-80h-300v80l68 25v566c-38 6 -73.333 9 -106 9c-78 0 -117 -28.333 -117 -85v-65h130l-3 -100h-127v-325l73 -25v-80h-301v80l80 25v325
h-90v85z" />
    <glyph glyph-name=".null" horiz-adv-x="0" 
 />
    <glyph glyph-name="nonmarkingreturn" horiz-adv-x="333" 
 />
    <glyph glyph-name="grave.x" horiz-adv-x="320" 
d="M266 598l-242 147l68 104l223 -178z" />
    <glyph glyph-name="acute.x" horiz-adv-x="320" 
d="M305 745l-242 -147l-49 73l223 178z" />
    <glyph glyph-name="circumflex.x" horiz-adv-x="562" 
d="M283 733l-168 -120l-48 66l164 153l89 8l175 -161l-48 -66z" />
    <glyph glyph-name="foundry" horiz-adv-x="756" 
d="M147 161l86 -0.000976562v209c0 9.33301 9 14 27 14c33.333 0 50 -21.667 50 -65v-158h86v207c0 24.667 -8.5 44.834 -25.5 60.501s-38.5 23.5 -64.5 23.5l-56 -33c-6 -2 -9.66699 -3 -11 -3c-4 0 -6 3 -6 9v136h-86v-400zM562 153.999l73 43v29
c-12 -3.33301 -22.333 -5 -31 -5c-30.667 0 -46 22.333 -46 67v104c0 7.33301 3.66699 11 11 11h67v42h-67c-7.33301 0 -11 4 -11 12v32h-25l-103 -65v-21h29c8.66699 0 13 -3.66699 13 -11v-153c0 -24 8.5 -44.167 25.5 -60.5s38.5 -24.5 64.5 -24.5zM40 91.999v491
c0 62 30.667 93 92 93h491c62 0 93 -31 93 -93v-491c0 -61.333 -31 -92 -93 -92h-491c-61.333 0 -92 30.667 -92 92z" />
    </font>
</defs>
</svg>
