<?xml version="1.0" standalone="no"?>
<!DOCTYPE svg PUBLIC "-//W3C//DTD SVG 1.1//EN" "http://www.w3.org/Graphics/SVG/1.1/DTD/svg11.dtd" >
<svg>
<metadata>
Created by FontForge 20090914 at Mon Jun 18 04:51:54 2012
 By www-data
Copyright (c) 2011, Sol Matas (www.huertatipografica.com.ar), with Reserved Font Name "Bitter"
</metadata>
<defs>
<font id="Bitter-Regular" horiz-adv-x="565" >
  <font-face 
    font-family="Bitter"
    font-weight="400"
    font-stretch="normal"
    units-per-em="1000"
    panose-1="2 0 0 0 0 0 0 0 0 0"
    ascent="800"
    descent="-200"
    x-height="530"
    cap-height="700"
    bbox="-60 -265 1125 935"
    underline-thickness="50"
    underline-position="-50"
    unicode-range="U+0020-U+FB02"
  />
<missing-glyph horiz-adv-x="230" 
 />
    <glyph glyph-name=".notdef" horiz-adv-x="230" 
 />
    <glyph glyph-name="space" unicode=" " horiz-adv-x="230" 
 />
    <glyph glyph-name="exclam" unicode="!" horiz-adv-x="320" 
d="M220 750l-15 -500l-85 -5l-15 505h115zM159 -10c-19.333 0 -34.833 6.16797 -46.5 18.501s-17.5 29.166 -17.5 50.499c0 22 6.16699 39.333 18.5 52s28.166 19 47.499 19s34.833 -6.16699 46.5 -18.5s17.5 -29.5 17.5 -51.5c0 -21.333 -6.16699 -38.333 -18.5 -51
s-28.166 -19 -47.499 -19z" />
    <glyph glyph-name="quotedbl" unicode="&#x22;" horiz-adv-x="388" 
d="M332 770l-20 -250h-75v250h95zM160 770l-20 -250h-75v250h95z" />
    <glyph glyph-name="numbersign" unicode="#" horiz-adv-x="690" 
d="M90 380v65h119l21 155h80l-21 -155h145l21 155h80l-21 -155h111v-65h-120l-19 -145h114v-65h-123l-22 -170h-80l22 170h-145l-22 -170h-80l22 170h-107v65h116l19 145h-110zM280 380l-19 -145h145l19 145h-145z" />
    <glyph glyph-name="dollar" unicode="$" horiz-adv-x="545" 
d="M315 -140l-74.999 -0.000976562v130c-14 0 -28.5 0.833008 -43.5 2.5s-29.333 3.83398 -43 6.50098s-26.167 5.5 -37.5 8.5s-20.666 5.83301 -27.999 8.5l-23 9v160h70l20 -92c24.667 -13.333 56 -20 94 -20c20 0 38.5 2 55.5 6s32 9.83301 45 17.5
s23.167 17.167 30.5 28.5s11 24.666 11 39.999c0 23.333 -8 41.666 -24 54.999s-35.833 25 -59.5 35s-49.334 19.5 -77.001 28.5s-53.334 20.5 -77.001 34.5s-43.5 32.167 -59.5 54.5s-24 51.5 -24 87.5c0 50.667 15.833 90.5 47.5 119.5s72.5 47.167 122.5 54.5v116h75
v-113c50 -4 96 -13.667 138 -29l22 -8l-5 -150h-60l-25 90c-30.667 13.333 -63.667 20 -99 20s-63.5 -8.33301 -84.5 -25s-31.5 -36.667 -31.5 -60s7.83301 -41.833 23.5 -55.5s35.5 -25.667 59.5 -36s49.667 -20.166 77 -29.499s53 -20.833 77 -34.5
s43.833 -31.167 59.5 -52.5s23.5 -48.666 23.5 -81.999c0 -52.667 -16.167 -95 -48.5 -127s-74.5 -52.667 -126.5 -62v-136z" />
    <glyph glyph-name="percent" unicode="%" horiz-adv-x="815" 
d="M155 0l405 700h90l-405 -700h-90zM201 360c-48 0 -86.001 14.001 -114.001 42.001s-42 70.333 -42 127c0 28 4 53.333 12 76s19.333 41.667 34 57s31.834 27.166 51.501 35.499s41.5 12.5 65.5 12.5c48 0 86.167 -14.5 114.5 -43.5s42.5 -71.833 42.5 -128.5
s-15.167 -100.5 -45.5 -131.5s-69.833 -46.5 -118.5 -46.5zM204.999 645.001c-56.667 0 -85 -36.667 -85 -110s28.333 -110 85 -110s85 36.667 85 110s-28.333 110 -85 110zM595.999 -9.99902c-48 0 -86.001 14.001 -114.001 42.001s-42 70.333 -42 127c0 28 4 53.333 12 76
s19.333 41.667 34 57s31.834 27.166 51.501 35.499s41.5 12.5 65.5 12.5c48 0 86.167 -14.5 114.5 -43.5s42.5 -71.833 42.5 -128.5s-15.167 -100.5 -45.5 -131.5s-69.833 -46.5 -118.5 -46.5zM599.998 275.002c-56.667 0 -85 -36.667 -85 -110s28.333 -110 85 -110
s85 36.667 85 110s-28.333 110 -85 110z" />
    <glyph glyph-name="ampersand" unicode="&#x26;" horiz-adv-x="670" 
d="M550 330l-0.000976562 -120c0 -70 -21.667 -124.167 -65 -162.5s-104.333 -57.5 -183 -57.5c-78 0 -136.167 18.167 -174.5 54.5s-57.5 86.5 -57.5 150.5c0 22.667 4.33301 43.5 13 62.5s19.334 36 32.001 51s26 27.833 40 38.5s26 19 36 25l14 8
c-11.333 2.66699 -23.833 7.83398 -37.5 15.501s-26.5 17.5 -38.5 29.5s-22 26.667 -30 44s-12 37.666 -12 60.999c0 60.667 20.333 105.834 61 135.501s98 44.5 172 44.5c12.667 0 26.5 -1 41.5 -3s30 -4.5 45 -7.5s29.167 -6.33301 42.5 -10s24.333 -6.83398 33 -9.50098
l28 -10l-5 -140h-64l-21 80c-27.333 10 -62.333 15 -105 15c-83.333 0 -125 -34.333 -125 -103c0 -16 3.33301 -30.833 10 -44.5s16 -25.5 28 -35.5s25.833 -17.833 41.5 -23.5s32.5 -8.5 50.5 -8.5h310v-60zM449.999 205l0.000976562 125.001h-135
c-18.667 0 -36.334 -3.33301 -53.001 -10s-31.5 -15.834 -44.5 -27.501s-23.333 -25.667 -31 -42s-11.5 -34.5 -11.5 -54.5c0 -40 12.333 -70.167 37 -90.5s58.667 -30.5 102 -30.5c44 0 77.667 11.167 101 33.5s35 54.5 35 96.5z" />
    <glyph glyph-name="quotesingle" unicode="'" horiz-adv-x="215" 
d="M160 770l-20 -250h-75v250h95z" />
    <glyph glyph-name="parenleft" unicode="(" horiz-adv-x="330" 
d="M240 770l90.001 -0.00195312c-48 -74 -86 -153.5 -114 -238.5s-42 -169.5 -42 -253.5c0 -40 3.5 -82.667 10.5 -128s17.167 -90.5 30.5 -135.5s29.666 -88.5 48.999 -130.5s41 -80 65 -114h-89c-29.333 40.667 -54.5 80.667 -75.5 120s-38.167 79.333 -51.5 120
s-23.166 82.834 -29.499 126.501s-9.5 90.167 -9.5 139.5c0 50 3.16699 95.833 9.5 137.5s16.166 81.834 29.499 120.501s30.5 77.167 51.5 115.5s46.167 78.5 75.5 120.5z" />
    <glyph glyph-name="parenright" unicode=")" horiz-adv-x="330" 
d="M-1 770l90.001 0.00390625c29.333 -42 54.5 -82.167 75.5 -120.5s38.167 -77 51.5 -116s23.166 -79.333 29.499 -121s9.5 -87.167 9.5 -136.5c0 -48.667 -3.16699 -94.834 -9.5 -138.501s-16.333 -85.834 -30 -126.501s-31 -80.834 -52 -120.501
s-45.833 -79.834 -74.5 -120.501h-89c24 34 45.5 72 64.5 114s35.333 85.5 49 130.5s24 90.167 31 135.5s10.5 88 10.5 128c0 84 -14 168.5 -42 253.5s-66 164.5 -114 238.5z" />
    <glyph glyph-name="asterisk" unicode="*" horiz-adv-x="403" 
d="M196 586l-26 23l-13 124l73 2l-7 -127l115 49l25 -70l-125 -29l84 -99l-58 -44l-69 113l9 34l34 -4l-29 19l14 31zM170 609l13 -32l-30 -17l35 2l7 -34l-65 -113l-60 42l83 103l-128 25l24 70z" />
    <glyph glyph-name="plus" unicode="+" horiz-adv-x="620" 
d="M50 225v80h218v225h85v-225h217v-80h-217v-225h-85v225h-218z" />
    <glyph glyph-name="comma" unicode="," horiz-adv-x="265" 
d="M135 130c43.333 0 65 -24.666 65 -73.999c0 -58.667 -38.333 -128.667 -115 -210l-45 38c35.333 47.333 53 82.666 53 105.999c0 3.33301 -1 7.5 -3 12.5s-4.83301 11.167 -8.5 18.5s-6.5 15 -8.5 23s-3 16 -3 24c0 16 6 30.333 18 43s27.667 19 47 19z" />
    <glyph glyph-name="hyphen" unicode="-" horiz-adv-x="375" 
d="M60 230v85h260v-85h-260z" />
    <glyph glyph-name="period" unicode="." horiz-adv-x="260" 
d="M129 -10c-19.333 0 -34.833 6.16797 -46.5 18.501s-17.5 29.166 -17.5 50.499c0 22 6.16699 39.333 18.5 52s28.166 19 47.499 19s34.833 -6.16699 46.5 -18.5s17.5 -29.5 17.5 -51.5c0 -21.333 -6.16699 -38.333 -18.5 -51s-28.166 -19 -47.499 -19z" />
    <glyph glyph-name="slash" unicode="/" horiz-adv-x="506" 
d="M40 0l331 700h105l-331 -700h-105z" />
    <glyph glyph-name="zero" unicode="0" horiz-adv-x="645" 
d="M335 710c46 0 84.832 -7.16699 116.499 -21.5s57.334 -36 77.001 -65s34 -65.5 43 -109.5s13.5 -95.333 13.5 -154c0 -246.667 -86.667 -370 -260 -370c-170 0 -255 120 -255 360s88.333 360 265 360zM179.999 350c0 -183.333 50 -275.001 150 -275.001
c52 0 89.167 22.833 111.5 68.5s33.5 115.834 33.5 210.501c0 93.333 -10.833 161.833 -32.5 205.5s-59.5 65.5 -113.5 65.5c-53.333 0 -91.5 -22.167 -114.5 -66.5s-34.5 -113.833 -34.5 -208.5z" />
    <glyph glyph-name="one" unicode="1" horiz-adv-x="512" 
d="M487 85v-85h-409v85h154v500l-170 -110l-42 72l233 153h84v-615h150z" />
    <glyph glyph-name="two" unicode="2" horiz-adv-x="570" 
d="M45 0l0.000976562 85.0029l167.5 153c44.333 42 79.666 78.667 105.999 110s44.833 59.5 55.5 84.5s16 50.833 16 77.5c0 36 -12 64.167 -36 84.5s-57 30.5 -99 30.5c-32.667 0 -63 -5 -91 -15l-14 -5l-10 -95h-80l-5 160c72 26.667 144 40 216 40
c34.667 0 66 -3.5 94 -10.5s52.333 -18 73 -33s36.167 -34.333 46.5 -58s15.5 -51.834 15.5 -84.501c0 -33.333 -5.5 -65.333 -16.5 -96s-29 -62.834 -54 -96.501s-57.5 -70.334 -97.5 -110.001s-89 -85.167 -147 -136.5h335v-85h-475z" />
    <glyph glyph-name="three" unicode="3" horiz-adv-x="550" 
d="M140 405l80.002 -0.000976562c46 0 82.5 10.167 109.5 30.5s40.5 47.833 40.5 82.5s-11.667 61.167 -35 79.5s-55 27.5 -95 27.5c-36 0 -68 -5 -96 -15l-14 -5l-10 -90h-80l-5 155c72 26.667 143 40 213 40c69.333 0 124.5 -14.167 165.5 -42.5s61.5 -72.5 61.5 -132.5
c0 -89.333 -43.333 -145 -130 -167c44.667 -9.33301 80 -28.833 106 -58.5s39 -63.5 39 -101.5c0 -38.667 -7.66699 -71.834 -23 -99.501s-35.5 -50.167 -60.5 -67.5s-53.333 -30.166 -85 -38.499s-63.834 -12.5 -96.501 -12.5c-19.333 0 -38.333 1.16699 -57 3.5
s-36 5.33301 -52 9s-30.333 7.83398 -43 12.501s-23 9 -31 13l-22 12l30 80c56.667 -30 116.667 -45 180 -45c46 0 82.5 11 109.5 33s40.5 53 40.5 93s-14.833 70.667 -44.5 92s-69.834 32 -120.501 32h-75v80z" />
    <glyph glyph-name="four" unicode="4" horiz-adv-x="610" 
d="M20 240l320 475l115 -15v-450h115v-85h-115v-165h-103v165h-322zM352 580l-222 -330h222v330z" />
    <glyph glyph-name="five" unicode="5" horiz-adv-x="530" 
d="M452 700l-2.99902 -85.001h-282l-9 -190h32c44.667 0 85 -5 121 -15s66.5 -24.333 91.5 -43s44.167 -40.834 57.5 -66.501s20 -54.167 20 -85.5c0 -35.333 -6.66699 -66.833 -20 -94.5s-31.5 -51.5 -54.5 -71.5s-49.333 -34.833 -79 -44.5s-61.834 -14.5 -96.501 -14.5
c-19.333 0 -38.5 1.16699 -57.5 3.5s-36.833 5.33301 -53.5 9s-31.667 7.83398 -45 12.501s-23.333 9 -30 13l-24 12l30 80c52.667 -30 111 -45 175 -45c20 0 38.833 3 56.5 9s33 14.833 46 26.5s23.333 25.834 31 42.501s11.5 36 11.5 58c0 44 -18 77.333 -54 100
s-86.333 34 -151 34h-105l13 355h379z" />
    <glyph glyph-name="six" unicode="6" horiz-adv-x="600" 
d="M425 710c30.667 0 55.6689 -3.33398 75.002 -10.001l-5 -80c-10 1.33301 -21.5 2.5 -34.5 3.5s-27.167 1.5 -42.5 1.5c-32 0 -60.167 -4.33301 -84.5 -13s-45.333 -20 -63 -34s-32.5 -29.5 -44.5 -46.5s-21.833 -34.167 -29.5 -51.5s-13.334 -33.5 -17.001 -48.5
s-6.16699 -27.5 -7.5 -37.5l-2 -14c7.33301 6 17.666 11.833 30.999 17.5s28 11 44 16s32.333 9 49 12s32 4.5 46 4.5c30 0 58 -4.83301 84 -14.5s48.667 -23.667 68 -42s34.666 -40.666 45.999 -66.999s17 -56.166 17 -89.499s-6.33301 -63.833 -19 -91.5
s-29.834 -51.5 -51.501 -71.5s-47.167 -35.667 -76.5 -47s-60.333 -17 -93 -17c-42.667 0 -80 7.33301 -112 22s-58.5 35.5 -79.5 62.5s-36.833 59.167 -47.5 96.5s-16 78.666 -16 123.999c0 62 7.83301 118.5 23.5 169.5s38.834 94.667 69.501 131
s68.834 64.5 114.501 84.5s98.167 30 157.5 30zM165.002 299.999v-30c0 -66 14.167 -115 42.5 -147s63.5 -48 105.5 -48s75.333 12 100 36s37 57 37 99c0 90 -46.667 135 -140 135c-12 0 -24.333 -1 -37 -3s-24.5 -4.83301 -35.5 -8.5s-21.167 -7.5 -30.5 -11.5
s-17 -7.66699 -23 -11z" />
    <glyph glyph-name="seven" unicode="7" horiz-adv-x="502" 
d="M5 700h480v-75l-267 -625h-115l265 610h-268l-20 -95h-75v185z" />
    <glyph glyph-name="eight" unicode="8" horiz-adv-x="590" 
d="M530 530c0 -22.667 -4.16797 -42.8291 -12.501 -60.4961s-18.833 -33 -31.5 -46s-26.5 -23.833 -41.5 -32.5s-29.5 -15.334 -43.5 -20.001c43.333 -18 77.333 -40.167 102 -66.5s37 -61.166 37 -104.499c0 -30.667 -6 -58.834 -18 -84.501s-29 -47.834 -51 -66.501
s-48.667 -33.167 -80 -43.5s-66 -15.5 -104 -15.5s-71.833 4.83301 -101.5 14.5s-54.5 23.334 -74.5 41.001s-35.167 38.667 -45.5 63s-15.5 51.5 -15.5 81.5c0 25.333 5 48.166 15 68.499s22.833 37.666 38.5 51.999s31.167 26.166 46.5 35.499s28 16.333 38 21
c-38 18.667 -67.167 40 -87.5 64s-30.5 55.333 -30.5 94c0 60.667 21.333 106.667 64 138s100.334 47 173.001 47s128 -16.5 166 -49.5s57 -76.5 57 -130.5zM429.999 195.005c0 24 -8.83496 46 -26.502 66s-44.5 37 -80.5 51l-48 19c-76.667 -34.667 -115 -80 -115 -136
c0 -38 11.833 -67.333 35.5 -88s56.834 -31 99.501 -31s75.834 10.333 99.501 31s35.5 50 35.5 88zM317.997 400.005c71.333 29.333 106.999 70.998 106.999 124.998c0 30.667 -10.833 55 -32.5 73s-52.5 27 -92.5 27s-70.833 -9 -92.5 -27s-32.5 -42.333 -32.5 -73
c0 -16.667 3.66699 -31.167 11 -43.5s17.333 -23.166 30 -32.499s27.834 -18.166 45.501 -26.499s36.5 -15.833 56.5 -22.5z" />
    <glyph glyph-name="nine" unicode="9" horiz-adv-x="600" 
d="M180 -10c-30.667 0 -57.3359 3.33398 -80.0029 10.001l5 80l33.5 -4c11.667 -1.33301 24.167 -2 37.5 -2c35.333 0 66 4.5 92 13.5s48.333 20.667 67 35s33.834 30.333 45.501 48s21 35.334 28 53.001s12 34.167 15 49.5s4.83301 28 5.5 38l1 14
c-7.33301 -6 -17.666 -11.833 -30.999 -17.5s-28 -11 -44 -16s-32.333 -9 -49 -12s-32 -4.5 -46 -4.5c-30 0 -58.167 4.5 -84.5 13.5s-49.166 22.333 -68.499 40s-34.5 39.5 -45.5 65.5s-16.5 56 -16.5 90s6.33301 64.833 19 92.5s30 51.5 52 71.5s47.5 35.333 76.5 46
s59.833 16 92.5 16c42 0 78.833 -7.33301 110.5 -22s58.167 -35.334 79.5 -62.001s37.5 -58.834 48.5 -96.501s16.5 -79.167 16.5 -124.5c0 -61.333 -7.66699 -117.5 -23 -168.5s-38 -94.833 -68 -131.5s-67.5 -65 -112.5 -85s-97.167 -30 -156.5 -30zM434.998 405.001v30
c0 64 -14.167 111.667 -42.5 143s-63.5 47 -105.5 47s-75.333 -12 -100 -36s-37 -57 -37 -99c0 -86.667 46.667 -130 140 -130c24.667 -0.666992 48.667 3 72 11s41.333 15.667 54 23z" />
    <glyph glyph-name="colon" unicode=":" horiz-adv-x="280" 
d="M139 -10c-19.333 0 -34.833 6.16797 -46.5 18.501s-17.5 29.166 -17.5 50.499c0 22 6.16699 39.333 18.5 52s28.166 19 47.499 19s34.833 -6.16699 46.5 -18.5s17.5 -29.5 17.5 -51.5c0 -21.333 -6.16699 -38.333 -18.5 -51s-28.166 -19 -47.499 -19zM92 333.001
c-11.333 13.333 -17.001 30.667 -17.001 52c0 23.333 6.5 40.833 19.5 52.5s28.5 17.5 46.5 17.5s33.167 -6.16699 45.5 -18.5s18.5 -29.5 18.5 -51.5c0 -21.333 -6.16699 -38.333 -18.5 -51s-28.166 -19 -47.499 -19s-35 6 -47 18z" />
    <glyph glyph-name="semicolon" unicode=";" horiz-adv-x="280" 
d="M90 -154c76.667 81.333 115.001 151.334 115.001 210.001c0 49.333 -21.667 74 -65 74c-21.333 0 -37.5 -6.5 -48.5 -19.5s-16.5 -29.167 -16.5 -48.5c0 -7.33301 1.33301 -14.833 4 -22.5s5.5 -14.834 8.5 -21.501s5.5 -12.667 7.5 -18s3 -10 3 -14
s-1.16699 -9.5 -3.5 -16.5s-5.5 -14.5 -9.5 -22.5s-8.33301 -16 -13 -24s-9.33398 -15 -14.001 -21l-13 -18zM91.001 333.001c-11.333 13.333 -16.999 30.667 -16.999 52c0 22.667 6.66699 40 20 52s28.666 18 45.999 18c18 0 33.167 -6.16699 45.5 -18.5
s18.5 -29.5 18.5 -51.5s-6.33301 -39.167 -19 -51.5s-28.667 -18.5 -48 -18.5c-18.667 0 -34 6 -46 18z" />
    <glyph glyph-name="less" unicode="&#x3c;" horiz-adv-x="610" 
d="M160 265l400 -185v-85l-510 235v70l510 230v-85z" />
    <glyph glyph-name="equal" unicode="=" horiz-adv-x="600" 
d="M55 135v80h490v-80h-490zM55 330v80h490v-80h-490z" />
    <glyph glyph-name="greater" unicode="&#x3e;" horiz-adv-x="610" 
d="M50 80l400 185l-400 180v85l510 -230v-70l-510 -235v85z" />
    <glyph glyph-name="question" unicode="?" horiz-adv-x="481" 
d="M195 -10c-19.333 0 -34.833 6.16797 -46.5 18.501s-17.5 29.166 -17.5 50.499c0 22 6.16699 39.333 18.5 52s28.166 19 47.499 19s34.833 -6.16699 46.5 -18.5s17.5 -29.5 17.5 -51.5c0 -21.333 -6.16699 -38.333 -18.5 -51s-28.166 -19 -47.499 -19zM233 234.001
l-90 -6.00098c-6 44.667 -9 76.334 -9 95.001c0 13.333 3.5 26.166 10.5 38.499s16 24.5 27 36.5s23.333 23.667 37 35l39.5 34c42 36 63 73.667 63 113c0 53.333 -35 80 -105 80c-16.667 0.666992 -32.5 -0.166016 -47.5 -2.49902s-29.167 -4.83301 -42.5 -7.5l-15 -3
l-16 75c44.667 15.333 86.667 23 126 23c29.333 0 56.5 -2.83301 81.5 -8.5s46.833 -14.667 65.5 -27s33 -28.333 43 -48s15 -43.5 15 -71.5c0 -16.667 -2.66699 -33.167 -8 -49.5s-12.333 -31.833 -21 -46.5s-18.5 -28.334 -29.5 -41.001s-22.167 -23.667 -33.5 -33
c-30.667 -25.333 -54 -48.166 -70 -68.499s-23.667 -38.833 -23 -55.5z" />
    <glyph glyph-name="at" unicode="@" horiz-adv-x="820" 
d="M555 30c-46.667 -26.667 -101.667 -40.001 -165 -40.001c-106 0 -186.667 30.5 -242 91.5s-83 147.5 -83 259.5c0 56 8.5 106.833 25.5 152.5s41 84.5 72 116.5s68.167 56.667 111.5 74s91.333 26 144 26s100.167 -8.16699 142.5 -24.5s78.166 -39.666 107.499 -69.999
s52 -67.166 68 -110.499s24 -91.666 24 -144.999c0 -64 -15.167 -114.167 -45.5 -150.5s-71.5 -54.5 -123.5 -54.5c-24.667 0 -47.167 5.33301 -67.5 16s-34.166 27.334 -41.499 50.001c-6 -8 -13.833 -15.667 -23.5 -23s-20 -13.833 -31 -19.5s-22 -10.334 -33 -14.001
s-21.167 -5.5 -30.5 -5.5c-36 0 -63.5 9.5 -82.5 28.5s-28.5 46.833 -28.5 83.5c0 74 54 111 162 111h54v48c0 36.667 -22.667 55 -68 55c-22.667 0 -51 -5 -85 -15l-17 -5l-18 57c49.333 20.667 96 31 140 31c85.333 0 128 -38.333 128 -115v-179
c0 -14 4.16699 -24.833 12.5 -32.5s19.833 -11.5 34.5 -11.5c26 0 46.5 12.333 61.5 37s22.5 59 22.5 103c0 42.667 -6.16699 81.167 -18.5 115.5s-30 63.666 -53 87.999s-51 43.166 -84 56.499s-70.167 20 -111.5 20c-40.667 0 -77.5 -6.5 -110.5 -19.5
s-61.167 -31.833 -84.5 -56.5s-41.333 -54.667 -54 -90s-19 -75.333 -19 -120c0 -90 22 -159.833 66 -209.5s105.333 -74.5 184 -74.5c38 0 73 6.33301 105 19l15 6zM469 327.999h-47.999c-32.667 0 -55.834 -4.33301 -69.501 -13s-20.5 -21.667 -20.5 -39
c0 -34 17.333 -51 52 -51c13.333 0 27.333 3.5 42 10.5s25.667 14.5 33 22.5l11 12v58z" />
    <glyph glyph-name="A" unicode="A" horiz-adv-x="725" 
d="M5 0v60l82 19l228 616l100 5l222 -621l83 -19v-60h-290v60l93 19l-38 111h-260l-39 -111l94 -19v-60h-275zM357 571l-105 -301h206z" />
    <glyph glyph-name="B" unicode="B" horiz-adv-x="630" 
d="M40 0v60l85 20v540l-85 20v55l185 5h115c65.333 0 117.5 -14.667 156.5 -44s58.5 -73 58.5 -131c0 -86 -43.333 -140 -130 -162c52 -12 90.833 -32 116.5 -60s38.5 -62.333 38.5 -103c0 -133.333 -85 -200 -255 -200h-285zM225 325v-245h105c96.667 0 145 38.333 145 115
c0 48 -14.5 81.667 -43.5 101s-72.833 29 -131.5 29h-75zM225 620l-0.000976562 -220h75c46.667 0 83.334 9.5 110.001 28.5s40 46.5 40 82.5c0 36.667 -10.667 64 -32 82s-49 27 -83 27h-110z" />
    <glyph glyph-name="C" unicode="C" horiz-adv-x="645" 
d="M520 491l-27 114.002c-36 13.333 -78.667 20 -128 20c-68 0 -120 -24.667 -156 -74s-54 -118.333 -54 -207c0 -89.333 19.5 -155.666 58.5 -198.999s91.167 -65 156.5 -65c14.667 0 30.5 1.66699 47.5 5s33.5 8.16602 49.5 14.499s30.667 13 44 20s24.333 13.833 33 20.5
l26 20l40 -65c-14.667 -14.667 -31.5 -28.334 -50.5 -41.001s-39.333 -23.834 -61 -33.501s-44.167 -17.167 -67.5 -22.5s-47 -8 -71 -8c-102 0 -180.833 29.5 -236.5 88.5s-83.5 145.167 -83.5 258.5c0 56.667 7.83301 108 23.5 154s38.167 85.167 67.5 117.5
s64.5 57.333 105.5 75s87.167 26.5 138.5 26.5c15.333 0 32.166 -1.16699 50.499 -3.5s36.333 -5.5 54 -9.5s34.334 -8.16699 50.001 -12.5s28.5 -8.5 38.5 -12.5l32 -12l-5 -169h-75z" />
    <glyph glyph-name="D" unicode="D" horiz-adv-x="730" 
d="M250 80l115 0.000976562c66 0 117.5 22.667 154.5 68s55.5 113.666 55.5 204.999c0 92 -18 159.5 -54 202.5s-86.333 64.5 -151 64.5h-120v-540zM60 0.000976562l0.00195312 60l85 20v540l-85 20v55l190 5h125c49.333 0 93.5 -7.5 132.5 -22.5s72 -37 99 -66
s47.667 -64.667 62 -107s21.5 -90.833 21.5 -145.5s-7.83301 -104 -23.5 -148s-37.834 -81.667 -66.501 -113s-63.334 -55.5 -104.001 -72.5s-86 -25.5 -136 -25.5h-300z" />
    <glyph glyph-name="E" unicode="E" horiz-adv-x="625" 
d="M465 620h-215v-215h230v-80h-230v-245h230l20 100h65v-180h-505v60l85 20v540l-85 20v55l190 5h305v-170h-65z" />
    <glyph glyph-name="F" unicode="F" horiz-adv-x="570" 
d="M445 620h-215v-225h230v-80h-230v-235l100 -20v-60h-290v60l85 20v540l-85 20v55l190 5h305v-165h-65z" />
    <glyph glyph-name="G" unicode="G" horiz-adv-x="751" 
d="M635 264l0.000976562 -213.999c-0.666992 0 -6.66699 -3.16699 -18 -9.5s-27.833 -13.333 -49.5 -21s-48.334 -14.5 -80.001 -20.5s-67.5 -9 -107.5 -9c-102 0 -180.833 29.5 -236.5 88.5s-83.5 145.167 -83.5 258.5c0 56.667 7.83301 108 23.5 154
s38.167 85.167 67.5 117.5s64.5 57.333 105.5 75s87.167 26.5 138.5 26.5c15.333 0 32.166 -1.16699 50.499 -3.5s36.333 -5.5 54 -9.5s34.334 -8.16699 50.001 -12.5s28.5 -8.5 38.5 -12.5l32 -12l-5 -165h-65l-30 110c-41.333 13.333 -86.333 20 -135 20
c-68 0 -120 -24.333 -156 -73s-54 -118.334 -54 -209.001c0 -90 19.667 -157.167 59 -201.5s93 -66.5 161 -66.5c40.667 0 81 6.33301 121 19l19 6v164l-85 20v55l260 5v-60z" />
    <glyph glyph-name="H" unicode="H" horiz-adv-x="795" 
d="M325 60v-60h-285v60l85 20v540l-85 20v55l285 5v-60l-95 -20v-220h335v220l-95 20v55l285 5v-60l-85 -20v-540l85 -20v-60h-285v60l95 20v240h-335v-240z" />
    <glyph glyph-name="I" unicode="I" horiz-adv-x="355" 
d="M315 60v-60h-275v60l85 20v540l-85 20v55l275 5v-60l-85 -20v-540z" />
    <glyph glyph-name="J" unicode="J" horiz-adv-x="359" 
d="M44 695l275 5.00098v-60l-85 -20v-575c0 -60.667 -16.833 -108.334 -50.5 -143.001s-80.167 -52 -139.5 -52l-64 5l9 75h50c60 0 90 31.667 90 95v595l-85 20v55z" />
    <glyph glyph-name="K" unicode="K" horiz-adv-x="710" 
d="M325 60v-60h-285v60l85 20v540l-85 20v55l285 5v-60l-95 -20v-220h92l173 295l165 5v-60l-99 -20l-152 -253l206 -287l85 -20v-60h-285v60l85 20l-172 240h-98v-240z" />
    <glyph glyph-name="L" unicode="L" horiz-adv-x="530" 
d="M225 620v-540h205l20 115h70v-195h-485v60l85 20v540l-85 20v55l275 5v-60z" />
    <glyph glyph-name="M" unicode="M" horiz-adv-x="875" 
d="M565 0v60l95 20v500l-30 -75l-155 -315l-80 -5l-155 325l-25 70v-500l95 -20v-60h-270v60l85 20v540l-85 20v55l225 5l181 -400l189 395l210 5v-60l-85 -20v-540l85 -20v-60h-280z" />
    <glyph glyph-name="N" unicode="N" horiz-adv-x="790" 
d="M545 0l-330 551v-471l95 -20v-60h-270v60l85 20v540l-85 20v55l210 5l330 -559v479l-85 20v55l260 5v-60l-85 -20v-620h-125z" />
    <glyph glyph-name="O" unicode="O" horiz-adv-x="755" 
d="M60 342c0 56 7.49707 106.667 22.4971 152s36.833 84.166 65.5 116.499s62.834 57 102.501 74s83.834 25.5 132.501 25.5s92.334 -8.16699 131.001 -24.5s71.5 -39.833 98.5 -70.5s47.5 -67.667 61.5 -111s21 -92 21 -146s-8 -103.5 -24 -148.5s-38.5 -83.667 -67.5 -116
s-63.833 -57.666 -104.5 -75.999s-85.667 -27.5 -135 -27.5c-98 0 -173.167 30.333 -225.5 91s-78.5 147.667 -78.5 261zM379.997 625c-136.667 0 -205.001 -91.667 -205.001 -275s65 -275 195 -275c66.667 0 118.334 23.333 155.001 70s55 116.667 55 210
c0 180 -66.667 270 -200 270z" />
    <glyph glyph-name="P" unicode="P" horiz-adv-x="590" 
d="M40 0v60l85 20v540l-85 20v55l190 5h105c74 0 130.833 -18.333 170.5 -55s59.5 -86.667 59.5 -150c0 -76.667 -23.5 -135 -70.5 -175s-113.5 -60 -199.5 -60h-65v-180l85 -20v-60h-275zM230 620v-280h65c110 0 165 46.667 165 140c0 41.333 -11.333 75 -34 101
s-54.667 39 -96 39h-100z" />
    <glyph glyph-name="Q" unicode="Q" horiz-adv-x="755" 
d="M785 -65l40.0029 -60.0029c-67.333 -40 -119 -60 -155 -60c-26 0 -69.333 18.333 -130 55l-199 122c-91.333 7.33301 -161 40.833 -209 100.5s-72 144.167 -72 253.5c0 54.667 8.16699 104.334 24.5 149.001s39.166 83 68.499 115s64.5 56.667 105.5 74
s86.167 26 135.5 26s93.333 -8 132 -24s71.167 -39.167 97.5 -69.5s46.5 -67.166 60.5 -110.499s21 -92 21 -146c0 -45.333 -5.33301 -87.166 -16 -125.499s-25.834 -72.833 -45.501 -103.5s-43.5 -56.667 -71.5 -78s-59.667 -37.333 -95 -48l108 -65
c44.667 -26.667 79.667 -40 105 -40c19.333 0 45.666 8.66699 78.999 26zM390.003 624.997c-71.333 0 -125.833 -22.668 -163.5 -68.001s-56.5 -113.666 -56.5 -204.999c0 -90.667 17.5 -159.5 52.5 -206.5s87.5 -70.5 157.5 -70.5c70.667 0 124.167 23.5 160.5 70.5
s54.5 116.833 54.5 209.5c0 180 -68.333 270 -205 270z" />
    <glyph glyph-name="R" unicode="R" horiz-adv-x="650" 
d="M40 0l-0.000976562 60l85 20v540l-85 20v55l190 5h110c70.667 0 125.834 -16 165.501 -48s59.5 -76 59.5 -132c0 -98 -43.333 -163 -130 -195c16 -14 36 -44 60 -90l79 -159l71 -16v-60h-150l-85 185c-23.333 50 -43.5 82.5 -60.5 97.5s-41.833 22.5 -74.5 22.5h-45v-225
l85 -20v-60h-275zM229.999 620v-240.001h75c48.667 0 86.667 11 114 33s41 51 41 87c0 36.667 -11.667 65.834 -35 87.501s-53.333 32.5 -90 32.5h-105z" />
    <glyph glyph-name="S" unicode="S" horiz-adv-x="598" 
d="M150 205l19.9971 -104.997c12 -6.66699 28.333 -12.5 49 -17.5s41 -7.5 61 -7.5s39.333 2.5 58 7.5s35 12.167 49 21.5s25.167 20.5 33.5 33.5s12.5 27.833 12.5 44.5c0 19.333 -5.33301 35.5 -16 48.5s-24.5 24.333 -41.5 34s-36.167 18.167 -57.5 25.5l-65 23
c-23.333 10 -45.833 20.167 -67.5 30.5s-41 23 -58 38s-30.5 33.167 -40.5 54.5s-15 47.666 -15 78.999c0 33.333 6.5 62.333 19.5 87s30.333 45 52 61s47 27.833 76 35.5s59.5 11.5 91.5 11.5c14.667 0 30.334 -1 47.001 -3s33 -4.5 49 -7.5s31 -6.33301 45 -10l36 -9.5
l32 -10l-5 -170h-65l-34 107c-18.667 6 -37.167 10.333 -55.5 13s-37.166 4 -56.499 4s-36.833 -2.5 -52.5 -7.5s-29 -11.833 -40 -20.5s-19.5 -18.334 -25.5 -29.001s-9 -21.667 -9 -33c0.666992 -28 10 -50 28 -66s40.333 -29.667 67 -41s55.5 -22 86.5 -32
s59.667 -22.5 86 -37.5s48.333 -34.5 66 -58.5s26.5 -55.333 26.5 -94c0 -34.667 -6.66699 -65.334 -20 -92.001s-31.666 -49.167 -54.999 -67.5s-51 -32.333 -83 -42s-66.333 -14.5 -103 -14.5c-14.667 0 -30.5 1 -47.5 3s-33.667 4.5 -50 7.5s-31.5 6.33301 -45.5 10
s-25.667 7.16699 -35 10.5l-28 10v175h80z" />
    <glyph glyph-name="T" unicode="T" 
d="M435 60v-60h-305v60l100 20v540h-130l-25 -100h-65v180h545v-180h-65l-25 100h-130v-540z" />
    <glyph glyph-name="U" unicode="U" horiz-adv-x="790" 
d="M665 620v-335.001c0 -98 -20.667 -171.667 -62 -221s-111 -74 -209 -74s-167.333 22.833 -208 68.5s-61 116.167 -61 211.5v350l-85 20v55l285 5v-60l-95 -20v-350c0 -73.333 12.667 -124.166 38 -152.499s68.333 -42.5 129 -42.5s103 15.5 127 46.5s36 85.5 36 163.5
v335l-95 20v55l285 5v-60z" />
    <glyph glyph-name="V" unicode="V" horiz-adv-x="700" 
d="M295 0l-213 620l-77 20v55l280 5v-60l-91 -19l157 -486l167 485l-93 20v55l270 5v-60l-78 -20l-222 -620h-100z" />
    <glyph glyph-name="W" unicode="W" horiz-adv-x="1035" 
d="M250 0l-167 620l-78 20v55l280 5v-60l-87 -20l107 -453l165 528l95 5l162 -544l124 464l-91 20v55l270 5v-60l-79 -20l-176 -620h-110l-149 568l-31 -113l-135 -455h-100z" />
    <glyph glyph-name="X" unicode="X" horiz-adv-x="700" 
d="M10 0v60l65 15l210 280l-185 265l-75 20v55l265 5v-60l-65 -20l130 -190l130 190l-70 20v55l265 5v-60l-90 -20l-180 -260l195 -280l85 -20v-60h-270v60l60 15l-140 205l-150 -200l85 -20v-60h-265z" />
    <glyph glyph-name="Y" unicode="Y" horiz-adv-x="645" 
d="M185 0v60l85 20v179l-193 362l-67 19v55l250 5v-60l-68 -20l133 -280l147 280l-77 20v55l240 5v-60l-62 -18l-198 -361v-181l85 -20v-60h-275z" />
    <glyph glyph-name="Z" unicode="Z" horiz-adv-x="615" 
d="M70 700h505v-70l-400 -550h310l20 100h65v-180h-530v70l400 550h-280l-25 -100h-65v180z" />
    <glyph glyph-name="bracketleft" unicode="[" horiz-adv-x="345" 
d="M305 -160v-65l-215 -5v1000l215 -5v-65l-120 -11v-838z" />
    <glyph glyph-name="backslash" unicode="\" horiz-adv-x="506" 
d="M135 700l331 -700h-105l-331 700h105z" />
    <glyph glyph-name="bracketright" unicode="]" horiz-adv-x="345" 
d="M255 -230l-215 5v65l120 11v838l-120 11v65l215 5v-1000z" />
    <glyph glyph-name="asciicircum" unicode="^" horiz-adv-x="570" 
d="M282 600l-137 -280h-85l190 380h70l190 -380h-87z" />
    <glyph glyph-name="underscore" unicode="_" horiz-adv-x="500" 
d="M0 -150v70h500v-70h-500z" />
    <glyph glyph-name="grave" unicode="`" horiz-adv-x="420" 
d="M290 635l-195 125l50 75l185 -145z" />
    <glyph glyph-name="a" unicode="a" 
d="M75 500c72 26.667 138 40 198 40c58.667 0 103.667 -11.833 135 -35.5s47 -63.5 47 -119.5v-305l80 -20v-55l-155 -5l-21 70c-53.333 -53.333 -106 -80 -158 -80s-91 13 -117 39s-39 63 -39 111c0 103.333 76.667 155 230 155h80v80c0 60 -31.667 90 -95 90
c-36 0 -65.667 -3.66699 -89 -11l-12 -4l-14 -75h-65zM355 230h-69.999c-50 0 -85.5 -6.5 -106.5 -19.5s-31.5 -33.167 -31.5 -60.5c0 -26 6.16699 -45.833 18.5 -59.5s30.166 -20.5 53.499 -20.5c11.333 0 22.833 2 34.5 6s23 9 34 15s20.833 12.5 29.5 19.5
s15.667 13.5 21 19.5l17 20v80z" />
    <glyph glyph-name="b" unicode="b" horiz-adv-x="585" 
d="M180 770l-0.000976562 -288c48.667 38.667 98.667 58 150 58c70.667 0 123.334 -23 158.001 -69s52 -111.333 52 -196c0 -41.333 -6 -79.5 -18 -114.5s-29.667 -65.167 -53 -90.5s-52 -45 -86 -59s-73.333 -21 -118 -21c-34 0.666992 -64.5 2.16699 -91.5 4.5
s-50.833 6.83301 -71.5 13.5l-22 7v675l-80 20v55zM179.999 80c16 -6.66699 50.666 -10 103.999 -10c26.667 0 49.5 5 68.5 15s34.667 23.833 47 41.5s21.333 38.667 27 63s8.5 50.833 8.5 79.5c0 60 -10.167 106.833 -30.5 140.5s-51.833 50.5 -94.5 50.5
c-33.333 0 -60.166 -6.5 -80.499 -19.5s-36.833 -28.167 -49.5 -45.5v-315z" />
    <glyph glyph-name="c" unicode="c" horiz-adv-x="510" 
d="M465 365l-64.999 0.00683594l-15 85c-26 6.66699 -56 10 -90 10c-48 0 -85 -15.333 -111 -46s-39 -78.334 -39 -143.001s13.667 -114.334 41 -149.001s65.333 -52 114 -52c14 0 27.833 1.33301 41.5 4s26.667 6.16699 39 10.5s23.5 9.16602 33.5 14.499
s18 10.666 24 15.999l17 15l35 -60l-11 -9c-8 -6.66699 -19 -14.167 -33 -22.5s-29.5 -16 -46.5 -23s-35 -13 -54 -18s-37.5 -7.5 -55.5 -7.5c-81.333 0 -143.333 24.167 -186 72.5s-64 114.5 -64 198.5c0 41.333 6.16699 79.166 18.5 113.499s29.833 63.666 52.5 87.999
s50 43.333 82 57s67.667 20.5 107 20.5c13.333 0 27 -1 41 -3s27.667 -4.33301 41 -7s25.666 -5.83398 36.999 -9.50098s21 -7.16699 29 -10.5l22 -10z" />
    <glyph glyph-name="d" unicode="d" horiz-adv-x="615" 
d="M505 770l-0.000976562 -689.999l85 -20v-55l-170 -5l-8 57c-44.667 -44.667 -99.667 -67 -165 -67c-64.667 0 -114.5 23.167 -149.5 69.5s-52.5 110.5 -52.5 192.5c0 87.333 22.333 157.166 67 209.499s110.667 78.5 198 78.5c32.667 0 64.334 -5.33301 95.001 -16v166
l-85 20v55zM404.999 145.001l-0.000976562 295.001c-23.333 13.333 -58.333 20 -105 20c-100 0 -150 -66.667 -150 -200c0 -58.667 10.167 -105 30.5 -139s51.833 -51 94.5 -51c32.667 0 60.334 8.66699 83.001 26c21.333 17.333 37 33.666 47 48.999z" />
    <glyph glyph-name="e" unicode="e" horiz-adv-x="530" 
d="M490 252l-345 -2.00098c0 -54.667 13.167 -98.334 39.5 -131.001s61.5 -49 105.5 -49c14.667 0 29.334 1.33301 44.001 4s28.5 6 41.5 10s24.833 8.5 35.5 13.5s19.667 9.83301 27 14.5l20 13l35 -52c-22.667 -18 -43.5 -32.167 -62.5 -42.5s-41.333 -19.666 -67 -27.999
s-53.5 -12.5 -83.5 -12.5c-78.667 0 -138.334 23.833 -179.001 71.5s-61 112.834 -61 195.501c0 41.333 6 79.333 18 114s28.833 64.5 50.5 89.5s47.5 44.5 77.5 58.5s63 21 99 21c140 0 210 -78.333 210 -235zM149 324.999h240c0 40.667 -8.66699 73.667 -26 99
s-45.333 38 -84 38c-38 0 -68.333 -12.833 -91 -38.5s-35.667 -58.5 -39 -98.5z" />
    <glyph glyph-name="f" unicode="f" horiz-adv-x="440" 
d="M70 515l90.001 9.99902v60c0 60.667 16 108.334 48 143.001s77.667 52 137 52c28 0 54.5 -2.83301 79.5 -8.5s42.833 -11.5 53.5 -17.5l17 -9v-125h-70l-15 80c-16.667 3.33301 -39.334 5 -68.001 5c-54.667 0 -82 -33.333 -82 -100v-80h132l-3 -75h-129v-370l97 -25v-55
h-282v55l85 25v370h-90v65z" />
    <glyph glyph-name="g" unicode="g" horiz-adv-x="585" 
d="M270 160c-29.333 0 -54.334 3 -75.001 9l-5 -94h155c65.333 0 115 -12.333 149 -37s51 -62 51 -112c0 -54 -22 -96.833 -66 -128.5s-108.667 -47.5 -194 -47.5c-160 0 -240 48.333 -240 145c0 42 22.333 77.667 67 107c10.667 6.66699 23.334 12.667 38.001 18
c-18 2.66699 -32.5 9 -43.5 19s-16.5 21.333 -16.5 34c0 22 13 54 39 96l13 21c-6 2 -14.167 8 -24.5 18s-18.833 20 -25.5 30c-18 28 -27 63.667 -27 107c0 63.333 19.833 111.666 59.5 144.999s93.167 50 160.5 50c37.333 0 67 -4.66699 89 -14l11 -5l175 4v-55l-97 -14
c18 -24 27 -57.667 27 -101c0 -65.333 -19.667 -114.166 -59 -146.499s-93 -48.5 -161 -48.5zM319.999 0l-110 -0.000976562c-3.33301 -1.33301 -9.83301 -5.5 -19.5 -12.5s-17.167 -13.5 -22.5 -19.5c-15.333 -17.333 -23 -36.666 -23 -57.999
c0 -32.667 12.833 -55 38.5 -67s64.5 -18 116.5 -18c100 0 150 31.667 150 95c0 30.667 -10.833 51.667 -32.5 63s-54.167 17 -97.5 17zM279.999 469.999c-76.667 0 -115 -39.999 -115 -119.999c0 -36.667 9.33301 -65.834 28 -87.501s45.667 -32.5 81 -32.5
c40.667 0 70.167 9.5 88.5 28.5s27.5 49.5 27.5 91.5c0 80 -36.667 120 -110 120z" />
    <glyph glyph-name="h" unicode="h" horiz-adv-x="650" 
d="M210 770l-0.00195312 -301.999c56.667 48 113.334 72 170.001 72s98.334 -15.833 125.001 -47.5s40 -75.834 40 -132.501v-280l75 -25v-55h-240v55l65 24v271c0 36 -6.66699 62.5 -20 79.5s-34.333 25.5 -63 25.5c-14 0 -27.667 -1.83301 -41 -5.5s-26 -8.5 -38 -14.5
s-22.667 -12.5 -32 -19.5s-17 -13.833 -23 -20.5l-18 -20v-295l65 -25v-55h-250v55l85 25v610l-85 20v55z" />
    <glyph glyph-name="i" unicode="i" horiz-adv-x="335" 
d="M170 765c43.333 0 65.001 -25 65.001 -75c0 -20.667 -7.33301 -36.667 -22 -48s-30.334 -17 -47.001 -17c-18 0 -32.667 6.16699 -44 18.5s-17 29.5 -17 51.5s6.16699 39.167 18.5 51.5s27.833 18.5 46.5 18.5zM225.001 530v-450l75 -25v-55h-260v55l85 25v370l-85 20v55
z" />
    <glyph glyph-name="j" unicode="j" horiz-adv-x="289" 
d="M209 530v-574.999c0 -60.667 -15.833 -108.334 -47.5 -143.001s-77.5 -52 -137.5 -52l-64 5l9 70h50c34 0 57.5 8.5 70.5 25.5s19.5 41.833 19.5 74.5v515l-85 20v55zM149 765.001c43.333 0 65.001 -25 65.001 -75c0 -20.667 -7.33301 -36.667 -22 -48
s-30.334 -17 -47.001 -17c-18 0 -32.667 6.16699 -44 18.5s-17 29.5 -17 51.5s6.33301 39.167 19 51.5s28 18.5 46 18.5z" />
    <glyph glyph-name="k" unicode="k" horiz-adv-x="585" 
d="M210 770v-440h85l75 126l-45 14v55l220 5v-60l-71 -12h-1l-103 -153l129 -225h1l75 -25v-55h-135l-143 255h-87v-175l65 -25v-55h-250v55l85 25v610l-85 20v55z" />
    <glyph glyph-name="l" unicode="l" horiz-adv-x="317" 
d="M212 770v-690l100 -25v-55h-287v55l85 25v610l-85 20v55z" />
    <glyph glyph-name="m" unicode="m" horiz-adv-x="980" 
d="M205 530l9.00488 -71.0029c9.33301 8.66699 20.666 17.834 33.999 27.501s28 18.5 44 26.5s32.833 14.5 50.5 19.5s35.167 7.5 52.5 7.5c67.333 0 113.666 -28.667 138.999 -86c12 12 26 23.167 42 33.5s32.5 19.5 49.5 27.5s33.667 14.167 50 18.5
s31.166 6.5 44.499 6.5c103.333 0 155 -60 155 -180v-280l75 -25v-55h-240v55l65 25v270c0 36.667 -6.33301 63.334 -19 80.001s-33.334 25 -62.001 25c-14 0 -27.5 -1.83301 -40.5 -5.5s-25.167 -8.5 -36.5 -14.5s-21.333 -12.5 -30 -19.5s-15.667 -13.833 -21 -20.5
l-16 -20v-295l65 -25v-55h-230v55l65 25v270c0 36.667 -6.33301 63.334 -19 80.001s-33.334 25 -62.001 25c-14 0 -27.5 -1.83301 -40.5 -5.5s-25.167 -8.5 -36.5 -14.5s-21.333 -12.5 -30 -19.5s-15.667 -13.833 -21 -20.5l-16 -20v-295l65 -25v-55h-250v55l85 25v370
l-85 20v55z" />
    <glyph glyph-name="n" unicode="n" horiz-adv-x="665" 
d="M205 530l9.00098 -70.999l28 22c12 9.33301 26.167 18.333 42.5 27s34.333 16.167 54 22.5s40.167 9.5 61.5 9.5c54 0 94.167 -15.833 120.5 -47.5s39.5 -75.834 39.5 -132.501v-280l75 -25v-55h-240v55l65 25v270c0 36 -7 62.5 -21 79.5s-35.333 25.5 -64 25.5
c-14 0 -27.833 -1.83301 -41.5 -5.5s-26.334 -8.5 -38.001 -14.5s-22 -12.5 -31 -19.5s-16.5 -13.833 -22.5 -20.5l-17 -20v-295l65 -25v-55h-250v55l85 25v370l-85 20v55z" />
    <glyph glyph-name="o" unicode="o" horiz-adv-x="570" 
d="M40 257c0 42.667 6.16699 81.5 18.5 116.5s29.833 64.833 52.5 89.5s49.5 43.667 80.5 57s65.167 20 102.5 20c74.667 0 132.667 -23.667 174 -71s62 -113 62 -197c0 -41.333 -6 -79.166 -18 -113.499s-28.833 -64 -50.5 -89s-48 -44.5 -79 -58.5s-65.5 -21 -103.5 -21
c-76 0 -134.833 22.667 -176.5 68s-62.5 111.666 -62.5 198.999zM290 460c-96.667 0 -145 -65 -145 -195s46.667 -195 140 -195c48.667 0 84.167 16.667 106.5 50s33.5 83.333 33.5 150c0 126.667 -45 190 -135 190z" />
    <glyph glyph-name="p" unicode="p" horiz-adv-x="615" 
d="M195 530l8 -56.001c46.667 44 97.334 66 152.001 66c70.667 0 124.167 -23.167 160.5 -69.5s54.5 -112.166 54.5 -197.499c0 -41.333 -5.5 -79.333 -16.5 -114s-27.833 -64.5 -50.5 -89.5s-50.834 -44.5 -84.501 -58.5s-73.167 -21 -118.5 -21c-28 0 -58 4.66699 -90 14
v-159l105 -20v-55h-285v55l80 20v605l-85 20v55zM210 389.999l-0.00195312 -300c20.667 -13.333 55.667 -20 105 -20c100 0 150 66.667 150 200c0 58.667 -10.667 105 -32 139s-54 51 -98 51c-25.333 0 -49.166 -5.83301 -71.499 -17.5s-40.166 -29.167 -53.499 -52.5z" />
    <glyph glyph-name="q" unicode="q" horiz-adv-x="580" 
d="M305 -230v55l100 20v203c-48.667 -38.667 -98.667 -58 -150 -58c-140 0 -210 86.667 -210 260c0 43.333 6 82.833 18 118.5s29.833 66.167 53.5 91.5s52.5 45 86.5 59s73 21 117 21c64.667 0 119 -5 163 -15l22 -5v-675l80 -20v-55h-280zM405 450
c-19.333 6.66699 -54.666 10 -105.999 10c-26 0 -48.333 -4.83301 -67 -14.5s-34 -23.334 -46 -41.001s-21 -38.667 -27 -63s-9 -51.166 -9 -80.499c0 -60 10.167 -106.833 30.5 -140.5s51.833 -50.5 94.5 -50.5c33.333 0 60.166 6.5 80.499 19.5s36.833 28.167 49.5 45.5
v315z" />
    <glyph glyph-name="r" unicode="r" horiz-adv-x="465" 
d="M205 530l9.00098 -73c49.333 55.333 99.666 83 150.999 83c27.333 0 53.666 -4 78.999 -12l11 -3l-5 -145h-65l-15 75c-57.333 0 -105.666 -26 -144.999 -78v-297l100 -25v-55h-285v55l85 25v370l-85 20v55z" />
    <glyph glyph-name="s" unicode="s" horiz-adv-x="471" 
d="M46 160l70 0.00195312l11 -86c6.66699 -2.66699 17.167 -4.83398 31.5 -6.50098s28.5 -2.5 42.5 -2.5c43.333 0 74.833 6.5 94.5 19.5s29.5 32.833 29.5 59.5c0 18 -6.83301 32.333 -20.5 43s-30.834 19.667 -51.501 27s-43.167 14.666 -67.5 21.999
s-46.833 16.833 -67.5 28.5s-37.834 26.834 -51.501 45.501s-20.5 43.334 -20.5 74.001c0 50 16.667 88.167 50 114.5s77.666 40.166 132.999 41.499c23.333 -0.666992 47.166 -2.5 71.499 -5.5s49.166 -8.5 74.499 -16.5l25 -8l-3 -135h-65l-16 78
c-5.33301 2 -15.666 4.5 -30.999 7.5s-31.666 4.5 -48.999 4.5c-12 0 -23.333 -1 -34 -3s-20.167 -5.33301 -28.5 -10s-15 -11.334 -20 -20.001s-7.5 -19.334 -7.5 -32.001c0 -19.333 6.83301 -34.5 20.5 -45.5s30.834 -20.5 51.501 -28.5s43.167 -15.667 67.5 -23
s46.833 -16.833 67.5 -28.5s37.834 -26.5 51.501 -44.5s20.5 -41.667 20.5 -71c0 -28 -6 -52.667 -18 -74s-28.167 -39.166 -48.5 -53.499s-44 -25 -71 -32s-55.833 -10.5 -86.5 -10.5c-11.333 0 -23.166 0.5 -35.499 1.5s-24.5 2.33301 -36.5 4s-23.167 3.5 -33.5 5.5
s-18.833 4 -25.5 6l-23 6z" />
    <glyph glyph-name="t" unicode="t" horiz-adv-x="395" 
d="M220 671v-146h145v-75h-145v-321c0 -40.667 16.667 -61 50 -61c21.333 0 47.333 8.33301 78 25l27 -53c-45.333 -33.333 -92 -50 -140 -50c-34 0 -61.667 11.167 -83 33.5s-32 59.5 -32 111.5v315h-100v65l100 10v126z" />
    <glyph glyph-name="u" unicode="u" horiz-adv-x="650" 
d="M540 530v-450l85 -20v-55l-165 -5l-10 70c-28 -24.667 -59.667 -44.167 -95 -58.5s-65.333 -21.5 -90 -21.5c-53.333 0 -93.333 15.667 -120 47s-40 75.333 -40 132v281l-85 20v55l185 5v-351c0 -35.333 7 -61.5 21 -78.5s35.333 -25.5 64 -25.5s55 6.66699 79 20
s41.667 26.333 53 39l18 20v296l-85 20v55z" />
    <glyph glyph-name="v" unicode="v" horiz-adv-x="559" 
d="M230 530v-60l-70 -10l119 -370l120 365l-69 15v55l224 5v-60l-55 -10l-170 -460h-110l-164 455l-50 15v55z" />
    <glyph glyph-name="w" unicode="w" horiz-adv-x="830" 
d="M230 530v-60l-75 -10l85 -370l131 435l95 15l124 -450l80 365l-70 15v55l225 5v-60l-58 -10l-122 -460h-115l-95 310l-24 96l-21 -96l-95 -310h-115l-125 455l-50 15v55z" />
    <glyph glyph-name="x" unicode="x" 
d="M243 530v-60l-35 -6l77 -129l120 190l145 5v-60l-85 -15l-125 -185l128 -192l92 -23v-55h-244v55l40 12l-82 132l-124 -199h-145v55l88 23l127 187l-128 191l-77 14v55z" />
    <glyph glyph-name="y" unicode="y" horiz-adv-x="577" 
d="M245 530v-60l-70 -10l120 -350l110 345l-70 15v55l237 5v-60l-65 -10l-142 -396c-33.333 -87.333 -58 -145.333 -74 -174c-50 -86 -115.333 -129.333 -196 -130l-64 5l9 70h50c32.667 0 61.167 13.667 85.5 41s48.833 68 73.5 122l-179 457l-60 15v55z" />
    <glyph glyph-name="z" unicode="z" horiz-adv-x="505" 
d="M470 530v-75l-293 -380h204l14 80h70v-155h-400v75l292 380h-188l-14 -75h-70v150h385z" />
    <glyph glyph-name="braceleft" unicode="{" horiz-adv-x="370" 
d="M340 775v-65.002c-47.333 0 -79.666 -7.5 -96.999 -22.5s-26 -42.5 -26 -82.5v-171c0 -69.333 -31 -115.666 -93 -138.999c62 -23.333 93 -69.666 93 -138.999v-211c0 -40 8.66699 -67.5 26 -82.5s49.666 -22.5 96.999 -22.5v-65h-45
c-60.667 0 -104.167 12.833 -130.5 38.5s-39.5 69.5 -39.5 131.5v211c0 33.333 -7 59 -21 77s-38.667 27 -74 27v70c35.333 0 60 9 74 27s21 43.667 21 77v171c0 62 13.167 105.833 39.5 131.5s69.833 38.5 130.5 38.5h45z" />
    <glyph glyph-name="bar" unicode="|" horiz-adv-x="280" 
d="M180 755v-985h-80v985h80z" />
    <glyph glyph-name="braceright" unicode="}" horiz-adv-x="375" 
d="M40 775l45 0.00195312c60.667 0 104.167 -12.833 130.5 -38.5s39.5 -69.5 39.5 -131.5v-171c0 -33.333 7 -59 21 -77s38.667 -27 74 -27v-70c-35.333 0 -60 -9 -74 -27s-21 -43.667 -21 -77v-211c0 -62 -13.167 -105.833 -39.5 -131.5s-69.833 -38.5 -130.5 -38.5h-45v65
c47.333 0 79.666 7.5 96.999 22.5s26 42.5 26 82.5v211c0 69.333 31 115.666 93 138.999c-62 23.333 -93 69.666 -93 138.999v171c0 40 -8.66699 67.5 -26 82.5s-49.666 22.5 -96.999 22.5v65z" />
    <glyph glyph-name="asciitilde" unicode="~" horiz-adv-x="626" 
d="M106 209l-46 36.0029c6.66699 13.333 13.5 24.333 20.5 33s16.667 18.5 29 29.5s27.5 20 45.5 27s39.667 10.5 65 10.5c12 0 27.167 -3.16699 45.5 -9.5s37.5 -14.833 57.5 -25.5s38.5 -19.167 55.5 -25.5s30.5 -9.5 40.5 -9.5
c20.667 -0.666992 38.667 4.16602 54 14.499s27 20.5 35 30.5l12 15l46 -36c-4.66699 -9.33301 -11.5 -20 -20.5 -32s-19.667 -23.333 -32 -34s-26.333 -19.667 -42 -27s-32.5 -11 -50.5 -11c-18.667 0 -37.5 3.33301 -56.5 10s-39.333 15.167 -61 25.5
s-41.334 18.666 -59.001 24.999s-31.834 9.5 -42.501 9.5c-19.333 -0.666992 -36.666 -5.33398 -51.999 -14.001s-26.666 -18 -33.999 -28z" />
    <glyph glyph-name="Zcaron" horiz-adv-x="615" 
d="M70 700h505v-70l-400 -550h310l20 100h65v-180h-530v70l400 550h-280l-25 -100h-65v180zM305 820l140 110l35 -45l-145 -140h-60l-152 140l42 45z" />
    <glyph glyph-name="Zcaron" unicode="&#x17d;" horiz-adv-x="615" 
d="M70 700h505v-70l-400 -550h310l20 100h65v-180h-530v70l400 550h-280l-25 -100h-65v180zM305 820l140 110l35 -45l-145 -140h-60l-152 140l42 45z" />
    <glyph glyph-name="zcaron" horiz-adv-x="505" 
d="M470 530v-75l-293 -380h204l14 80h70v-155h-400v75l292 380h-188l-14 -75h-70v150h385zM270 676l140 110l35 -45l-145 -140h-60l-152 140l42 45z" />
    <glyph glyph-name="zcaron" unicode="&#x17e;" horiz-adv-x="505" 
d="M470 530v-75l-293 -380h204l14 80h70v-155h-400v75l292 380h-188l-14 -75h-70v150h385zM270 676l140 110l35 -45l-145 -140h-60l-152 140l42 45z" />
    <glyph glyph-name="uni00A0" unicode="&#xa0;" horiz-adv-x="410" 
 />
    <glyph glyph-name="exclamdown" unicode="&#xa1;" horiz-adv-x="315" 
d="M156 550c19.333 0 34.833 -6.16602 46.5 -18.499s17.5 -29.5 17.5 -51.5c0 -21.333 -6.33301 -38.333 -19 -51s-28.667 -19 -48 -19c-18.667 0 -33.834 6.16699 -45.501 18.5s-17.5 29.166 -17.5 50.499c0 22 6.33301 39.333 19 52s28.334 19 47.001 19zM100 -209.999
l15 500l85 5l15 -505h-115z" />
    <glyph glyph-name="cent" unicode="&#xa2;" horiz-adv-x="510" 
d="M315 700l-0.00195312 -92.001c24 -1.33301 48.5 -5.66602 73.5 -12.999s44.167 -14.333 57.5 -21l19 -9l-5 -130h-65l-15 85c-22 6.66699 -50.333 10 -85 10c-50 0 -86.667 -12.667 -110 -38s-35 -66 -35 -122c0 -120 50 -180 150 -180c12.667 0 25.167 1.16699 37.5 3.5
s24 5.33301 35 9s21 7.83398 30 12.501s16.167 9 21.5 13l16 12l39 -55c-9.33301 -8 -20.666 -16 -33.999 -24s-27.5 -15.5 -42.5 -22.5s-30.167 -13 -45.5 -18s-29.333 -8.16699 -42 -9.5v-111h-75v113c-64 9.33301 -112.5 35.666 -145.5 78.999s-49.5 98 -49.5 164
c0 66.667 16.833 122 50.5 166s81.834 71.333 144.501 82v96h75z" />
    <glyph glyph-name="sterling" unicode="&#xa3;" horiz-adv-x="625" 
d="M565 185l0.000976562 -185h-505v60l55 15c23.333 6 38.333 18.333 45 37s10 41.667 10 69c0 14 -0.5 33.667 -1.5 59s-2.83301 57 -5.5 95h-103v68l98 11c-2 32 -3 64 -3 96c0 62.667 16.333 111.667 49 147s83 53 151 53c16.667 0 34.167 -0.833008 52.5 -2.5
s35.666 -3.5 51.999 -5.5s31.333 -4.16699 45 -6.5s24.167 -4.83301 31.5 -7.5l24 -8v-140h-65l-15 83c-20 2.66699 -40 4.5 -60 5.5s-40 1.5 -60 1.5c-70 0 -105 -33.333 -105 -100c0 -21.333 0.333008 -41.5 1 -60.5s1.66699 -37.167 3 -54.5h166v-80h-161
c4 -60 6 -102.333 6 -127c0 -12.667 -1 -25 -3 -37s-4.66699 -23.167 -8 -33.5s-7 -19.5 -11 -27.5s-8 -14 -12 -18l-11 -12h254l21 105h65z" />
    <glyph glyph-name="currency" unicode="&#xa4;" horiz-adv-x="578" 
d="M528 486l-76.002 -76.002c19.333 -31.333 29 -67.666 29 -108.999s-10.667 -78.666 -32 -111.999l79 -79l-49 -52l-81 80c-33.333 -22 -70.666 -33 -111.999 -33c-42 0 -78.333 10 -109 30l-78 -77l-49 52l78 78c-18 30 -27 65.333 -27 106c0 42 10.333 78.667 31 110
l-82 82l49 52l83 -82c32.667 22.667 70 34 112 34c40.667 0 76.334 -9.66699 107.001 -29l78 77zM185.998 297.998c0 -38.667 8.5 -68.834 25.5 -90.501s43.5 -32.5 79.5 -32.5s62.5 10.833 79.5 32.5s25.5 51.834 25.5 90.501c0 81.333 -35 122 -105 122
s-105 -40.667 -105 -122z" />
    <glyph glyph-name="yen" unicode="&#xa5;" horiz-adv-x="645" 
d="M97 290v70h124l-144 261l-67 19v55l250 5v-60l-68 -20l133 -270l147 270l-77 20v55l240 5v-60l-62 -18l-149 -262h123v-70h-450zM97 155v70h450v-70h-172v-75l85 -20v-60h-275v60l85 20v75h-173z" />
    <glyph glyph-name="brokenbar" unicode="&#xa6;" horiz-adv-x="300" 
d="M185 365h-80v400h80v-400zM185 -265h-80v410h80v-410z" />
    <glyph glyph-name="section" unicode="&#xa7;" horiz-adv-x="545" 
d="M451 590l-60.001 0.000976562l-24 105c-10.667 1.33301 -20.834 2.5 -30.501 3.5s-19.167 1.5 -28.5 1.5c-29.333 0 -52.166 -9 -68.499 -27s-24.5 -38.667 -24.5 -62c0 -22.667 6.66699 -42.334 20 -59.001s30 -32.5 50 -47.5s41.667 -29.833 65 -44.5
s45 -30.667 65 -48s36.667 -37 50 -59s20 -48 20 -78c0 -65.333 -24 -114.333 -72 -147c18.667 -28.667 28 -59.667 28 -93c0 -27.333 -4.66699 -52.333 -14 -75s-22.5 -42.167 -39.5 -58.5s-37.167 -29 -60.5 -38s-48.666 -13.5 -75.999 -13.5
c-25.333 0.666992 -50.166 3.16699 -74.499 7.5s-41.833 9.16602 -52.5 14.499l-18 8l5 160h64l21 -105c16.667 -3.33301 36.667 -5 60 -5c12.667 0 24.5 2.5 35.5 7.5s20.5 11.5 28.5 19.5s14.333 17.333 19 28s7 21.667 7 33c0 22.667 -6.66699 42.5 -20 59.5
s-30 33 -50 48s-41.833 29.667 -65.5 44s-45.5 30.333 -65.5 48s-36.667 37.5 -50 59.5s-20 48 -20 78c0 64.667 24 113.667 72 147c-18 26.667 -27 57.667 -27 93c0 28 4.83301 53.333 14.5 76s23 42 40 58s37.167 28.5 60.5 37.5s48.666 13.5 75.999 13.5
c25.333 -0.666992 50 -3.16699 74 -7.5s41.667 -9.16602 53 -14.499l18 -8zM363.999 181.001c17.333 19.333 25.999 43.335 25.999 72.002c0 15.333 -2.33301 29 -7 41s-11.667 23.167 -21 33.5s-21 20.833 -35 31.5s-30.667 22 -50 34s-35.666 22.667 -48.999 32
s-23.666 17.333 -30.999 24c-18 -18 -27 -42 -27 -72c0 -15.333 2.16699 -29 6.5 -41s11.166 -23.333 20.499 -34s21 -21.334 35 -32.001s31 -22 51 -34l49.5 -32c13.667 -8.66699 24.167 -16.334 31.5 -23.001z" />
    <glyph glyph-name="dieresis" unicode="&#xa8;" horiz-adv-x="515" 
d="M114 656c-9.33301 10.667 -14 24.999 -14 42.999s5.16699 32.667 15.5 44s23.833 17 40.5 17s29.834 -5.66699 39.501 -17s14.5 -25.666 14.5 -42.999c0 -18 -5.33301 -32.5 -16 -43.5s-24.334 -16.5 -41.001 -16.5c-16 0 -29 5.33301 -39 16zM319 655.999
c-9.33301 10.667 -14 24.999 -14 42.999s5.16699 32.667 15.5 44s23.833 17 40.5 17s29.834 -5.66699 39.501 -17s14.5 -25.666 14.5 -42.999c0 -18 -5.33301 -32.5 -16 -43.5s-24.334 -16.5 -41.001 -16.5c-16 0 -29 5.33301 -39 16z" />
    <glyph glyph-name="copyright" unicode="&#xa9;" horiz-adv-x="820" 
d="M143 89c-65.333 66.667 -97.998 151.999 -97.998 255.999c0 52 9.16699 100.333 27.5 145s43.666 83.334 75.999 116.001s70.833 58.167 115.5 76.5s93.334 27.5 146.001 27.5c52 0 100.333 -8.66699 145 -26s83.167 -41.666 115.5 -72.999s57.833 -68.833 76.5 -112.5
s28 -91.834 28 -144.501c0 -52 -9.66699 -100.167 -29 -144.5s-45.833 -82.833 -79.5 -115.5s-73.334 -58.167 -119.001 -76.5s-94.834 -27.5 -147.501 -27.5c-105.333 0 -191 33 -257 99zM201.002 557.999c-50.667 -52.667 -75.998 -122 -75.998 -208
c0 -42.667 6.66699 -81.667 20 -117s32.166 -65.666 56.499 -90.999s53.666 -45 87.999 -59s72.833 -21 115.5 -21s81.667 7 117 21s65.833 33.833 91.5 59.5s45.667 56.167 60 91.5s21.5 74 21.5 116c0 42.667 -7.16699 81.667 -21.5 117s-34.5 65.666 -60.5 90.999
s-56.667 45 -92 59s-74 21 -116 21c-84.667 0 -152.667 -26.667 -204 -80zM542.004 413.999l-55.998 0.000976562l-14 68c-19.333 5.33301 -40 8 -62 8c-63.333 0 -95 -47.333 -95 -142c0 -85.333 33.333 -128 100 -128c16 0 32.833 3.66699 50.5 11
s31.5 14.666 41.5 21.999l15 11l27 -46l-19 -18c-3.33301 -3.33301 -9.33301 -7.5 -18 -12.5s-18.667 -10 -30 -15s-23.333 -9.16699 -36 -12.5s-24.667 -5 -36 -5c-56.667 0 -100.834 15.833 -132.501 47.5s-47.5 78.834 -47.5 141.501c0 31.333 4.33301 59.666 13 84.999
s21 47 37 65s35.5 32 58.5 42s49.167 15 78.5 15c9.33301 0 19.166 -0.666992 29.499 -2s20.5 -3.16602 30.5 -5.49902s19.167 -4.83301 27.5 -7.5s15.5 -5.33398 21.5 -8.00098l18 -8z" />
    <glyph glyph-name="ordfeminine" unicode="&#xaa;" horiz-adv-x="468" 
d="M83 580l-5 100c63.333 20 115 30 155 30c85.333 0 128 -38.333 128 -115v-208l57 -14v-45l-109 -5l-16 52c-11.333 -13.333 -29 -26.5 -53 -39.5s-45.333 -19.5 -64 -19.5c-36 0 -63.5 9.5 -82.5 28.5s-28.5 46.833 -28.5 83.5c0 74 54 111 162 111h54v50
c0 16 -5.5 28.833 -16.5 38.5s-23.833 14.5 -38.5 14.5c-26.667 0 -52.667 -3.33301 -78 -10l-10 -52h-55zM281 485l-48 -0.000976562c-31.333 0 -54.166 -4.16699 -68.499 -12.5s-21.5 -21.166 -21.5 -38.499c0 -34.667 17.333 -52 52 -52c14 0 28.167 3.66699 42.5 11
s25.166 15 32.499 23l11 11v58zM73 164.999v70h345v-70h-345z" />
    <glyph glyph-name="guillemotleft" unicode="&#xab;" horiz-adv-x="540" 
d="M365 265l115 -150l-60 -40l-145 160v60l145 160l60 -40zM150 265l110 -150l-60 -40l-140 160v60l140 160l60 -40z" />
    <glyph glyph-name="logicalnot" unicode="&#xac;" horiz-adv-x="615" 
d="M60 275v80h500v-270h-85v190h-415z" />
    <glyph glyph-name="uni00AD" unicode="&#xad;" horiz-adv-x="375" 
d="M60 230v85h260v-85h-260z" />
    <glyph glyph-name="registered" unicode="&#xae;" horiz-adv-x="720" 
d="M137 237c-54.667 54.667 -81.9941 125.667 -81.9941 213c0 43.333 7.66699 83.5 23 120.5s36.666 69.167 63.999 96.5s59.666 48.833 96.999 64.5s77.666 23.5 120.999 23.5s83.666 -7.33301 120.999 -22s69.666 -35.167 96.999 -61.5s48.666 -57.5 63.999 -93.5
s23 -75.333 23 -118c0 -43.333 -8.16699 -83.5 -24.5 -120.5s-38.833 -69.167 -67.5 -96.5s-62 -48.833 -100 -64.5s-79 -23.5 -123 -23.5c-87.333 0 -158.333 27.333 -213 82zM190.006 625c-40 -43.333 -60.002 -100 -60.002 -170c0 -36 5.16699 -68.333 15.5 -97
s25.333 -53.334 45 -74.001s43.334 -36.5 71.001 -47.5s58.834 -16.5 93.501 -16.5s66.5 5.66699 95.5 17s53.833 27.333 74.5 48s36.667 45.334 48 74.001s17 60.667 17 96c0 34.667 -5.66699 66.5 -17 95.5s-27.333 53.833 -48 74.5s-45.5 36.667 -74.5 48
s-60.833 17 -95.5 17c-68.667 0 -123.667 -21.667 -165 -65zM215.004 295l0.00292969 39.999l40 10v232l-40 8v37l150 3c34 0 62 -8.16699 84 -24.5s33 -38.833 33 -67.5c0 -43.333 -20.667 -72.666 -62 -87.999c11.333 -12 20.666 -24.333 27.999 -37l32 -63l40 -10v-40
h-86l-40 85c-5.33301 11.333 -10 20.5 -14 27.5s-7.83301 12.333 -11.5 16s-7.83398 6 -12.501 7s-10.334 1.5 -17.001 1.5h-19v-87l40 -10v-40h-145zM320.007 574.999v-97h35c18 0 32.5 4.33301 43.5 13s16.5 20.667 16.5 36c0 32 -18.333 48 -55 48h-40z" />
    <glyph glyph-name="macron" unicode="&#xaf;" horiz-adv-x="350" 
d="M40 660v75h270v-75h-270z" />
    <glyph glyph-name="degree" unicode="&#xb0;" horiz-adv-x="410" 
d="M204 435c-46 0 -83.167 13.1689 -111.5 39.502s-42.5 62.5 -42.5 108.5c0 22.667 3.83301 43.5 11.5 62.5s18.334 35 32.001 48s30 23.167 49 30.5s39.833 11 62.5 11c46 0 83.333 -13 112 -39s43 -62 43 -108c0 -22.667 -3.83301 -43.334 -11.5 -62.001
s-18.334 -34.834 -32.001 -48.501s-30.167 -24.167 -49.5 -31.5s-40.333 -11 -63 -11zM205 675.002c-25.333 0 -45.833 -7.5 -61.5 -22.5s-23.5 -36.833 -23.5 -65.5c0 -28 7.16699 -50.333 21.5 -67s35.5 -25 63.5 -25s49.167 8.33301 63.5 25s21.5 39 21.5 67
c0 28.667 -7.83301 50.5 -23.5 65.5s-36.167 22.5 -61.5 22.5z" />
    <glyph glyph-name="plusminus" unicode="&#xb1;" horiz-adv-x="615" 
d="M55 302v78h210v160h85v-160h210v-78h-210v-162h-85v162h-210zM55 0v78h505v-78h-505z" />
    <glyph glyph-name="twosuperior" unicode="&#xb2;" horiz-adv-x="390" 
d="M106 570l-60 -0.00195312l-3 109c48 17.333 93 26 135 26c108 0 162 -40 162 -120c0 -38 -12.333 -72 -37 -102s-74 -74 -148 -132h195v-71h-315v69l72.5 59l52 42.5c13.667 11.667 23.5 20.334 29.5 26.001l22 21.5c8.66699 8.66699 14.667 15.834 18 21.501l11 19.5
c6.66699 12 10 25.667 10 41c0 40 -25 60 -75 60c-21.333 0 -42 -3.33301 -62 -10z" />
    <glyph glyph-name="threesuperior" unicode="&#xb3;" horiz-adv-x="378" 
d="M97 575l-57.9971 0.000976562l-4 111c53.333 12.667 101.666 19 144.999 19c44 0 79.167 -9.33301 105.5 -28s39.5 -43.334 39.5 -74.001c0 -57.333 -29.333 -92 -88 -104c25.333 -2.66699 47.666 -12.667 66.999 -30s29 -38.333 29 -63c0 -43.333 -15.833 -76 -47.5 -98
s-73.834 -33 -126.501 -33c-22 0 -44.5 3.16699 -67.5 9.5s-40.833 12.5 -53.5 18.5l-18 9l20 60c40 -20 77 -30 111 -30c62.667 0 94 21 94 63c0 38.667 -31.333 58 -94 58h-41v61h46c56 0 84 21.333 84 64c0 34.667 -23.333 52 -70 52c-27.333 0 -50 -3 -68 -9z" />
    <glyph glyph-name="acute" unicode="&#xb4;" horiz-adv-x="420" 
d="M325 760l-195 -125l-40 55l185 145z" />
    <glyph glyph-name="mu" unicode="&#xb5;" horiz-adv-x="655" 
d="M545 530v-450l85 -20v-55l-165 -5l-10 70c-64 -53.333 -125.667 -80 -185 -80c-20 0 -40 3.33301 -60 10v-230h-100v680l-85 20v55l185 5v-361c1.33301 -32 9 -55.667 23 -71s35 -23 63 -23s54 6.66699 78 20s42 26.333 54 39l17 20v296l-85 20v55z" />
    <glyph glyph-name="mu" unicode="&#x3bc;" horiz-adv-x="655" 
d="M545 530v-450l85 -20v-55l-165 -5l-10 70c-64 -53.333 -125.667 -80 -185 -80c-20 0 -40 3.33301 -60 10v-230h-100v680l-85 20v55l185 5v-361c1.33301 -32 9 -55.667 23 -71s35 -23 63 -23s54 6.66699 78 20s42 26.333 54 39l17 20v296l-85 20v55z" />
    <glyph glyph-name="paragraph" unicode="&#xb6;" horiz-adv-x="630" 
d="M565 695v-55l-85 -20v-790h-87v790h-79v-790h-174v60l90 20v396c-48.667 5.33301 -89.167 26.5 -121.5 63.5s-48.5 82.833 -48.5 137.5c0 55.333 18.333 101.333 55 138s86.667 55 150 55h128z" />
    <glyph glyph-name="periodcentered" unicode="&#xb7;" horiz-adv-x="260" 
d="M128 233c-20 0 -35.833 6.16699 -47.5 18.5s-17.5 29.833 -17.5 52.5c0 23.333 6.33301 41.333 19 54s29 19 49 19c20.667 0 36.834 -6.16699 48.501 -18.5s17.5 -30.166 17.5 -53.499c0 -22.667 -6.33301 -40.334 -19 -53.001s-29.334 -19 -50.001 -19z" />
    <glyph glyph-name="cedilla" unicode="&#xb8;" horiz-adv-x="436" 
d="M184 0h59.9971v-43c28 -4.66699 49.5 -14.667 64.5 -30s22.5 -35.333 22.5 -60c0 -12 -2.66699 -23.333 -8 -34s-12.666 -19.834 -21.999 -27.501s-20 -13.667 -32 -18s-24.333 -6.5 -37 -6.5c-45.333 0 -81.333 7 -108 21l-14 7l24 41
c14.667 -7.33301 27.834 -12.666 39.501 -15.999s23.834 -5 36.501 -5c16.667 0 30.167 4 40.5 12s15.5 17.667 15.5 29c0 18 -7.83301 31 -23.5 39s-32.167 12 -49.5 12h-9v79z" />
    <glyph glyph-name="onesuperior" unicode="&#xb9;" horiz-adv-x="350" 
d="M330 345v-65h-270v65h95v265l-105 -65l-35 60l151 95h74v-355h90z" />
    <glyph glyph-name="ordmasculine" unicode="&#xba;" horiz-adv-x="495" 
d="M60 505c0 30.667 4.83398 58.668 14.501 84.001s23 47 40 65s37.333 31.833 61 41.5s49.834 14.5 78.501 14.5c58.667 0 103.5 -16.5 134.5 -49.5s46.5 -80.5 46.5 -142.5c0 -30.667 -4.5 -58.5 -13.5 -83.5s-21.833 -46.333 -38.5 -64s-36.834 -31.334 -60.501 -41.001
s-49.834 -14.5 -78.501 -14.5c-58 0 -103.167 16 -135.5 48s-48.5 79.333 -48.5 142zM350.001 512.001c0 42 -8.83301 73.833 -26.5 95.5s-42.5 32.5 -74.5 32.5c-30.667 0 -55.667 -10.833 -75 -32.5s-29 -53.5 -29 -95.5s9.5 -73.667 28.5 -95s44.5 -32 76.5 -32
s56.667 10.667 74 32s26 53 26 95zM70.001 165.001v70h355v-70h-355z" />
    <glyph glyph-name="guillemotright" unicode="&#xbb;" horiz-adv-x="540" 
d="M60 115l115 150l-115 150l60 40l145 -160v-60l-145 -160zM280 115l110 150l-110 150l60 40l140 -160v-60l-140 -160z" />
    <glyph glyph-name="onequarter" unicode="&#xbc;" horiz-adv-x="970" 
d="M355 345v-65h-270v65h95v265l-105 -65l-35 60l151 95h74v-355h90zM225 0l405 700h90l-405 -700h-90zM549 151l203 280l98 -10v-264h70v-65h-70v-91h-85v91h-210zM765 336l-129 -179h129v179z" />
    <glyph glyph-name="onehalf" unicode="&#xbd;" horiz-adv-x="950" 
d="M355 345v-65h-270v65h95v265l-105 -65l-35 60l151 95h74v-355h90zM225 0l405 700h90l-405 -700h-90zM651 291l-60 -0.00195312l-3 109c48 17.333 93 26 135 26c108 0 162 -40 162 -120c0 -38 -12.333 -72 -37 -102s-74 -74 -148 -132h195v-71h-315v69l72.5 59l52 42.5
c13.667 11.667 23.5 20.334 29.5 26.001l22 21.5c8.66699 8.66699 14.667 15.834 18 21.501l11 19.5c6.66699 12 10 25.667 10 41c0 40 -25 60 -75 60c-21.333 0 -42 -3.33301 -62 -10z" />
    <glyph glyph-name="threequarters" unicode="&#xbe;" horiz-adv-x="963" 
d="M112 575l-57.9971 0.000976562l-4 111c53.333 12.667 101.666 19 144.999 19c44 0 79.167 -9.33301 105.5 -28s39.5 -43.334 39.5 -74.001c0 -57.333 -29.333 -92 -88 -104c25.333 -2.66699 47.666 -12.667 66.999 -30s29 -38.333 29 -63
c0 -43.333 -15.833 -76 -47.5 -98s-73.834 -33 -126.501 -33c-22 0 -44.5 3.16699 -67.5 9.5s-40.833 12.5 -53.5 18.5l-18 9l20 60c40 -20 77 -30 111 -30c62.667 0 94 21 94 63c0 38.667 -31.333 58 -94 58h-41v61h46c56 0 84 21.333 84 64c0 34.667 -23.333 52 -70 52
c-27.333 0 -50 -3 -68 -9zM218.003 0.000976562l405 700h90l-405 -700h-90zM542.003 151.001l203 280l98 -10v-264h70v-65h-70v-91h-85v91h-210zM758.003 336.001l-129 -179h129v179z" />
    <glyph glyph-name="questiondown" unicode="&#xbf;" horiz-adv-x="476" 
d="M286 550c19.333 0 34.833 -6.16602 46.5 -18.499s17.5 -29.5 17.5 -51.5c0 -21.333 -6.33301 -38.333 -19 -51s-28.667 -19 -48 -19c-18.667 0 -33.834 6.16699 -45.501 18.5s-17.5 29.166 -17.5 50.499c0 22 6.33301 39.333 19 52s28.334 19 47.001 19zM248 306.001
l90.001 6c6 -45.333 9 -77 9 -95c0 -14 -3.5 -27.167 -10.5 -39.5s-16 -24.333 -27 -36s-23.333 -23.167 -37 -34.5l-40.5 -34c-41.333 -36 -62 -73.667 -62 -113c0 -53.333 35 -80 105 -80c16.667 -0.666992 32.5 0 47.5 2s29.167 4.66699 42.5 8l15 3l16 -75
c-44.667 -15.333 -86.667 -23 -126 -23c-29.333 0 -56.333 2.66699 -81 8s-46.334 14.166 -65.001 26.499s-33.167 28.333 -43.5 48s-15.5 43.834 -15.5 72.501c0 16.667 2.66699 33.167 8 49.5s12.333 31.833 21 46.5s18.5 28.334 29.5 41.001s22.5 23.667 34.5 33
c61.333 49.333 92 90.666 92 123.999z" />
    <glyph glyph-name="Agrave" unicode="&#xc0;" horiz-adv-x="725" 
d="M5 0v60l82 19l228 616l100 5l222 -621l83 -19v-60h-290v60l93 19l-38 111h-260l-39 -111l94 -19v-60h-275zM357 571l-105 -301h206zM440 735l-195 125l50 75l185 -145z" />
    <glyph glyph-name="Aacute" unicode="&#xc1;" horiz-adv-x="725" 
d="M5 0v60l82 19l228 616l100 5l222 -621l83 -19v-60h-290v60l93 19l-38 111h-260l-39 -111l94 -19v-60h-275zM357 571l-105 -301h206zM544 860l-195 -125l-40 55l185 145z" />
    <glyph glyph-name="Acircumflex" unicode="&#xc2;" horiz-adv-x="725" 
d="M5 0v60l82 19l228 616l100 5l222 -621l83 -19v-60h-290v60l93 19l-38 111h-260l-39 -111l94 -19v-60h-275zM357 571l-105 -301h206zM495 750l-133 93l-137 -93l-40 45l145 120l60 5l145 -125z" />
    <glyph glyph-name="Atilde" unicode="&#xc3;" horiz-adv-x="725" 
d="M5 0v60l82 19l228 616l100 5l222 -621l83 -19v-60h-290v60l93 19l-38 111h-260l-39 -111l94 -19v-60h-275zM357 571l-105 -301h206zM242 805l-35 35.002c12 28 28 50.667 48 68s41.333 26 64 26c13.333 0 26.5 -2 39.5 -6s27.833 -9.33301 44.5 -16
s31.667 -12.334 45 -17.001s24.333 -7 33 -7c16 0 29.333 3.5 40 10.5s18.334 14.167 23.001 21.5l8 10l35 -35c-2.66699 -8 -7.33398 -17 -14.001 -27s-14.667 -20.5 -24 -31.5s-19.666 -19 -30.999 -24s-24 -7.5 -38 -7.5c-11.333 0 -24.833 2.16699 -40.5 6.5
s-31.5 9.66602 -47.5 15.999s-30.333 11.5 -43 15.5s-23.334 6 -32.001 6c-15.333 -0.666992 -29 -4.5 -41 -11.5s-20.667 -14.167 -26 -21.5z" />
    <glyph glyph-name="Adieresis" unicode="&#xc4;" horiz-adv-x="725" 
d="M5 0v60l82 19l228 616l100 5l222 -621l83 -19v-60h-290v60l93 19l-38 111h-260l-39 -111l94 -19v-60h-275zM357 571l-105 -301h206zM224 781c-9.33301 10.667 -14 24.999 -14 42.999s5.16699 32.667 15.5 44s23.833 17 40.5 17s29.834 -5.66699 39.501 -17
s14.5 -25.666 14.5 -42.999c0 -18 -5.33301 -32.5 -16 -43.5s-24.334 -16.5 -41.001 -16.5c-16 0 -29 5.33301 -39 16zM429 780.999c-9.33301 10.667 -14 24.999 -14 42.999s5.16699 32.667 15.5 44s23.833 17 40.5 17s29.834 -5.66699 39.501 -17
s14.5 -25.666 14.5 -42.999c0 -18 -5.33301 -32.5 -16 -43.5s-24.334 -16.5 -41.001 -16.5c-16 0 -29 5.33301 -39 16z" />
    <glyph glyph-name="Aring" unicode="&#xc5;" horiz-adv-x="725" 
d="M250 795c0 34 11.667 61.668 35 83.001s50 32 80 32c30.667 0 57.5 -9.83301 80.5 -29.5s34.5 -43.834 34.5 -72.501c0 -54.667 -21.333 -91.667 -64 -111l221 -618l83 -19v-60h-290v60l93 19l-38 111h-260l-39 -111l94 -19v-60h-275v60l82 19l228 616
c-43.333 18.667 -65 52 -65 100zM357 571.001l-105 -301h206zM310 797.001c0 -41.333 18.333 -62 55 -62c16 0 29.167 5.66699 39.5 17s15.5 26.666 15.5 45.999c0 41.333 -18.333 62 -55 62c-16 0 -29.167 -5.66699 -39.5 -17s-15.5 -26.666 -15.5 -45.999z" />
    <glyph glyph-name="AE" unicode="&#xc6;" horiz-adv-x="959" 
d="M390 0v60l90 20v125h-220l-63 -128l78 -17v-60h-270v60l89 20l277 540l-85 20v55l126 5h477v-170h-65l-25 90h-214v-215h229v-80h-229v-245h229l20 100h65v-180h-509zM300 285h180v335h-15z" />
    <glyph glyph-name="Ccedilla" unicode="&#xc7;" horiz-adv-x="645" 
d="M595 491l-75.002 -0.00195312l-27 114c-36 13.333 -78.667 20 -128 20c-68 0 -120 -24.333 -156 -73s-54 -118 -54 -208c0 -89.333 19.5 -155.666 58.5 -198.999s91.167 -65 156.5 -65c14.667 0 30.5 2 47.5 6s33.5 8.83301 49.5 14.5s30.667 12 44 19
s24.333 13.833 33 20.5l26 20l40 -65c-12 -12 -25.667 -23.5 -41 -34.5s-31.833 -21.167 -49.5 -30.5s-36.167 -17.166 -55.5 -23.499s-39 -10.833 -59 -13.5v-37c56.667 -10 85 -39.667 85 -89c0 -13.333 -3 -25.333 -9 -36s-14 -19.667 -24 -27s-21 -13.166 -33 -17.499
s-24 -6.5 -36 -6.5c-21.333 -0.666992 -41.166 1.33301 -59.499 6s-35.166 10.667 -50.499 18l-15 7l26 42c32 -15.333 57 -23 75 -23c37.333 0 56 13.333 56 40c0 15.333 -7.16699 27.5 -21.5 36.5s-33.833 13.5 -58.5 13.5v71c-96 4 -170 35.167 -222 93.5
s-78 143.5 -78 255.5c0 56 7.83301 106.667 23.5 152s38.167 84.166 67.5 116.499s64.5 57.333 105.5 75s87.167 26.5 138.5 26.5c15.333 0 32.166 -1.16699 50.499 -3.5s36.333 -5.5 54 -9.5s34.334 -8.16699 50.001 -12.5s28.5 -8.5 38.5 -12.5l32 -12z" />
    <glyph glyph-name="Egrave" unicode="&#xc8;" horiz-adv-x="625" 
d="M465 620h-215v-215h230v-80h-230v-245h230l20 100h65v-180h-505v60l85 20v540l-85 20v55l190 5h305v-170h-65zM369 735l-195 125l50 75l185 -145z" />
    <glyph glyph-name="Eacute" unicode="&#xc9;" horiz-adv-x="625" 
d="M465 620h-215v-215h230v-80h-230v-245h230l20 100h65v-180h-505v60l85 20v540l-85 20v55l190 5h305v-170h-65zM475 860l-195 -125l-40 55l185 145z" />
    <glyph glyph-name="Ecircumflex" unicode="&#xca;" horiz-adv-x="625" 
d="M465 620h-215v-215h230v-80h-230v-245h230l20 100h65v-180h-505v60l85 20v540l-85 20v55l190 5h305v-170h-65zM455 750l-133 93l-137 -93l-40 45l145 120l60 5l145 -125z" />
    <glyph glyph-name="Edieresis" unicode="&#xcb;" horiz-adv-x="625" 
d="M465 620h-215v-215h230v-80h-230v-245h230l20 100h65v-180h-505v60l85 20v540l-85 20v55l190 5h305v-170h-65zM174 781c-9.33301 10.667 -14 24.999 -14 42.999s5.16699 32.667 15.5 44s23.833 17 40.5 17s29.834 -5.66699 39.501 -17s14.5 -25.666 14.5 -42.999
c0 -18 -5.33301 -32.5 -16 -43.5s-24.334 -16.5 -41.001 -16.5c-16 0 -29 5.33301 -39 16zM379 780.999c-9.33301 10.667 -14 24.999 -14 42.999s5.16699 32.667 15.5 44s23.833 17 40.5 17s29.834 -5.66699 39.501 -17s14.5 -25.666 14.5 -42.999
c0 -18 -5.33301 -32.5 -16 -43.5s-24.334 -16.5 -41.001 -16.5c-16 0 -29 5.33301 -39 16z" />
    <glyph glyph-name="Igrave" unicode="&#xcc;" horiz-adv-x="355" 
d="M315 60v-60h-275v60l85 20v540l-85 20v55l275 5v-60l-85 -20v-540zM215 735l-195 125l50 75l185 -145z" />
    <glyph glyph-name="Iacute" unicode="&#xcd;" horiz-adv-x="355" 
d="M315 60v-60h-275v60l85 20v540l-85 20v55l275 5v-60l-85 -20v-540zM330 860l-195 -125l-40 55l185 145z" />
    <glyph glyph-name="Icircumflex" unicode="&#xce;" horiz-adv-x="355" 
d="M305 750l-126 93l-130 -93l-40 45l138 120l60 5l138 -125zM317 60v-60h-275v60l85 20v540l-85 20v55l275 5v-60l-85 -20v-540z" />
    <glyph glyph-name="Idieresis" unicode="&#xcf;" horiz-adv-x="355" 
d="M315 60v-60h-275v60l85 20v540l-85 20v55l275 5v-60l-85 -20v-540zM35 781c-9.33301 10.667 -14 24.999 -14 42.999s5.16699 32.667 15.5 44s23.833 17 40.5 17s29.834 -5.66699 39.501 -17s14.5 -25.666 14.5 -42.999c0 -18 -5.33301 -32.5 -16 -43.5
s-24.334 -16.5 -41.001 -16.5c-16 0 -29 5.33301 -39 16zM240 780.999c-9.33301 10.667 -14 24.999 -14 42.999s5.16699 32.667 15.5 44s23.833 17 40.5 17s29.834 -5.66699 39.501 -17s14.5 -25.666 14.5 -42.999c0 -18 -5.33301 -32.5 -16 -43.5
s-24.334 -16.5 -41.001 -16.5c-16 0 -29 5.33301 -39 16z" />
    <glyph glyph-name="Eth" unicode="&#xd0;" horiz-adv-x="733" 
d="M60 330l0.00195312 79h85v211l-85 20v55l190 5h128c49.333 0 93.5 -7.5 132.5 -22.5s72 -37 99 -66s47.667 -64.667 62 -107s21.5 -90.833 21.5 -145.5s-7.83301 -104 -23.5 -148s-37.834 -81.667 -66.501 -113s-63.334 -55.5 -104.001 -72.5s-86 -25.5 -136 -25.5h-303
v60l85 20v250h-85zM249.002 620v-210.999h156v-79h-156v-250h119c66 0 117.5 22.667 154.5 68s55.5 113.666 55.5 204.999c0 92 -18 159.5 -54 202.5s-86.333 64.5 -151 64.5h-124z" />
    <glyph glyph-name="Ntilde" unicode="&#xd1;" horiz-adv-x="790" 
d="M545 0l-330 551v-471l95 -20v-60h-270v60l85 20v540l-85 20v55l210 5l330 -559v479l-85 20v55l260 5v-60l-85 -20v-620h-125zM236 766l-35 35.002c12 28 28 50.667 48 68s41.333 26 64 26c13.333 0 26.5 -2 39.5 -6s27.833 -9.33301 44.5 -16s31.667 -12.334 45 -17.001
s24.333 -7 33 -7c16 0 29.333 3.5 40 10.5s18.334 14.167 23.001 21.5l8 10l35 -35c-2.66699 -8 -7.33398 -17 -14.001 -27s-14.667 -20.5 -24 -31.5s-19.666 -19 -30.999 -24s-24 -7.5 -38 -7.5c-11.333 0 -24.833 2.16699 -40.5 6.5s-31.5 9.66602 -47.5 15.999
s-30.333 11.5 -43 15.5s-23.334 6 -32.001 6c-15.333 -0.666992 -29 -4.5 -41 -11.5s-20.667 -14.167 -26 -21.5z" />
    <glyph glyph-name="Ograve" unicode="&#xd2;" horiz-adv-x="755" 
d="M60 342c0 56 7.49707 106.667 22.4971 152s36.833 84.166 65.5 116.499s62.834 57 102.501 74s83.834 25.5 132.501 25.5s92.334 -8.16699 131.001 -24.5s71.5 -39.833 98.5 -70.5s47.5 -67.667 61.5 -111s21 -92 21 -146s-8 -103.5 -24 -148.5s-38.5 -83.667 -67.5 -116
s-63.833 -57.666 -104.5 -75.999s-85.667 -27.5 -135 -27.5c-98 0 -173.167 30.333 -225.5 91s-78.5 147.667 -78.5 261zM379.997 625c-136.667 0 -205.001 -91.667 -205.001 -275s65 -275 195 -275c66.667 0 118.334 23.333 155.001 70s55 116.667 55 210
c0 180 -66.667 270 -200 270zM429.996 735l-195 125l50 75l185 -145z" />
    <glyph glyph-name="Oacute" unicode="&#xd3;" horiz-adv-x="755" 
d="M60 342c0 56 7.49707 106.667 22.4971 152s36.833 84.166 65.5 116.499s62.834 57 102.501 74s83.834 25.5 132.501 25.5s92.334 -8.16699 131.001 -24.5s71.5 -39.833 98.5 -70.5s47.5 -67.667 61.5 -111s21 -92 21 -146s-8 -103.5 -24 -148.5s-38.5 -83.667 -67.5 -116
s-63.833 -57.666 -104.5 -75.999s-85.667 -27.5 -135 -27.5c-98 0 -173.167 30.333 -225.5 91s-78.5 147.667 -78.5 261zM379.997 625c-136.667 0 -205.001 -91.667 -205.001 -275s65 -275 195 -275c66.667 0 118.334 23.333 155.001 70s55 116.667 55 210
c0 180 -66.667 270 -200 270zM509.996 860l-195 -125l-40 55l185 145z" />
    <glyph glyph-name="Ocircumflex" unicode="&#xd4;" horiz-adv-x="755" 
d="M60 342c0 56 7.49707 106.667 22.4971 152s36.833 84.166 65.5 116.499s62.834 57 102.501 74s83.834 25.5 132.501 25.5s92.334 -8.16699 131.001 -24.5s71.5 -39.833 98.5 -70.5s47.5 -67.667 61.5 -111s21 -92 21 -146s-8 -103.5 -24 -148.5s-38.5 -83.667 -67.5 -116
s-63.833 -57.666 -104.5 -75.999s-85.667 -27.5 -135 -27.5c-98 0 -173.167 30.333 -225.5 91s-78.5 147.667 -78.5 261zM379.997 625c-136.667 0 -205.001 -91.667 -205.001 -275s65 -275 195 -275c66.667 0 118.334 23.333 155.001 70s55 116.667 55 210
c0 180 -66.667 270 -200 270zM507.996 750l-133 93l-137 -93l-40 45l145 120l60 5l145 -125z" />
    <glyph glyph-name="Otilde" unicode="&#xd5;" horiz-adv-x="755" 
d="M60 342c0 56 7.49707 106.667 22.4971 152s36.833 84.166 65.5 116.499s62.834 57 102.501 74s83.834 25.5 132.501 25.5s92.334 -8.16699 131.001 -24.5s71.5 -39.833 98.5 -70.5s47.5 -67.667 61.5 -111s21 -92 21 -146s-8 -103.5 -24 -148.5s-38.5 -83.667 -67.5 -116
s-63.833 -57.666 -104.5 -75.999s-85.667 -27.5 -135 -27.5c-98 0 -173.167 30.333 -225.5 91s-78.5 147.667 -78.5 261zM379.997 625c-136.667 0 -205.001 -91.667 -205.001 -275s65 -275 195 -275c66.667 0 118.334 23.333 155.001 70s55 116.667 55 210
c0 180 -66.667 270 -200 270zM222.996 805l-35 35.002c12 28 28 50.667 48 68s41.333 26 64 26c13.333 0 26.5 -2 39.5 -6s27.833 -9.33301 44.5 -16s31.667 -12.334 45 -17.001s24.333 -7 33 -7c16 0 29.333 3.5 40 10.5s18.334 14.167 23.001 21.5l8 10l35 -35
c-2.66699 -8 -7.33398 -17 -14.001 -27s-14.667 -20.5 -24 -31.5s-19.666 -19 -30.999 -24s-24 -7.5 -38 -7.5c-11.333 0 -24.833 2.16699 -40.5 6.5s-31.5 9.66602 -47.5 15.999s-30.333 11.5 -43 15.5s-23.334 6 -32.001 6c-15.333 -0.666992 -29 -4.5 -41 -11.5
s-20.667 -14.167 -26 -21.5z" />
    <glyph glyph-name="Odieresis" unicode="&#xd6;" horiz-adv-x="755" 
d="M60 342c0 56 7.49707 106.667 22.4971 152s36.833 84.166 65.5 116.499s62.834 57 102.501 74s83.834 25.5 132.501 25.5s92.334 -8.16699 131.001 -24.5s71.5 -39.833 98.5 -70.5s47.5 -67.667 61.5 -111s21 -92 21 -146s-8 -103.5 -24 -148.5s-38.5 -83.667 -67.5 -116
s-63.833 -57.666 -104.5 -75.999s-85.667 -27.5 -135 -27.5c-98 0 -173.167 30.333 -225.5 91s-78.5 147.667 -78.5 261zM379.997 625c-136.667 0 -205.001 -91.667 -205.001 -275s65 -275 195 -275c66.667 0 118.334 23.333 155.001 70s55 116.667 55 210
c0 180 -66.667 270 -200 270zM233.996 781c-9.33301 10.667 -14 24.999 -14 42.999s5.16699 32.667 15.5 44s23.833 17 40.5 17s29.834 -5.66699 39.501 -17s14.5 -25.666 14.5 -42.999c0 -18 -5.33301 -32.5 -16 -43.5s-24.334 -16.5 -41.001 -16.5
c-16 0 -29 5.33301 -39 16zM438.996 780.999c-9.33301 10.667 -14 24.999 -14 42.999s5.16699 32.667 15.5 44s23.833 17 40.5 17s29.834 -5.66699 39.501 -17s14.5 -25.666 14.5 -42.999c0 -18 -5.33301 -32.5 -16 -43.5s-24.334 -16.5 -41.001 -16.5
c-16 0 -29 5.33301 -39 16z" />
    <glyph glyph-name="multiply" unicode="&#xd7;" horiz-adv-x="600" 
d="M60 449l56 56l184 -184l184 184l56 -56l-184 -184l184 -184l-56 -56l-184 184l-184 -184l-56 56l184 184z" />
    <glyph glyph-name="Oslash" unicode="&#xd8;" horiz-adv-x="755" 
d="M595 785l65.002 -35l-68 -113c68.667 -62.667 103 -152.334 103 -269.001c0 -57.333 -8 -109.166 -24 -155.499s-38.5 -86 -67.5 -119s-63.833 -58.5 -104.5 -76.5s-85.334 -27 -134.001 -27c-56 0 -104.333 10 -145 30l-75 -125l-65 35l79 131
c-66 60 -99 154.667 -99 284c0 55.333 7.66699 105.5 23 150.5s37.166 83.333 65.499 115s62.5 56.167 102.5 73.5s84.667 26 134 26c53.333 0 102 -10.667 146 -32zM537.002 546l-267.999 -445c27.333 -17.333 61 -26 101 -26c67.333 0 119.166 23.333 155.499 70
s54.5 113.667 54.5 201c0 88 -14.333 154.667 -43 200zM483.003 599c-29.333 17.333 -63.667 26 -103 26c-136.667 0 -205 -91.667 -205 -275c0 -82 13.667 -146.667 41 -194z" />
    <glyph glyph-name="Ugrave" unicode="&#xd9;" horiz-adv-x="790" 
d="M665 620v-335.001c0 -98 -20.667 -171.667 -62 -221s-111 -74 -209 -74s-167.333 22.833 -208 68.5s-61 116.167 -61 211.5v350l-85 20v55l285 5v-60l-95 -20v-350c0 -73.333 12.667 -124.166 38 -152.499s68.333 -42.5 129 -42.5s103 15.5 127 46.5s36 85.5 36 163.5
v335l-95 20v55l285 5v-60zM430 734.999l-195 125l50 75l185 -145z" />
    <glyph glyph-name="Uacute" unicode="&#xda;" horiz-adv-x="790" 
d="M665 620v-335.001c0 -98 -20.667 -171.667 -62 -221s-111 -74 -209 -74s-167.333 22.833 -208 68.5s-61 116.167 -61 211.5v350l-85 20v55l285 5v-60l-95 -20v-350c0 -73.333 12.667 -124.166 38 -152.499s68.333 -42.5 129 -42.5s103 15.5 127 46.5s36 85.5 36 163.5
v335l-95 20v55l285 5v-60zM554 859.999l-195 -125l-40 55l185 145z" />
    <glyph glyph-name="Ucircumflex" unicode="&#xdb;" horiz-adv-x="790" 
d="M665 620v-335.001c0 -98 -20.667 -171.667 -62 -221s-111 -74 -209 -74s-167.333 22.833 -208 68.5s-61 116.167 -61 211.5v350l-85 20v55l285 5v-60l-95 -20v-350c0 -73.333 12.667 -124.166 38 -152.499s68.333 -42.5 129 -42.5s103 15.5 127 46.5s36 85.5 36 163.5
v335l-95 20v55l285 5v-60zM529 749.999l-133 93l-137 -93l-40 45l145 120l60 5l145 -125z" />
    <glyph glyph-name="Udieresis" unicode="&#xdc;" horiz-adv-x="790" 
d="M665 620v-335.001c0 -98 -20.667 -171.667 -62 -221s-111 -74 -209 -74s-167.333 22.833 -208 68.5s-61 116.167 -61 211.5v350l-85 20v55l285 5v-60l-95 -20v-350c0 -73.333 12.667 -124.166 38 -152.499s68.333 -42.5 129 -42.5s103 15.5 127 46.5s36 85.5 36 163.5
v335l-95 20v55l285 5v-60zM244 780.999c-9.33301 10.667 -14 24.999 -14 42.999s5.16699 32.667 15.5 44s23.833 17 40.5 17s29.834 -5.66699 39.501 -17s14.5 -25.666 14.5 -42.999c0 -18 -5.33301 -32.5 -16 -43.5s-24.334 -16.5 -41.001 -16.5c-16 0 -29 5.33301 -39 16z
M449 780.998c-9.33301 10.667 -14 24.999 -14 42.999s5.16699 32.667 15.5 44s23.833 17 40.5 17s29.834 -5.66699 39.501 -17s14.5 -25.666 14.5 -42.999c0 -18 -5.33301 -32.5 -16 -43.5s-24.334 -16.5 -41.001 -16.5c-16 0 -29 5.33301 -39 16z" />
    <glyph glyph-name="Yacute" unicode="&#xdd;" horiz-adv-x="645" 
d="M185 0v60l85 20v179l-193 362l-67 19v55l250 5v-60l-68 -20l133 -280l147 280l-77 20v55l240 5v-60l-62 -18l-198 -361v-181l85 -20v-60h-275zM505 860l-195 -125l-40 55l185 145z" />
    <glyph glyph-name="Thorn" unicode="&#xde;" horiz-adv-x="605" 
d="M230 620v-54.999h105c72 0 128.333 -16.333 169 -49s61 -78 61 -136c0 -72.667 -22.833 -128.334 -68.5 -167.001s-111.167 -58 -196.5 -58h-70v-75l85 -20v-60h-275v60l85 20v540l-85 20v55l275 5v-60zM230 485.001l-0.000976562 -250h70
c52.667 0 93.334 11.167 122.001 33.5s43 52.833 43 91.5c0 39.333 -12 70 -36 92s-57 33 -99 33h-100z" />
    <glyph glyph-name="germandbls" unicode="&#xdf;" horiz-adv-x="761" 
d="M70 450l0.00585938 65l110 10v55c0 62.667 19.333 111.667 58 147s92.334 53 161.001 53c34 0 65.167 -3.16699 93.5 -9.5s52.666 -15.833 72.999 -28.5s36.166 -28.834 47.499 -48.501s17 -42.5 17 -68.5s-6.83301 -49.833 -20.5 -71.5s-28.834 -38.834 -45.501 -51.501
c-43.333 -33.333 -65 -64 -65 -92c0 -17.333 5.66699 -31.833 17 -43.5s25.666 -22.167 42.999 -31.5s35.833 -18.166 55.5 -26.499s38.167 -18.833 55.5 -31.5s31.666 -28.167 42.999 -46.5s17 -41.5 17 -69.5c0 -24.667 -5.83301 -47.5 -17.5 -68.5s-27 -39 -46 -54
s-41 -26.833 -66 -35.5s-50.833 -13 -77.5 -13c-25.333 0.666992 -48.666 2 -69.999 4s-41 6 -59 12l-18 6v144h64l15 -81c13.333 -6.66699 32.666 -10 57.999 -10c33.333 0 60.333 6.66699 81 20s31 32 31 56c0 18.667 -5.66699 33.834 -17 45.501s-25.5 22 -42.5 31
s-35.5 17.667 -55.5 26s-38.5 18.5 -55.5 30.5s-31.167 26.833 -42.5 44.5s-17 40.167 -17 67.5c0 20.667 2.66699 38.334 8 53.001s12.333 27.5 21 38.5s18 20.667 28 29s20 16.166 30 23.499c32 24 48 52.333 48 85c0 16 -3.33301 29.833 -10 41.5s-15.834 21 -27.501 28
s-25.334 12.167 -41.001 15.5s-32.5 5 -50.5 5c-36 0 -65.167 -9.5 -87.5 -28.5s-33.5 -44.5 -33.5 -76.5v-600h-185v55l85 25v370h-110z" />
    <glyph glyph-name="agrave" unicode="&#xe0;" 
d="M75 500c72 26.667 138 40 198 40c58.667 0 103.667 -11.833 135 -35.5s47 -63.5 47 -119.5v-305l80 -20v-55l-155 -5l-21 70c-53.333 -53.333 -106 -80 -158 -80s-91 13 -117 39s-39 63 -39 111c0 103.333 76.667 155 230 155h80v80c0 60 -31.667 90 -95 90
c-36 0 -65.667 -3.66699 -89 -11l-12 -4l-14 -75h-65zM355 230h-69.999c-50 0 -85.5 -6.5 -106.5 -19.5s-31.5 -33.167 -31.5 -60.5c0 -26 6.16699 -45.833 18.5 -59.5s30.166 -20.5 53.499 -20.5c11.333 0 22.833 2 34.5 6s23 9 34 15s20.833 12.5 29.5 19.5
s15.667 13.5 21 19.5l17 20v80zM345.001 596l-210 130l50 75l195 -155z" />
    <glyph glyph-name="aacute" unicode="&#xe1;" 
d="M75 500c72 26.667 138 40 198 40c58.667 0 103.667 -11.833 135 -35.5s47 -63.5 47 -119.5v-305l80 -20v-55l-155 -5l-21 70c-53.333 -53.333 -106 -80 -158 -80s-91 13 -117 39s-39 63 -39 111c0 103.333 76.667 155 230 155h80v80c0 60 -31.667 90 -95 90
c-36 0 -65.667 -3.66699 -89 -11l-12 -4l-14 -75h-65zM355 230h-69.999c-50 0 -85.5 -6.5 -106.5 -19.5s-31.5 -33.167 -31.5 -60.5c0 -26 6.16699 -45.833 18.5 -59.5s30.166 -20.5 53.499 -20.5c11.333 0 22.833 2 34.5 6s23 9 34 15s20.833 12.5 29.5 19.5
s15.667 13.5 21 19.5l17 20v80zM404.001 726l-210 -130l-35 50l195 155z" />
    <glyph glyph-name="acircumflex" unicode="&#xe2;" 
d="M75 500c72 26.667 138 40 198 40c58.667 0 103.667 -11.833 135 -35.5s47 -63.5 47 -119.5v-305l80 -20v-55l-155 -5l-21 70c-53.333 -53.333 -106 -80 -158 -80s-91 13 -117 39s-39 63 -39 111c0 103.333 76.667 155 230 155h80v80c0 60 -31.667 90 -95 90
c-36 0 -65.667 -3.66699 -89 -11l-12 -4l-14 -75h-65zM355 230h-69.999c-50 0 -85.5 -6.5 -106.5 -19.5s-31.5 -33.167 -31.5 -60.5c0 -26 6.16699 -45.833 18.5 -59.5s30.166 -20.5 53.499 -20.5c11.333 0 22.833 2 34.5 6s23 9 34 15s20.833 12.5 29.5 19.5
s15.667 13.5 21 19.5l17 20v80zM400.001 602l-138 108l-142 -108l-40 45l150 135l60 5l150 -140z" />
    <glyph glyph-name="atilde" unicode="&#xe3;" 
d="M75 500c72 26.667 138 40 198 40c58.667 0 103.667 -11.833 135 -35.5s47 -63.5 47 -119.5v-305l80 -20v-55l-155 -5l-21 70c-53.333 -53.333 -106 -80 -158 -80s-91 13 -117 39s-39 63 -39 111c0 103.333 76.667 155 230 155h80v80c0 60 -31.667 90 -95 90
c-36 0 -65.667 -3.66699 -89 -11l-12 -4l-14 -75h-65zM355 230h-69.999c-50 0 -85.5 -6.5 -106.5 -19.5s-31.5 -33.167 -31.5 -60.5c0 -26 6.16699 -45.833 18.5 -59.5s30.166 -20.5 53.499 -20.5c11.333 0 22.833 2 34.5 6s23 9 34 15s20.833 12.5 29.5 19.5
s15.667 13.5 21 19.5l17 20v80zM108.001 635l-35 35.002c12 28 28 50.667 48 68s41.333 26 64 26c13.333 0 26.5 -2 39.5 -6s27.833 -9.33301 44.5 -16s31.667 -12.334 45 -17.001s24.333 -7 33 -7c16 0 29.333 3.5 40 10.5s18.334 14.167 23.001 21.5l8 10l35 -35
c-2.66699 -8 -7.33398 -17 -14.001 -27s-14.667 -20.5 -24 -31.5s-19.666 -19 -30.999 -24s-24 -7.5 -38 -7.5c-11.333 0 -24.833 2.16699 -40.5 6.5s-31.5 9.66602 -47.5 15.999s-30.333 11.5 -43 15.5s-23.334 6 -32.001 6c-15.333 -0.666992 -29 -4.5 -41 -11.5
s-20.667 -14.167 -26 -21.5z" />
    <glyph glyph-name="adieresis" unicode="&#xe4;" 
d="M75 500c72 26.667 138 40 198 40c58.667 0 103.667 -11.833 135 -35.5s47 -63.5 47 -119.5v-305l80 -20v-55l-155 -5l-21 70c-53.333 -53.333 -106 -80 -158 -80s-91 13 -117 39s-39 63 -39 111c0 103.333 76.667 155 230 155h80v80c0 60 -31.667 90 -95 90
c-36 0 -65.667 -3.66699 -89 -11l-12 -4l-14 -75h-65zM355 230h-69.999c-50 0 -85.5 -6.5 -106.5 -19.5s-31.5 -33.167 -31.5 -60.5c0 -26 6.16699 -45.833 18.5 -59.5s30.166 -20.5 53.499 -20.5c11.333 0 22.833 2 34.5 6s23 9 34 15s20.833 12.5 29.5 19.5
s15.667 13.5 21 19.5l17 20v80zM119.001 656c-9.33301 10.667 -14 24.999 -14 42.999s5.16699 32.667 15.5 44s23.833 17 40.5 17s29.834 -5.66699 39.501 -17s14.5 -25.666 14.5 -42.999c0 -18 -5.33301 -32.5 -16 -43.5s-24.334 -16.5 -41.001 -16.5
c-16 0 -29 5.33301 -39 16zM324.001 655.999c-9.33301 10.667 -14 24.999 -14 42.999s5.16699 32.667 15.5 44s23.833 17 40.5 17s29.834 -5.66699 39.501 -17s14.5 -25.666 14.5 -42.999c0 -18 -5.33301 -32.5 -16 -43.5s-24.334 -16.5 -41.001 -16.5
c-16 0 -29 5.33301 -39 16z" />
    <glyph glyph-name="aring" unicode="&#xe5;" 
d="M75 500c72 26.667 138 40 198 40c58.667 0 103.667 -11.833 135 -35.5s47 -63.5 47 -119.5v-305l80 -20v-55l-155 -5l-21 70c-53.333 -53.333 -106 -80 -158 -80s-91 13 -117 39s-39 63 -39 111c0 103.333 76.667 155 230 155h80v80c0 60 -31.667 90 -95 90
c-36 0 -65.667 -3.66699 -89 -11l-12 -4l-14 -75h-65zM355 230h-69.999c-50 0 -85.5 -6.5 -106.5 -19.5s-31.5 -33.167 -31.5 -60.5c0 -26 6.16699 -45.833 18.5 -59.5s30.166 -20.5 53.499 -20.5c11.333 0 22.833 2 34.5 6s23 9 34 15s20.833 12.5 29.5 19.5
s15.667 13.5 21 19.5l17 20v80zM201.001 624c-22.667 20 -34.0029 47.0029 -34.0029 81.0029c0 17.333 3.33301 33.166 10 47.499s15.5 26.5 26.5 36.5s23.5 17.667 37.5 23s28 8 42 8s27.833 -2.5 41.5 -7.5s25.834 -12.333 36.501 -22s19.334 -21.334 26.001 -35.001
s10 -28.834 10 -45.501c0 -18 -3.5 -34 -10.5 -48s-16 -26 -27 -36s-23.5 -17.667 -37.5 -23s-28 -8 -42 -8c-29.333 0 -55.666 9.66699 -78.999 29zM226.998 707.003c0 -41.333 18.333 -62 55 -62c16 0 29.167 5.66699 39.5 17s15.5 26.666 15.5 45.999
c0 41.333 -18.333 62 -55 62c-16 0 -29.167 -5.66699 -39.5 -17s-15.5 -26.666 -15.5 -45.999z" />
    <glyph glyph-name="ae" unicode="&#xe6;" horiz-adv-x="835" 
d="M800 305l-5.00098 -52.999l-345 -2c0 -54.667 13.167 -98.334 39.5 -131.001s61.5 -49 105.5 -49c14.667 0 29.334 1.33301 44.001 4s28.5 6 41.5 10s24.833 8.5 35.5 13.5s19.667 9.83301 27 14.5l20 13l35 -52c-22.667 -18 -43.5 -31.667 -62.5 -41
s-41.333 -18.666 -67 -27.999s-53.5 -14 -83.5 -14c-94.667 0 -160.334 35.333 -197.001 106c-4.66699 -6 -12.5 -15 -23.5 -27s-24.833 -23.833 -41.5 -35.5s-35.667 -21.834 -57 -30.501s-45 -13 -71 -13c-48 0 -85 13 -111 39s-39 63 -39 111
c0 103.333 76.667 155 230 155h80v80c0 60 -31.667 90 -95 90c-36 0 -65.667 -3.66699 -89 -11l-12 -4l-14 -75h-65l-5 125c72 26.667 137 40 195 40c80 0 132 -23.333 156 -70c42.667 46.667 97.334 70 164.001 70c140 0 210 -78.333 210 -235zM354.999 230.001
l-70.001 0.00195312c-50 0 -85.833 -6.33301 -107.5 -19s-32.5 -33 -32.5 -61c0 -29.333 7.5 -50 22.5 -62s31.5 -18 49.5 -18c16.667 0 32.334 3 47.001 9s27.5 13.167 38.5 21.5s20.333 16.666 28 24.999s13.5 15.166 17.5 20.499l7 9v75zM453.998 325.003h240
c0 40.667 -8.66699 73.667 -26 99s-45.333 38 -84 38c-38 0 -68.333 -12.833 -91 -38.5s-35.667 -58.5 -39 -98.5z" />
    <glyph glyph-name="ccedilla" unicode="&#xe7;" horiz-adv-x="510" 
d="M465 365l-64.999 0.00292969l-15 85c-26 6.66699 -56 10 -90 10c-48 0 -85 -15.333 -111 -46s-39 -78.334 -39 -143.001s13.667 -114.334 41 -149.001s65.333 -52 114 -52c14 0 27.833 1.33301 41.5 4s26.667 6.16699 39 10.5s23.5 9.16602 33.5 14.499
s18 10.666 24 15.999l17 15l35 -60c-9.33301 -8 -20.833 -16.333 -34.5 -25s-28.334 -16.667 -44.001 -24s-31.5 -13.666 -47.5 -18.999s-30.667 -8.66602 -44 -9.99902v-36c26.667 -5.33301 47.834 -15.666 63.501 -30.999s23.5 -35 23.5 -59
c0 -12 -2.83301 -23.333 -8.5 -34s-13.167 -19.667 -22.5 -27s-20 -13.166 -32 -17.499s-24 -6.5 -36 -6.5c-44 0 -80 7 -108 21l-14 7l24 41c30 -14 55 -21 75 -21c38 0 57 13.667 57 41c0 15.333 -7.5 27.666 -22.5 36.999s-34.833 14 -59.5 14v71
c-72.667 5.33301 -127.5 31.666 -164.5 78.999s-55.5 112 -55.5 194c0 40 6.16699 76.833 18.5 110.5s29.833 62.667 52.5 87s50 43.333 82 57s67.667 20.5 107 20.5c13.333 0 27 -1 41 -3s27.667 -4.33301 41 -7s25.666 -5.83398 36.999 -9.50098s21 -7.16699 29 -10.5
l22 -10z" />
    <glyph glyph-name="egrave" unicode="&#xe8;" horiz-adv-x="530" 
d="M490 252l-345 -2.00098c0 -54.667 13.167 -98.334 39.5 -131.001s61.5 -49 105.5 -49c14.667 0 29.334 1.33301 44.001 4s28.5 6 41.5 10s24.833 8.5 35.5 13.5s19.667 9.83301 27 14.5l20 13l35 -52c-22.667 -18 -43.5 -32.167 -62.5 -42.5s-41.333 -19.666 -67 -27.999
s-53.5 -12.5 -83.5 -12.5c-78.667 0 -138.334 23.833 -179.001 71.5s-61 112.834 -61 195.501c0 41.333 6 79.333 18 114s28.833 64.5 50.5 89.5s47.5 44.5 77.5 58.5s63 21 99 21c140 0 210 -78.333 210 -235zM149 324.999h240c0 40.667 -8.66699 73.667 -26 99
s-45.333 38 -84 38c-38 0 -68.333 -12.833 -91 -38.5s-35.667 -58.5 -39 -98.5zM345 595.999l-210 130l50 75l195 -155z" />
    <glyph glyph-name="eacute" unicode="&#xe9;" horiz-adv-x="530" 
d="M490 252l-345 -2.00098c0 -54.667 13.167 -98.334 39.5 -131.001s61.5 -49 105.5 -49c14.667 0 29.334 1.33301 44.001 4s28.5 6 41.5 10s24.833 8.5 35.5 13.5s19.667 9.83301 27 14.5l20 13l35 -52c-22.667 -18 -43.5 -32.167 -62.5 -42.5s-41.333 -19.666 -67 -27.999
s-53.5 -12.5 -83.5 -12.5c-78.667 0 -138.334 23.833 -179.001 71.5s-61 112.834 -61 195.501c0 41.333 6 79.333 18 114s28.833 64.5 50.5 89.5s47.5 44.5 77.5 58.5s63 21 99 21c140 0 210 -78.333 210 -235zM149 324.999h240c0 40.667 -8.66699 73.667 -26 99
s-45.333 38 -84 38c-38 0 -68.333 -12.833 -91 -38.5s-35.667 -58.5 -39 -98.5zM420 725.999l-210 -130l-35 50l195 155z" />
    <glyph glyph-name="ecircumflex" unicode="&#xea;" horiz-adv-x="530" 
d="M490 252l-345 -2.00098c0 -54.667 13.167 -98.334 39.5 -131.001s61.5 -49 105.5 -49c14.667 0 29.334 1.33301 44.001 4s28.5 6 41.5 10s24.833 8.5 35.5 13.5s19.667 9.83301 27 14.5l20 13l35 -52c-22.667 -18 -43.5 -32.167 -62.5 -42.5s-41.333 -19.666 -67 -27.999
s-53.5 -12.5 -83.5 -12.5c-78.667 0 -138.334 23.833 -179.001 71.5s-61 112.834 -61 195.501c0 41.333 6 79.333 18 114s28.833 64.5 50.5 89.5s47.5 44.5 77.5 58.5s63 21 99 21c140 0 210 -78.333 210 -235zM149 324.999h240c0 40.667 -8.66699 73.667 -26 99
s-45.333 38 -84 38c-38 0 -68.333 -12.833 -91 -38.5s-35.667 -58.5 -39 -98.5zM410 600.999l-138 108l-142 -108l-40 45l150 135l60 5l150 -140z" />
    <glyph glyph-name="edieresis" unicode="&#xeb;" horiz-adv-x="530" 
d="M490 252l-345 -2.00098c0 -54.667 13.167 -98.334 39.5 -131.001s61.5 -49 105.5 -49c14.667 0 29.334 1.33301 44.001 4s28.5 6 41.5 10s24.833 8.5 35.5 13.5s19.667 9.83301 27 14.5l20 13l35 -52c-22.667 -18 -43.5 -32.167 -62.5 -42.5s-41.333 -19.666 -67 -27.999
s-53.5 -12.5 -83.5 -12.5c-78.667 0 -138.334 23.833 -179.001 71.5s-61 112.834 -61 195.501c0 41.333 6 79.333 18 114s28.833 64.5 50.5 89.5s47.5 44.5 77.5 58.5s63 21 99 21c140 0 210 -78.333 210 -235zM149 324.999h240c0 40.667 -8.66699 73.667 -26 99
s-45.333 38 -84 38c-38 0 -68.333 -12.833 -91 -38.5s-35.667 -58.5 -39 -98.5zM129 655.999c-9.33301 10.667 -14 24.999 -14 42.999s5.16699 32.667 15.5 44s23.833 17 40.5 17s29.834 -5.66699 39.501 -17s14.5 -25.666 14.5 -42.999c0 -18 -5.33301 -32.5 -16 -43.5
s-24.334 -16.5 -41.001 -16.5c-16 0 -29 5.33301 -39 16zM334 655.998c-9.33301 10.667 -14 24.999 -14 42.999s5.16699 32.667 15.5 44s23.833 17 40.5 17s29.834 -5.66699 39.501 -17s14.5 -25.666 14.5 -42.999c0 -18 -5.33301 -32.5 -16 -43.5
s-24.334 -16.5 -41.001 -16.5c-16 0 -29 5.33301 -39 16z" />
    <glyph glyph-name="igrave" unicode="&#xec;" horiz-adv-x="335" 
d="M225 530v-450l75 -25v-55h-260v55l85 25v370l-85 20v55zM226 596l-210 130l50 75l195 -155z" />
    <glyph glyph-name="iacute" unicode="&#xed;" horiz-adv-x="335" 
d="M225 530v-450l75 -25v-55h-260v55l85 25v370l-85 20v55zM310 735l-210 -130l-35 50l195 155z" />
    <glyph glyph-name="icircumflex" unicode="&#xee;" horiz-adv-x="335" 
d="M225 530v-450l75 -25v-55h-260v55l85 25v370l-85 20v55zM295 600l-128 108l-132 -108l-40 45l140 135l60 5l140 -140z" />
    <glyph glyph-name="idieresis" unicode="&#xef;" horiz-adv-x="335" 
d="M225 530v-450l75 -25v-55h-260v55l85 25v370l-85 20v55zM29 656c-9.33301 10.667 -14 24.999 -14 42.999s5.16699 32.667 15.5 44s23.833 17 40.5 17s29.834 -5.66699 39.501 -17s14.5 -25.666 14.5 -42.999c0 -18 -5.33301 -32.5 -16 -43.5s-24.334 -16.5 -41.001 -16.5
c-16 0 -29 5.33301 -39 16zM224 655.999c-9.33301 10.667 -14 24.999 -14 42.999s5.16699 32.667 15.5 44s23.833 17 40.5 17s29.834 -5.66699 39.501 -17s14.5 -25.666 14.5 -42.999c0 -18 -5.33301 -32.5 -16 -43.5s-24.334 -16.5 -41.001 -16.5c-16 0 -29 5.33301 -39 16
z" />
    <glyph glyph-name="eth" unicode="&#xf0;" horiz-adv-x="595" 
d="M471 727l-93.999 -51.001c105.333 -95.333 158 -232.333 158 -411c0 -41.333 -6 -78.833 -18 -112.5s-29 -62.5 -51 -86.5s-48.333 -42.667 -79 -56s-65 -20 -103 -20c-74.667 0 -133.167 21.833 -175.5 65.5s-63.5 107.5 -63.5 191.5c0 42 5.66699 79.5 17 112.5
s27.666 61 48.999 84s47 40.667 77 53s64 18.5 102 18.5c46 0 87 -14 123 -42c-24 66.667 -61.333 120.667 -112 162l-131 -70l-40 55l108 58c-30 16.667 -62.667 30.667 -98 42l30 63c54 -13.333 103.333 -33.666 148 -60.999l112 61zM295.001 434.999
c-96.667 0 -145 -61.666 -145 -184.999c0 -56.667 11.5 -100.834 34.5 -132.501s58.5 -47.5 106.5 -47.5s83.167 15.333 105.5 46s33.5 77 33.5 139c0 120 -45 180 -135 180z" />
    <glyph glyph-name="ntilde" unicode="&#xf1;" horiz-adv-x="665" 
d="M205 530l9.00098 -70.999l28 22c12 9.33301 26.167 18.333 42.5 27s34.333 16.167 54 22.5s40.167 9.5 61.5 9.5c54 0 94.167 -15.833 120.5 -47.5s39.5 -75.834 39.5 -132.501v-280l75 -25v-55h-240v55l65 25v270c0 36 -7 62.5 -21 79.5s-35.333 25.5 -64 25.5
c-14 0 -27.833 -1.83301 -41.5 -5.5s-26.334 -8.5 -38.001 -14.5s-22 -12.5 -31 -19.5s-16.5 -13.833 -22.5 -20.5l-17 -20v-295l65 -25v-55h-250v55l85 25v370l-85 20v55zM177.001 635.001l-35 35.002c12 28 28 50.667 48 68s41.333 26 64 26c13.333 0 26.5 -2 39.5 -6
s27.833 -9.33301 44.5 -16s31.667 -12.334 45 -17.001s24.333 -7 33 -7c16 0 29.333 3.5 40 10.5s18.334 14.167 23.001 21.5l8 10l35 -35c-2.66699 -8 -7.33398 -17 -14.001 -27s-14.667 -20.5 -24 -31.5s-19.666 -19 -30.999 -24s-24 -7.5 -38 -7.5
c-11.333 0 -24.833 2.16699 -40.5 6.5s-31.5 9.66602 -47.5 15.999s-30.333 11.5 -43 15.5s-23.334 6 -32.001 6c-15.333 -0.666992 -29 -4.5 -41 -11.5s-20.667 -14.167 -26 -21.5z" />
    <glyph glyph-name="ograve" unicode="&#xf2;" horiz-adv-x="570" 
d="M40 257c0 42.667 6.16699 81.5 18.5 116.5s29.833 64.833 52.5 89.5s49.5 43.667 80.5 57s65.167 20 102.5 20c74.667 0 132.667 -23.667 174 -71s62 -113 62 -197c0 -41.333 -6 -79.166 -18 -113.499s-28.833 -64 -50.5 -89s-48 -44.5 -79 -58.5s-65.5 -21 -103.5 -21
c-76 0 -134.833 22.667 -176.5 68s-62.5 111.666 -62.5 198.999zM290 460c-96.667 0 -145 -65 -145 -195s46.667 -195 140 -195c48.667 0 84.167 16.667 106.5 50s33.5 83.333 33.5 150c0 126.667 -45 190 -135 190zM355 596l-210 130l50 75l195 -155z" />
    <glyph glyph-name="oacute" unicode="&#xf3;" horiz-adv-x="570" 
d="M40 257c0 42.667 6.16699 81.5 18.5 116.5s29.833 64.833 52.5 89.5s49.5 43.667 80.5 57s65.167 20 102.5 20c74.667 0 132.667 -23.667 174 -71s62 -113 62 -197c0 -41.333 -6 -79.166 -18 -113.499s-28.833 -64 -50.5 -89s-48 -44.5 -79 -58.5s-65.5 -21 -103.5 -21
c-76 0 -134.833 22.667 -176.5 68s-62.5 111.666 -62.5 198.999zM290 460c-96.667 0 -145 -65 -145 -195s46.667 -195 140 -195c48.667 0 84.167 16.667 106.5 50s33.5 83.333 33.5 150c0 126.667 -45 190 -135 190zM424 726l-210 -130l-35 50l195 155z" />
    <glyph glyph-name="ocircumflex" unicode="&#xf4;" horiz-adv-x="570" 
d="M40 257c0 42.667 6.16699 81.5 18.5 116.5s29.833 64.833 52.5 89.5s49.5 43.667 80.5 57s65.167 20 102.5 20c74.667 0 132.667 -23.667 174 -71s62 -113 62 -197c0 -41.333 -6 -79.166 -18 -113.499s-28.833 -64 -50.5 -89s-48 -44.5 -79 -58.5s-65.5 -21 -103.5 -21
c-76 0 -134.833 22.667 -176.5 68s-62.5 111.666 -62.5 198.999zM290 460c-96.667 0 -145 -65 -145 -195s46.667 -195 140 -195c48.667 0 84.167 16.667 106.5 50s33.5 83.333 33.5 150c0 126.667 -45 190 -135 190zM430 601l-138 108l-142 -108l-40 45l150 135l60 5
l150 -140z" />
    <glyph glyph-name="otilde" unicode="&#xf5;" horiz-adv-x="570" 
d="M40 257c0 42.667 6.16699 81.5 18.5 116.5s29.833 64.833 52.5 89.5s49.5 43.667 80.5 57s65.167 20 102.5 20c74.667 0 132.667 -23.667 174 -71s62 -113 62 -197c0 -41.333 -6 -79.166 -18 -113.499s-28.833 -64 -50.5 -89s-48 -44.5 -79 -58.5s-65.5 -21 -103.5 -21
c-76 0 -134.833 22.667 -176.5 68s-62.5 111.666 -62.5 198.999zM290 460c-96.667 0 -145 -65 -145 -195s46.667 -195 140 -195c48.667 0 84.167 16.667 106.5 50s33.5 83.333 33.5 150c0 126.667 -45 190 -135 190zM130 635l-35 35.002c12 28 28 50.667 48 68
s41.333 26 64 26c13.333 0 26.5 -2 39.5 -6s27.833 -9.33301 44.5 -16s31.667 -12.334 45 -17.001s24.333 -7 33 -7c16 0 29.333 3.5 40 10.5s18.334 14.167 23.001 21.5l8 10l35 -35c-2.66699 -8 -7.33398 -17 -14.001 -27s-14.667 -20.5 -24 -31.5
s-19.666 -19 -30.999 -24s-24 -7.5 -38 -7.5c-11.333 0 -24.833 2.16699 -40.5 6.5s-31.5 9.66602 -47.5 15.999s-30.333 11.5 -43 15.5s-23.334 6 -32.001 6c-15.333 -0.666992 -29 -4.5 -41 -11.5s-20.667 -14.167 -26 -21.5z" />
    <glyph glyph-name="odieresis" unicode="&#xf6;" horiz-adv-x="570" 
d="M40 257c0 42.667 6.16699 81.5 18.5 116.5s29.833 64.833 52.5 89.5s49.5 43.667 80.5 57s65.167 20 102.5 20c74.667 0 132.667 -23.667 174 -71s62 -113 62 -197c0 -41.333 -6 -79.166 -18 -113.499s-28.833 -64 -50.5 -89s-48 -44.5 -79 -58.5s-65.5 -21 -103.5 -21
c-76 0 -134.833 22.667 -176.5 68s-62.5 111.666 -62.5 198.999zM290 460c-96.667 0 -145 -65 -145 -195s46.667 -195 140 -195c48.667 0 84.167 16.667 106.5 50s33.5 83.333 33.5 150c0 126.667 -45 190 -135 190zM139 656c-9.33301 10.667 -14 24.999 -14 42.999
s5.16699 32.667 15.5 44s23.833 17 40.5 17s29.834 -5.66699 39.501 -17s14.5 -25.666 14.5 -42.999c0 -18 -5.33301 -32.5 -16 -43.5s-24.334 -16.5 -41.001 -16.5c-16 0 -29 5.33301 -39 16zM344 655.999c-9.33301 10.667 -14 24.999 -14 42.999s5.16699 32.667 15.5 44
s23.833 17 40.5 17s29.834 -5.66699 39.501 -17s14.5 -25.666 14.5 -42.999c0 -18 -5.33301 -32.5 -16 -43.5s-24.334 -16.5 -41.001 -16.5c-16 0 -29 5.33301 -39 16z" />
    <glyph glyph-name="divide" unicode="&#xf7;" horiz-adv-x="620" 
d="M309 -10c-19.333 0 -34.833 6.16797 -46.5 18.501s-17.5 29.166 -17.5 50.499c0 22 6.16699 39.333 18.5 52s28.166 19 47.499 19s34.833 -6.16699 46.5 -18.5s17.5 -29.5 17.5 -51.5c0 -21.333 -6.16699 -38.333 -18.5 -51s-28.166 -19 -47.499 -19zM309 400.001
c-19.333 0 -34.833 6.16797 -46.5 18.501s-17.5 29.166 -17.5 50.499c0 22 6.16699 39.333 18.5 52s28.166 19 47.499 19s34.833 -6.16699 46.5 -18.5s17.5 -29.5 17.5 -51.5c0 -21.333 -6.16699 -38.333 -18.5 -51s-28.166 -19 -47.499 -19zM50 225.002v80h520v-80h-520z
" />
    <glyph glyph-name="oslash" unicode="&#xf8;" horiz-adv-x="580" 
d="M50 -70l69.0029 115.999c-49.333 46 -74 114.333 -74 205c0 45.333 6.33301 85.833 19 121.5s30.167 66 52.5 91s49.166 44 80.499 57s65.666 19.5 102.999 19.5c36 0 70 -6.66699 102 -20l63 105l60 -35l-65 -109c50 -47.333 75 -114.666 75 -201.999
c0 -43.333 -6 -82.833 -18 -118.5s-28.833 -66.167 -50.5 -91.5s-47.834 -44.833 -78.501 -58.5s-65 -20.5 -103 -20.5c-39.333 0 -75 6.33301 -107 19l-68 -114zM295.003 459.999c-96.667 0 -145 -65 -145 -195c0 -53.333 7.66699 -96 23 -128l185 309
c-20 9.33301 -41 14 -63 14zM290.003 69.999c93.333 0 140 62.667 140 188c0 58 -7.66699 103 -23 135l-184 -308c18.667 -10 41 -15 67 -15z" />
    <glyph glyph-name="ugrave" unicode="&#xf9;" horiz-adv-x="650" 
d="M540 530v-450l85 -20v-55l-165 -5l-10 70c-28 -24.667 -59.667 -44.167 -95 -58.5s-65.333 -21.5 -90 -21.5c-53.333 0 -93.333 15.667 -120 47s-40 75.333 -40 132v281l-85 20v55l185 5v-351c0 -35.333 7 -61.5 21 -78.5s35.333 -25.5 64 -25.5s55 6.66699 79 20
s41.667 26.333 53 39l18 20v296l-85 20v55zM385 596l-210 130l50 75l195 -155z" />
    <glyph glyph-name="uacute" unicode="&#xfa;" horiz-adv-x="650" 
d="M540 530v-450l85 -20v-55l-165 -5l-10 70c-28 -24.667 -59.667 -44.167 -95 -58.5s-65.333 -21.5 -90 -21.5c-53.333 0 -93.333 15.667 -120 47s-40 75.333 -40 132v281l-85 20v55l185 5v-351c0 -35.333 7 -61.5 21 -78.5s35.333 -25.5 64 -25.5s55 6.66699 79 20
s41.667 26.333 53 39l18 20v296l-85 20v55zM460 726l-210 -130l-35 50l195 155z" />
    <glyph glyph-name="ucircumflex" unicode="&#xfb;" horiz-adv-x="650" 
d="M540 530v-450l85 -20v-55l-165 -5l-10 70c-28 -24.667 -59.667 -44.167 -95 -58.5s-65.333 -21.5 -90 -21.5c-53.333 0 -93.333 15.667 -120 47s-40 75.333 -40 132v281l-85 20v55l185 5v-351c0 -35.333 7 -61.5 21 -78.5s35.333 -25.5 64 -25.5s55 6.66699 79 20
s41.667 26.333 53 39l18 20v296l-85 20v55zM465 601l-138 108l-142 -108l-40 45l150 135l60 5l150 -140z" />
    <glyph glyph-name="udieresis" unicode="&#xfc;" horiz-adv-x="650" 
d="M540 530v-450l85 -20v-55l-165 -5l-10 70c-28 -24.667 -59.667 -44.167 -95 -58.5s-65.333 -21.5 -90 -21.5c-53.333 0 -93.333 15.667 -120 47s-40 75.333 -40 132v281l-85 20v55l185 5v-351c0 -35.333 7 -61.5 21 -78.5s35.333 -25.5 64 -25.5s55 6.66699 79 20
s41.667 26.333 53 39l18 20v296l-85 20v55zM169 656c-9.33301 10.667 -14 24.999 -14 42.999s5.16699 32.667 15.5 44s23.833 17 40.5 17s29.834 -5.66699 39.501 -17s14.5 -25.666 14.5 -42.999c0 -18 -5.33301 -32.5 -16 -43.5s-24.334 -16.5 -41.001 -16.5
c-16 0 -29 5.33301 -39 16zM374 655.999c-9.33301 10.667 -14 24.999 -14 42.999s5.16699 32.667 15.5 44s23.833 17 40.5 17s29.834 -5.66699 39.501 -17s14.5 -25.666 14.5 -42.999c0 -18 -5.33301 -32.5 -16 -43.5s-24.334 -16.5 -41.001 -16.5c-16 0 -29 5.33301 -39 16
z" />
    <glyph glyph-name="yacute" unicode="&#xfd;" horiz-adv-x="575" 
d="M245 530v-60l-70 -10l120 -350l110 345l-70 15v55l237 5v-60l-65 -10l-142 -396c-33.333 -87.333 -58 -145.333 -74 -174c-50 -86 -115.333 -129.333 -196 -130l-64 5l9 70h50c32.667 0 61.167 13.667 85.5 41s48.833 68 73.5 122l-179 457l-60 15v55zM485 726l-210 -130
l-35 50l195 155z" />
    <glyph glyph-name="thorn" unicode="&#xfe;" horiz-adv-x="615" 
d="M315 -175l0.000976562 -55.002h-285v55l80 20v845l-85 20v55l185 5v-290c7.33301 7.33301 16.833 14.5 28.5 21.5s24.167 13.333 37.5 19s26.833 10.334 40.5 14.001s26.5 5.5 38.5 5.5c70.667 0 124.167 -23.167 160.5 -69.5s54.5 -112.166 54.5 -197.499
c0 -41.333 -5.5 -79.333 -16.5 -114s-27.833 -64.5 -50.5 -89.5s-50.834 -44.5 -84.501 -58.5s-73.167 -21 -118.5 -21c-14.667 0 -28.5 0.666992 -41.5 2s-25.167 4 -36.5 8l-12 4v-159zM210.001 389.998l-0.00195312 -300c20.667 -13.333 55.667 -20 105 -20
c100 0 150 66.667 150 200c0 58.667 -10.667 105 -32 139s-54 51 -98 51c-25.333 0 -49.166 -5.83301 -71.499 -17.5s-40.166 -29.167 -53.499 -52.5z" />
    <glyph glyph-name="ydieresis" unicode="&#xff;" horiz-adv-x="575" 
d="M245 530v-60l-70 -10l120 -350l110 345l-70 15v55l237 5v-60l-65 -10l-142 -396c-33.333 -87.333 -58 -145.333 -74 -174c-50 -86 -115.333 -129.333 -196 -130l-64 5l9 70h50c32.667 0 61.167 13.667 85.5 41s48.833 68 73.5 122l-179 457l-60 15v55zM149 656
c-9.33301 10.667 -14 24.999 -14 42.999s5.16699 32.667 15.5 44s23.833 17 40.5 17s29.834 -5.66699 39.501 -17s14.5 -25.666 14.5 -42.999c0 -18 -5.33301 -32.5 -16 -43.5s-24.334 -16.5 -41.001 -16.5c-16 0 -29 5.33301 -39 16zM354 655.999
c-9.33301 10.667 -14 24.999 -14 42.999s5.16699 32.667 15.5 44s23.833 17 40.5 17s29.834 -5.66699 39.501 -17s14.5 -25.666 14.5 -42.999c0 -18 -5.33301 -32.5 -16 -43.5s-24.334 -16.5 -41.001 -16.5c-16 0 -29 5.33301 -39 16z" />
    <glyph glyph-name="aogonek" unicode="&#x105;" horiz-adv-x="570" 
d="M535 60l0.00292969 -55.002c-19.333 -8 -36.333 -17.333 -51 -28s-27.167 -21.667 -37.5 -33s-18.166 -22.166 -23.499 -32.499s-8 -19.166 -8 -26.499c0 -14.667 4.16699 -25.834 12.5 -33.501s19.166 -11.5 32.499 -11.5l45 7l10 -47
c-12 -7.33301 -24.333 -12.5 -37 -15.5s-25.334 -4.5 -38.001 -4.5c-28.667 0 -53.334 7.83301 -74.001 23.5s-31 37.834 -31 66.501c0 20 4.16699 37.667 12.5 53s18.166 28.333 29.499 39s22.833 19.167 34.5 25.5l26.5 14.5l-58 -2l-21 70
c-53.333 -53.333 -106 -80 -158 -80s-91 13 -117 39s-39 63 -39 111c0 103.333 76.667 155 230 155h80v80c0 60 -31.667 90 -95 90c-36 0 -65.667 -3.66699 -89 -11l-12 -4l-14 -75h-65l-5 125c72 26.667 138 40 198 40c58.667 0 103.667 -11.833 135 -35.5
s47 -63.5 47 -119.5v-305zM338.003 129.998l17.001 20v80h-70c-50 0 -85.5 -6.5 -106.5 -19.5s-31.5 -33.167 -31.5 -60.5c0 -26 6.16699 -45.833 18.5 -59.5s30.166 -20.5 53.499 -20.5c11.333 0 22.833 2 34.5 6s23 9 34 15s20.833 12.5 29.5 19.5s15.667 13.5 21 19.5z
" />
    <glyph glyph-name="eogonek" unicode="&#x119;" horiz-adv-x="530" 
d="M458 125l35 -51.998c-26 -16.667 -49.5 -33.667 -70.5 -51s-38.667 -34.333 -53 -51s-25.5 -32.5 -33.5 -47.5s-12 -27.833 -12 -38.5c0 -14.667 4.16699 -25.834 12.5 -33.501s19.166 -11.5 32.499 -11.5l45 7l10 -47c-12 -7.33301 -24.5 -12.5 -37.5 -15.5
s-25.833 -4.5 -38.5 -4.5c-28.667 0 -53.167 7.83301 -73.5 23.5s-30.5 39.5 -30.5 71.5c0 37.333 22.667 76.666 68 117.999c-11.333 -2 -22 -3 -32 -3c-78.667 0 -138.334 23.833 -179.001 71.5s-61 112.834 -61 195.501c0 41.333 6 79.333 18 114s28.833 64.5 50.5 89.5
s47.5 44.5 77.5 58.5s63 21 99 21c140 0 210 -78.333 210 -235l-5 -53l-345 -2c0 -54.667 13.167 -98.334 39.5 -131.001s61.5 -49 105.5 -49c14.667 0 29.334 1.33301 44.001 4s28.667 6 42 10s25.333 8.5 36 13.5s19.334 9.83301 26.001 14.5zM149 325.002h240
c0 40.667 -8.66699 73.667 -26 99s-45.333 38 -84 38c-38 0 -68.333 -12.833 -91 -38.5s-35.667 -58.5 -39 -98.5z" />
    <glyph glyph-name="dotlessi" unicode="&#x131;" horiz-adv-x="335" 
d="M225 530v-450l75 -25v-55h-260v55l85 25v370l-85 20v55z" />
    <glyph glyph-name="Lslash" unicode="&#x141;" horiz-adv-x="540" 
d="M235 620v-218l145 70l21 -75l-166 -80v-237h205l20 115h70v-195h-485v60l85 20v193l-84 -40l-21 75l105 50v262l-85 20v55l275 5v-60z" />
    <glyph glyph-name="lslash" unicode="&#x142;" horiz-adv-x="361" 
d="M237 770v-337l99 47l20 -75l-119 -57v-268l100 -25v-55h-287v55l85 25v227l-94 -45l-21 74l115 55v299l-85 20v55z" />
    <glyph glyph-name="OE" unicode="&#x152;" horiz-adv-x="940" 
d="M385 705l150 -5.00195l330 5v-175h-65l-25 90h-215v-215h230v-80h-230v-245h230l20 100h65v-180h-350l-160 -5c-98.667 0 -174.167 29.667 -226.5 89s-78.5 145.333 -78.5 258c0 56 7.66699 106.333 23 151s37 82.834 65 114.501s62 55.834 102 72.501s85 25 135 25z
M455 619.998l-41.5 3.5c-12.333 1 -23.5 1.5 -33.5 1.5c-136.667 0 -205 -91.667 -205 -275s65 -275 195 -275l85 5v540z" />
    <glyph glyph-name="oe" unicode="&#x153;" horiz-adv-x="915" 
d="M484 436c42 69.333 104.002 104.002 186.002 104.002c140 0 210 -78.333 210 -235l-5 -53l-345 -2c0 -54.667 13.167 -98.334 39.5 -131.001s61.5 -49 105.5 -49c14.667 0 29.334 1.33301 44.001 4s28.5 6 41.5 10s24.833 8.5 35.5 13.5s19.667 9.83301 27 14.5l20 13
l35 -52c-22.667 -18.667 -43.5 -32.667 -62.5 -42s-41.333 -18.5 -67 -27.5s-53.5 -13.5 -83.5 -13.5c-87.333 0 -150 34.333 -188 103c-44.667 -68.667 -110.334 -103 -197.001 -103c-76.667 0 -135.834 22.667 -177.501 68s-62.5 111.666 -62.5 198.999
c0 42.667 6.16699 81.5 18.5 116.5s29.833 64.833 52.5 89.5s50 43.667 82 57s67.667 20 107 20c79.333 0 140.666 -34.667 183.999 -104zM290.002 460.002c-96.667 0 -145 -65 -145 -195s46.667 -195 140 -195c96.667 0 145 66.667 145 200c0 58.667 -11.333 105 -34 139
s-58 51 -106 51zM534.002 325.002h240c0 40.667 -8.66699 73.667 -26 99s-45.333 38 -84 38c-38 0 -68.333 -12.833 -91 -38.5s-35.667 -58.5 -39 -98.5z" />
    <glyph glyph-name="Scaron" unicode="&#x160;" horiz-adv-x="600" 
d="M150 205l19.9971 -104.997c12 -6.66699 28.333 -12.5 49 -17.5s41 -7.5 61 -7.5s39.333 2.5 58 7.5s35 12.167 49 21.5s25.167 20.5 33.5 33.5s12.5 27.833 12.5 44.5c0 19.333 -5.33301 35.5 -16 48.5s-24.5 24.333 -41.5 34s-36.167 18.167 -57.5 25.5l-65 23
c-23.333 10 -45.833 20.167 -67.5 30.5s-41 23 -58 38s-30.5 33.167 -40.5 54.5s-15 47.666 -15 78.999c0 33.333 6.5 62.333 19.5 87s30.333 45 52 61s47 27.833 76 35.5s59.5 11.5 91.5 11.5c14.667 0 30.334 -1 47.001 -3s33 -4.5 49 -7.5s31 -6.33301 45 -10l36 -9.5
l32 -10l-5 -170h-65l-34 107c-18.667 6 -37.167 10.333 -55.5 13s-37.166 4 -56.499 4s-36.833 -2.5 -52.5 -7.5s-29 -11.833 -40 -20.5s-19.5 -18.334 -25.5 -29.001s-9 -21.667 -9 -33c0.666992 -28 10 -50 28 -66s40.333 -29.667 67 -41s55.5 -22 86.5 -32
s59.667 -22.5 86 -37.5s48.333 -34.5 66 -58.5s26.5 -55.333 26.5 -94c0 -34.667 -6.66699 -65.334 -20 -92.001s-31.666 -49.167 -54.999 -67.5s-51 -32.333 -83 -42s-66.333 -14.5 -103 -14.5c-14.667 0 -30.5 1 -47.5 3s-33.667 4.5 -50 7.5s-31.5 6.33301 -45.5 10
s-25.667 7.16699 -35 10.5l-28 10v175h80zM294.997 820.003l140 110l35 -45l-145 -140h-60l-152 140l42 45z" />
    <glyph glyph-name="scaron" unicode="&#x161;" horiz-adv-x="475" 
d="M46 160l70 0.00195312l11 -86c6.66699 -2.66699 17.167 -4.83398 31.5 -6.50098s28.5 -2.5 42.5 -2.5c43.333 0 74.833 6.5 94.5 19.5s29.5 32.833 29.5 59.5c0 18 -6.83301 32.333 -20.5 43s-30.834 19.667 -51.501 27s-43.167 14.666 -67.5 21.999
s-46.833 16.833 -67.5 28.5s-37.834 26.834 -51.501 45.501s-20.5 43.334 -20.5 74.001c0 50 16.667 88.167 50 114.5s77.666 40.166 132.999 41.499c23.333 -0.666992 47.166 -2.5 71.499 -5.5s49.166 -8.5 74.499 -16.5l25 -8l-3 -135h-65l-16 78
c-5.33301 2 -15.666 4.5 -30.999 7.5s-31.666 4.5 -48.999 4.5c-12 0 -23.333 -1 -34 -3s-20.167 -5.33301 -28.5 -10s-15 -11.334 -20 -20.001s-7.5 -19.334 -7.5 -32.001c0 -19.333 6.83301 -34.5 20.5 -45.5s30.834 -20.5 51.501 -28.5s43.167 -15.667 67.5 -23
s46.833 -16.833 67.5 -28.5s37.834 -26.5 51.501 -44.5s20.5 -41.667 20.5 -71c0 -28 -6 -52.667 -18 -74s-28.167 -39.166 -48.5 -53.499s-44 -25 -71 -32s-55.833 -10.5 -86.5 -10.5c-11.333 0 -23.166 0.5 -35.499 1.5s-24.5 2.33301 -36.5 4s-23.167 3.5 -33.5 5.5
s-18.833 4 -25.5 6l-23 6zM231 676.002l140 110l35 -45l-145 -140h-60l-152 140l42 45z" />
    <glyph glyph-name="Ydieresis" unicode="&#x178;" horiz-adv-x="645" 
d="M185 0v60l85 20v179l-193 362l-67 19v55l250 5v-60l-68 -20l133 -280l147 280l-77 20v55l240 5v-60l-62 -18l-198 -361v-181l85 -20v-60h-275zM174 781c-9.33301 10.667 -14 24.999 -14 42.999s5.16699 32.667 15.5 44s23.833 17 40.5 17s29.834 -5.66699 39.501 -17
s14.5 -25.666 14.5 -42.999c0 -18 -5.33301 -32.5 -16 -43.5s-24.334 -16.5 -41.001 -16.5c-16 0 -29 5.33301 -39 16zM379 780.999c-9.33301 10.667 -14 24.999 -14 42.999s5.16699 32.667 15.5 44s23.833 17 40.5 17s29.834 -5.66699 39.501 -17
s14.5 -25.666 14.5 -42.999c0 -18 -5.33301 -32.5 -16 -43.5s-24.334 -16.5 -41.001 -16.5c-16 0 -29 5.33301 -39 16z" />
    <glyph glyph-name="florin" unicode="&#x192;" horiz-adv-x="440" 
d="M-50 -120h55.001c30.667 0 52.667 7.83301 66 23.5s21.333 39.5 24 71.5l36 400h-86l2 65l91 10l12 135c5.33301 61.333 24.5 109.166 57.5 143.499s78.833 51.5 137.5 51.5l75 -6l-5 -74h-70c-30.667 0 -52.667 -7.83301 -66 -23.5s-21.333 -39.5 -24 -71.5l-12 -155
h142l-2 -75h-147l-34 -380c-5.33301 -61.333 -24.833 -109.166 -58.5 -143.499s-79.834 -51.5 -138.501 -51.5l-65 6z" />
    <glyph glyph-name="circumflex" unicode="&#x2c6;" horiz-adv-x="520" 
d="M395 650l-133 93l-137 -93l-40 45l145 120l60 5l145 -125z" />
    <glyph glyph-name="caron" unicode="&#x2c7;" horiz-adv-x="517" 
d="M262 710l140 110l35 -45l-145 -140h-60l-152 140l42 45z" />
    <glyph glyph-name="breve" unicode="&#x2d8;" horiz-adv-x="440" 
d="M300 765l60 4.99902c0 -22 -3.83301 -42.167 -11.5 -60.5s-18 -34.166 -31 -47.499s-28 -23.666 -45 -30.999s-35.167 -11 -54.5 -11s-37.5 3.66699 -54.5 11s-31.667 17.5 -44 30.5s-22 28.333 -29 46s-10.5 36.834 -10.5 57.501l60 5
c0 -6.66699 1.83301 -14.334 5.5 -23.001s8.83398 -16.834 15.501 -24.501s14.667 -14.167 24 -19.5s20 -8 32 -8c24.667 0 43.167 5.83301 55.5 17.5s20.166 23.5 23.499 35.5z" />
    <glyph glyph-name="dotaccent" unicode="&#x2d9;" horiz-adv-x="290" 
d="M104 656c-9.33301 10.667 -14 24.999 -14 42.999s5.16699 32.667 15.5 44s23.833 17 40.5 17s29.834 -5.66699 39.501 -17s14.5 -25.666 14.5 -42.999c0 -18 -5.33301 -32.5 -16 -43.5s-24.334 -16.5 -41.001 -16.5c-16 0 -29 5.33301 -39 16z" />
    <glyph glyph-name="ring" unicode="&#x2da;" horiz-adv-x="390" 
d="M114 624c-22.667 20 -34.0029 47.0029 -34.0029 81.0029c0 17.333 3.33301 33.166 10 47.499s15.5 26.5 26.5 36.5s23.5 17.667 37.5 23s28 8 42 8s27.833 -2.5 41.5 -7.5s25.834 -12.333 36.501 -22s19.334 -21.334 26.001 -35.001s10 -28.834 10 -45.501
c0 -18 -3.5 -34 -10.5 -48s-16 -26 -27 -36s-23.5 -17.667 -37.5 -23s-28 -8 -42 -8c-29.333 0 -55.666 9.66699 -78.999 29zM139.997 707.003c0 -41.333 18.333 -62 55 -62c16 0 29.167 5.66699 39.5 17s15.5 26.666 15.5 45.999c0 41.333 -18.333 62 -55 62
c-16 0 -29.167 -5.66699 -39.5 -17s-15.5 -26.666 -15.5 -45.999z" />
    <glyph glyph-name="ogonek" unicode="&#x2db;" horiz-adv-x="310" 
d="M240 -153l10.002 -47.001c-12 -6 -24.5 -10.833 -37.5 -14.5s-25.833 -5.5 -38.5 -5.5c-30 0 -54.833 8.16699 -74.5 24.5s-29.5 39.833 -29.5 70.5c0 14.667 3 29 9 43s14.5 26.167 25.5 36.5s22.167 19.5 33.5 27.5s21.333 14 30 18l12 5h90
c-19.333 -8 -36.333 -17.333 -51 -28s-27.334 -21.667 -38.001 -33s-18.5 -22.166 -23.5 -32.499s-7.5 -19.166 -7.5 -26.499c0 -14.667 4.16699 -25.834 12.5 -33.501s19.166 -11.5 32.499 -11.5z" />
    <glyph glyph-name="tilde" unicode="&#x2dc;" 
d="M130 635l-35 35.002c12 28 28 50.667 48 68s41.333 26 64 26c13.333 0 26.5 -2 39.5 -6s27.833 -9.33301 44.5 -16s31.667 -12.334 45 -17.001s24.333 -7 33 -7c16 0 29.333 3.5 40 10.5s18.334 14.167 23.001 21.5l8 10l35 -35c-2.66699 -8 -7.33398 -17 -14.001 -27
s-14.667 -20.5 -24 -31.5s-19.666 -19 -30.999 -24s-24 -7.5 -38 -7.5c-11.333 0 -24.833 2.16699 -40.5 6.5s-31.5 9.66602 -47.5 15.999s-30.333 11.5 -43 15.5s-23.334 6 -32.001 6c-15.333 -0.666992 -29 -4.5 -41 -11.5s-20.667 -14.167 -26 -21.5z" />
    <glyph glyph-name="hungarumlaut" unicode="&#x2dd;" horiz-adv-x="580" 
d="M510 785l-180 -150l-45 50l165 165zM310 785l-180 -150l-45 50l165 165z" />
    <glyph glyph-name="uni0394" unicode="&#x394;" horiz-adv-x="666" 
d="M20 71l264 649h98l264 -650v-70h-626v71zM329 607l-210 -527h420z" />
    <glyph glyph-name="uni0394" unicode="&#x2206;" horiz-adv-x="666" 
d="M20 71l264 649h98l264 -650v-70h-626v71zM329 607l-210 -527h420z" />
    <glyph glyph-name="uni03A9" unicode="&#x3a9;" horiz-adv-x="755" 
d="M65 80h132.003c-18.667 16 -35.834 34.5 -51.501 55.5s-29 43.833 -40 68.5s-19.667 50.667 -26 78s-9.5 55 -9.5 83c0 52.667 7.5 100.334 22.5 143.001s36 79 63 109s59.667 53 98 69s81.166 24 128.499 24c48 0 90.833 -7.83301 128.5 -23.5
s69.334 -38.167 95.001 -67.5s45.334 -64.666 59.001 -105.999s20.5 -87.333 20.5 -138c0 -28.667 -3.16699 -57 -9.5 -85s-15.333 -54.667 -27 -80s-25.334 -49 -41.001 -71s-32.834 -41.333 -51.501 -58l134 4v-85h-255l1 65c7.33301 3.33301 15.333 8.33301 24 15
s17.5 14.5 26.5 23.5s17.5 18.833 25.5 29.5s15 21 21 31c12 20.667 22.833 49.167 32.5 85.5s14.5 76.5 14.5 120.5c0 83.333 -17.833 146.666 -53.5 189.999s-84.834 65 -147.501 65s-112.334 -20.833 -149.001 -62.5s-55 -105.834 -55 -192.501
c0 -52 5.83301 -96.5 17.5 -133.5s25.334 -67.5 41.001 -91.5s31.5 -42.333 47.5 -55s28.667 -21 38 -25l1 -65h-255v80z" />
    <glyph glyph-name="uni03A9" unicode="&#x2126;" horiz-adv-x="755" 
d="M65 80h132.003c-18.667 16 -35.834 34.5 -51.501 55.5s-29 43.833 -40 68.5s-19.667 50.667 -26 78s-9.5 55 -9.5 83c0 52.667 7.5 100.334 22.5 143.001s36 79 63 109s59.667 53 98 69s81.166 24 128.499 24c48 0 90.833 -7.83301 128.5 -23.5
s69.334 -38.167 95.001 -67.5s45.334 -64.666 59.001 -105.999s20.5 -87.333 20.5 -138c0 -28.667 -3.16699 -57 -9.5 -85s-15.333 -54.667 -27 -80s-25.334 -49 -41.001 -71s-32.834 -41.333 -51.501 -58l134 4v-85h-255l1 65c7.33301 3.33301 15.333 8.33301 24 15
s17.5 14.5 26.5 23.5s17.5 18.833 25.5 29.5s15 21 21 31c12 20.667 22.833 49.167 32.5 85.5s14.5 76.5 14.5 120.5c0 83.333 -17.833 146.666 -53.5 189.999s-84.834 65 -147.501 65s-112.334 -20.833 -149.001 -62.5s-55 -105.834 -55 -192.501
c0 -52 5.83301 -96.5 17.5 -133.5s25.334 -67.5 41.001 -91.5s31.5 -42.333 47.5 -55s28.667 -21 38 -25l1 -65h-255v80z" />
    <glyph glyph-name="pi" unicode="&#x3c0;" horiz-adv-x="690" 
d="M570 68c16 0 36 4 60 12l25 -50c-36.667 -26.667 -76.667 -40 -120 -40c-31.333 0 -57.5 11.333 -78.5 34s-31.5 59.667 -31.5 111v315h-205v-450h-95v450l-85 20v55l180 5h385v-60l-85 -15v-326c0 -40.667 16.667 -61 50 -61z" />
    <glyph glyph-name="endash" unicode="&#x2013;" horiz-adv-x="500" 
d="M0 285v80h500v-80h-500z" />
    <glyph glyph-name="emdash" unicode="&#x2014;" horiz-adv-x="970" 
d="M0 285v80h970v-80h-970z" />
    <glyph glyph-name="quoteleft" unicode="&#x2018;" horiz-adv-x="280" 
d="M130 496c-43.333 0 -65 24.665 -65 73.998c0 58.667 38.333 128.667 115 210l45 -38c-35.333 -47.333 -53 -82.666 -53 -105.999c0 -4 1.16699 -8.5 3.5 -13.5l8.5 -18c3.33301 -7 6 -14.667 8 -23s3 -16.166 3 -23.499c0 -16 -6 -30.333 -18 -43s-27.667 -19 -47 -19z
" />
    <glyph glyph-name="quoteright" unicode="&#x2019;" horiz-adv-x="280" 
d="M55 534c35.333 47.333 53 82.667 53 106c0 4 -1.16699 8.33301 -3.5 13s-5 10.667 -8 18s-5.66699 15 -8 23s-3.5 16 -3.5 24c0 16 6 30.333 18 43s27.667 19 47 19c43.333 0 65 -24.667 65 -74c0 -58.667 -38.333 -128.667 -115 -210z" />
    <glyph glyph-name="quotesinglbase" unicode="&#x201a;" horiz-adv-x="280" 
d="M55 -136c35.333 47.333 53 82.667 53 106c0 2 -1 5.83301 -3 11.5s-4.83301 12.167 -8.5 19.5s-6.5 15 -8.5 23s-3 16 -3 24c0 16 6 30.333 18 43s27.667 19 47 19c43.333 0 65 -24.667 65 -74c0 -58.667 -38.333 -128.667 -115 -210z" />
    <glyph glyph-name="quotedblleft" unicode="&#x201c;" horiz-adv-x="475" 
d="M325 496c-43.333 0 -65 24.665 -65 73.998c0 58.667 38.333 128.667 115 210l45 -38c-35.333 -47.333 -53 -82.666 -53 -105.999c0 -4 1.16699 -8.5 3.5 -13.5l8.5 -18c3.33301 -7 6 -14.667 8 -23s3 -16.166 3 -23.499c0 -16 -6 -30.333 -18 -43s-27.667 -19 -47 -19z
M130 495.998c-43.333 0 -65 24.665 -65 73.998c0 58.667 38.333 128.667 115 210l45 -38c-35.333 -47.333 -53 -82.666 -53 -105.999c0 -4 1.16699 -8.5 3.5 -13.5l8.5 -18c3.33301 -7 6 -14.667 8 -23s3 -16.166 3 -23.499c0 -16 -6 -30.333 -18 -43s-27.667 -19 -47 -19z
" />
    <glyph glyph-name="quotedblright" unicode="&#x201d;" horiz-adv-x="475" 
d="M55 534c35.333 47.333 53 82.667 53 106c0 3.33301 -1 7.5 -3 12.5s-4.83301 11.167 -8.5 18.5s-6.5 15 -8.5 23s-3 16 -3 24c0 16 6 30.333 18 43s27.667 19 47 19c43.333 0 65 -24.667 65 -74c0 -58.667 -38.333 -128.667 -115 -210zM250 534.001
c35.333 47.333 53 82.667 53 106c0 3.33301 -1 7.5 -3 12.5s-4.83301 11.167 -8.5 18.5s-6.5 15 -8.5 23s-3 16 -3 24c0 16 6 30.333 18 43s27.667 19 47 19c43.333 0 65 -24.667 65 -74c0 -58.667 -38.333 -128.667 -115 -210z" />
    <glyph glyph-name="quotedblbase" unicode="&#x201e;" horiz-adv-x="475" 
d="M55 -136c35.333 47.333 53 82.667 53 106c0 2 -1 5.83301 -3 11.5s-4.83301 12.167 -8.5 19.5s-6.5 15 -8.5 23s-3 16 -3 24c0 16 6 30.333 18 43s27.667 19 47 19c43.333 0 65 -24.667 65 -74c0 -58.667 -38.333 -128.667 -115 -210zM250 -135.999
c35.333 47.333 52.999 82.667 52.999 106c0 2 -1.16699 5.83301 -3.5 11.5s-5.16602 12.167 -8.49902 19.5s-6 15 -8 23s-3 16 -3 24c0 16 6 30.333 18 43s27.667 19 47 19c43.333 0 65 -24.667 65 -74c0 -58.667 -38.333 -128.667 -115 -210z" />
    <glyph glyph-name="dagger" unicode="&#x2020;" horiz-adv-x="495" 
d="M290 755l-5 -155h170v-70l-208 -25l-207 25v70h169l-4 150zM195 455l10 -415l42 -40l43 40l10 415l-53 -10z" />
    <glyph glyph-name="daggerdbl" unicode="&#x2021;" horiz-adv-x="495" 
d="M40 530v70h169l-4 150l85 5l-5 -155h170v-70l-208 -25zM199 303l6 -263l42 -40l43 40l6 263l-49 -10zM81 396v73l166 -24l166 24v-73l-166 -42z" />
    <glyph glyph-name="bullet" unicode="&#x2022;" horiz-adv-x="505" 
d="M132 202c-31.333 31.333 -47 69 -47 113c0 22 4.16699 42.667 12.5 62s19.833 36.166 34.5 50.499s31.667 25.833 51 34.5s40 13 62 13s42.667 -4.33301 62 -13s36.166 -20.167 50.499 -34.5s25.833 -31.166 34.5 -50.499s13 -40 13 -62s-4.33301 -42.667 -13 -62
s-20.167 -36.333 -34.5 -51s-31.166 -26.167 -50.499 -34.5s-40 -12.5 -62 -12.5c-44 0 -81.667 15.667 -113 47z" />
    <glyph glyph-name="ellipsis" unicode="&#x2026;" horiz-adv-x="720" 
d="M119 -10c-19.333 0 -34.833 6.16797 -46.5 18.501s-17.5 29.166 -17.5 50.499c0 22 6.16699 39.333 18.5 52s28.166 19 47.499 19s34.833 -6.16699 46.5 -18.5s17.5 -29.5 17.5 -51.5c0 -21.333 -6.16699 -38.333 -18.5 -51s-28.166 -19 -47.499 -19zM359 -9.99902
c-19.333 0 -34.833 6.16797 -46.5 18.501s-17.5 29.166 -17.5 50.499c0 22 6.16699 39.333 18.5 52s28.166 19 47.499 19s34.833 -6.16699 46.5 -18.5s17.5 -29.5 17.5 -51.5c0 -21.333 -6.16699 -38.333 -18.5 -51s-28.166 -19 -47.499 -19zM599 -9.99805
c-19.333 0 -34.833 6.16797 -46.5 18.501s-17.5 29.166 -17.5 50.499c0 22 6.16699 39.333 18.5 52s28.166 19 47.499 19s34.833 -6.16699 46.5 -18.5s17.5 -29.5 17.5 -51.5c0 -21.333 -6.16699 -38.333 -18.5 -51s-28.166 -19 -47.499 -19z" />
    <glyph glyph-name="perthousand" unicode="&#x2030;" horiz-adv-x="1175" 
d="M155 0l405 700h90l-405 -700h-90zM201 360c-48 0 -86.001 14.001 -114.001 42.001s-42 70.333 -42 127c0 28 4 53.333 12 76s19.333 41.667 34 57s31.834 27.166 51.501 35.499s41.5 12.5 65.5 12.5c48 0 86.167 -14.5 114.5 -43.5s42.5 -71.833 42.5 -128.5
s-15.167 -100.5 -45.5 -131.5s-69.833 -46.5 -118.5 -46.5zM204.999 645.001c-56.667 0 -85 -36.667 -85 -110s28.333 -110 85 -110s85 36.667 85 110s-28.333 110 -85 110zM595.999 -9.99902c-48 0 -86.001 14.001 -114.001 42.001s-42 70.333 -42 127c0 28 4 53.333 12 76
s19.333 41.667 34 57s31.834 27.166 51.501 35.499s41.5 12.5 65.5 12.5c48 0 86.167 -14.5 114.5 -43.5s42.5 -71.833 42.5 -128.5s-15.167 -100.5 -45.5 -131.5s-69.833 -46.5 -118.5 -46.5zM599.998 275.002c-56.667 0 -85 -36.667 -85 -110s28.333 -110 85 -110
s85 36.667 85 110s-28.333 110 -85 110zM960.998 -9.99805c-48 0 -86.001 14.001 -114.001 42.001s-42 70.333 -42 127c0 28 4 53.333 12 76s19.333 41.667 34 57s31.834 27.166 51.501 35.499s41.5 12.5 65.5 12.5c48 0 86.167 -14.5 114.5 -43.5s42.5 -71.833 42.5 -128.5
s-15.167 -100.5 -45.5 -131.5s-69.833 -46.5 -118.5 -46.5zM964.997 275.003c-56.667 0 -85 -36.667 -85 -110s28.333 -110 85 -110s85 36.667 85 110s-28.333 110 -85 110z" />
    <glyph glyph-name="guilsinglleft" unicode="&#x2039;" horiz-adv-x="315" 
d="M145 265l115 -150l-60 -40l-145 160v60l145 160l60 -40z" />
    <glyph glyph-name="guilsinglright" unicode="&#x203a;" horiz-adv-x="315" 
d="M60 115l115 150l-115 150l60 40l145 -160v-60l-145 -160z" />
    <glyph glyph-name="fraction" unicode="&#x2044;" horiz-adv-x="470" 
d="M-15 0l405 700h90l-405 -700h-90z" />
    <glyph glyph-name="uni2074" unicode="&#x2074;" horiz-adv-x="406" 
d="M15 430l203 280l98 -10v-264h70v-65h-70v-91h-85v91h-210zM231 615l-129 -179h129v179z" />
    <glyph glyph-name="Euro" unicode="&#x20ac;" horiz-adv-x="628" 
d="M15 380v70.002h71c7.33301 38 18.166 73 32.499 105s32.166 58.667 53.499 80s48.333 39.166 81 53.499s69.667 21.5 111 21.5c36.667 0 71 -3.33301 103 -10s56 -13.334 72 -20.001l24 -10l-5 -139h-65l-13 80c-32 12.667 -73.667 19 -125 19
c-25.333 0 -47.166 -5.16699 -65.499 -15.5s-33.5 -24 -45.5 -41s-21.667 -36.333 -29 -58s-12.666 -43.5 -15.999 -65.5h246v-70h-430zM15 310.002v-69.999h75c0.666992 -6.66699 2.5 -19.167 5.5 -37.5s9.33301 -39 19 -62s24.167 -46 43.5 -69s46 -42.5 80 -58.5
c16.667 -8 33.834 -13.833 51.501 -17.5s35.167 -5.5 52.5 -5.5c34 0 63.833 3 89.5 9s48.167 13.833 67.5 23.5s45.666 27.167 78.999 52.5l10 10l-40 60c-17.333 -14 -34 -24.833 -50 -32.5s-35 -15.5 -57 -23.5s-46 -12 -72 -12c-32 0.666992 -58.5 6.83398 -79.5 18.501
s-37.167 25.667 -48.5 42s-20.333 33.666 -27 51.999s-11 35.166 -13 50.499h244v70h-430z" />
    <glyph glyph-name="trademark" unicode="&#x2122;" horiz-adv-x="952" 
d="M316 365v-45h-207v45l65 13v265h-74l-12 -68h-48v125h345v-125h-48l-12 68h-74v-265zM717 320v45l57 13v217l-93 -167l-51 -6l-89 168v-212l62 -13v-45h-177v45l52 13v265l-52 10v44l139 3l96 -191l99 188l132 3v-45l-50 -12v-265l50 -13v-45h-175z" />
    <glyph glyph-name="partialdiff" unicode="&#x2202;" horiz-adv-x="605" 
d="M140 760c46 13.333 86.001 20.001 120.001 20.001c190 0 285 -126.667 285 -380c0 -56 -5.83301 -108.833 -17.5 -158.5s-29.167 -93.167 -52.5 -130.5s-53 -66.833 -89 -88.5s-78 -32.5 -126 -32.5c-31.333 0 -60.166 5.16699 -86.499 15.5s-49 25 -68 44
s-33.833 42.167 -44.5 69.5s-16 57.666 -16 90.999s5.33301 64 16 92s25.667 52.333 45 73s42.5 36.667 69.5 48s56.833 17 89.5 17c16 0 32.167 -1.83301 48.5 -5.5s31.5 -8 45.5 -13s26.667 -10.5 38 -16.5s20 -11.667 26 -17l20 -18c0.666992 10 1.16699 19.5 1.5 28.5
s0.5 17.833 0.5 26.5c0 40.667 -3.83301 77.834 -11.5 111.501s-19.334 62.667 -35.001 87s-35.834 43.166 -60.501 56.499s-54 20 -88 20c-14.667 0.666992 -29.167 0 -43.5 -2l-42.5 -6l-14 -2zM435.001 285.001c-12 16.667 -32.165 32.1641 -60.498 46.4971
s-61.5 21.5 -99.5 21.5c-40.667 0 -71.667 -12.167 -93 -36.5s-32 -57.5 -32 -99.5c0 -21.333 2.83301 -40.666 8.5 -57.999s13.5 -32.166 23.5 -44.499s21.667 -22 35 -29s27.666 -10.5 42.999 -10.5c29.333 0 54.5 7 75.5 21s38.167 30.833 51.5 50.5
s23.666 40.334 30.999 62.001s12 40.167 14 55.5z" />
    <glyph glyph-name="product" unicode="&#x220f;" horiz-adv-x="720" 
d="M220 -230h-100v850l-85 20v55l185 5h465v-60l-83 -20h-2v-850h-100v850h-280v-850z" />
    <glyph glyph-name="summation" unicode="&#x2211;" horiz-adv-x="595" 
d="M35 -230v75l280 395l-285 385v75h505v-170h-65l-25 90h-290l275 -368l-285 -402h310l20 100h70v-180h-510z" />
    <glyph glyph-name="minus" unicode="&#x2212;" horiz-adv-x="580" 
d="M50 230v80h480v-80h-480z" />
    <glyph glyph-name="radical" unicode="&#x221a;" horiz-adv-x="670" 
d="M70 455l-55 15v55l135 5l139 -440l186 675l190 5v-55l-118 -15l-207 -700h-110z" />
    <glyph glyph-name="infinity" unicode="&#x221e;" horiz-adv-x="880" 
d="M645 130c-38 0 -73.3311 9.66797 -105.998 29.001s-67.334 46.333 -104.001 81c-4.66699 -4.66699 -13.5 -13 -26.5 -25s-29 -24.333 -48 -37s-40.167 -23.834 -63.5 -33.501s-47.333 -14.5 -72 -14.5c-54 0 -95.833 14.5 -125.5 43.5s-44.5 67.833 -44.5 116.5
c0 24.667 4.16699 47.5 12.5 68.5s20.166 39 35.499 54s34.166 26.667 56.499 35s47.5 12.5 75.5 12.5c36.667 0 71.167 -9.66699 103.5 -29s67.5 -46.333 105.5 -81c73.333 73.333 143.666 110 210.999 110c54 0 95.833 -14.333 125.5 -43s44.5 -68 44.5 -118
c0 -24 -4.16699 -46.333 -12.5 -67s-20.166 -38.5 -35.499 -53.5s-34.166 -26.833 -56.499 -35.5s-47.5 -13 -75.5 -13zM650.002 385.001c-44 0 -94.333 -29.333 -151 -88c31.333 -30.667 58.5 -53.667 81.5 -69s46.167 -23 69.5 -23c60 0 90 30 90 90s-30 90 -90 90z
M230.002 205.001c43.333 0 93.333 29.333 150 88c-30.667 30 -57.667 52.833 -81 68.5s-46.333 23.5 -69 23.5c-60 0 -90 -30 -90 -90s30 -90 90 -90z" />
    <glyph glyph-name="integral" unicode="&#x222b;" horiz-adv-x="382" 
d="M367 715l-6.99902 -68c-18 5.33301 -38.333 8 -61 8c-23.333 0 -40.666 -9.16699 -51.999 -27.5s-17 -51.833 -17 -100.5c0 -12 0.166992 -31 0.5 -57s1 -55.667 2 -89s1.83301 -69 2.5 -107s1.5 -75.5 2.5 -112.5s1.66699 -71.833 2 -104.5s0.5 -60 0.5 -82
c0 -143.333 -53.333 -215 -160 -215c-16 0 -37 4 -63 12l-12 3l5 65c10 -1.33301 19.5 -2.5 28.5 -3.5s17.833 -1.5 26.5 -1.5c27.333 0 46.666 9.16699 57.999 27.5s17 51.833 17 100.5c0 12 -0.166992 31 -0.5 57s-1 55.833 -2 89.5s-1.83301 69.5 -2.5 107.5
s-1.5 75.167 -2.5 111.5s-1.66699 70 -2 101s-0.5 56.5 -0.5 76.5c0 72 12.667 127.333 38 166s66.333 58 123 58c7.33301 0.666992 16.166 -0.333008 26.499 -3l36.5 -9z" />
    <glyph glyph-name="approxequal" unicode="&#x2248;" horiz-adv-x="626" 
d="M106 279l-46 31.001c6.66699 13.333 13.5 24.166 20.5 32.499s16.667 18.166 29 29.499s27.5 20.5 45.5 27.5s39.667 10.5 65 10.5c12 0 27.167 -3.16699 45.5 -9.5s37.5 -14.666 57.5 -24.999s38.333 -18.833 55 -25.5s30.334 -10 41.001 -10
c20.667 -0.666992 38.667 4.16602 54 14.499s27 20.5 35 30.5l12 15l46 -31c-4.66699 -9.33301 -11.5 -19.833 -20.5 -31.5s-19.667 -23 -32 -34s-26.333 -20.167 -42 -27.5s-32.5 -11 -50.5 -11c-15.333 0 -33.333 3.16699 -54 9.5s-41.834 14.833 -63.501 25.5
s-41 19.167 -58 25.5s-31.5 9.5 -43.5 9.5c-20 0 -37.5 -4.66699 -52.5 -14s-26.167 -18.666 -33.5 -27.999zM106 114.001l-46 31.002l6 11c2.66699 5.33301 7.5 12.5 14.5 21.5s16.5 18.833 28.5 29.5s27.167 19.667 45.5 27s40.166 11 65.499 11c12 0 27.167 -3 45.5 -9
s37.5 -14.667 57.5 -26s38.833 -20 56.5 -26s30.834 -9 39.501 -9c20.667 -0.666992 38.667 4.16602 54 14.499s27 20.5 35 30.5l12 15l46 -31c-4.66699 -9.33301 -11.5 -19.833 -20.5 -31.5s-19.667 -23 -32 -34s-26.333 -20.167 -42 -27.5s-32.5 -11 -50.5 -11
c-14 0 -31.667 3 -53 9s-42.833 14.5 -64.5 25.5s-41.834 19.667 -60.501 26s-32.334 9.5 -41.001 9.5c-19.333 -0.666992 -36.666 -5.33398 -51.999 -14.001s-26.666 -18 -33.999 -28z" />
    <glyph glyph-name="notequal" unicode="&#x2260;" horiz-adv-x="635" 
d="M65 330v80h272l63 130h80l-63 -130h153v-80h-191l-56 -115h247v-80h-285l-65 -135h-80l65 135h-140v80h178l56 115h-234z" />
    <glyph glyph-name="lessequal" unicode="&#x2264;" horiz-adv-x="615" 
d="M55 0v78h505v-78h-505zM165 345l395 -130v-80l-505 175v70l505 170v-80z" />
    <glyph glyph-name="greaterequal" unicode="&#x2265;" horiz-adv-x="615" 
d="M560 78v-78h-505v78h505zM55 215l395 130l-395 125v80l505 -170v-70l-505 -175v80z" />
    <glyph glyph-name="lozenge" unicode="&#x25ca;" horiz-adv-x="510" 
d="M210 -40l-193 406l190 404h90l193 -405l-190 -405h-90zM246 684l-136 -304l151 -334l137 305z" />
    <glyph glyph-name="fi" unicode="&#xfb01;" horiz-adv-x="715" 
d="M70 450l0.000976562 65l90 10v50c0 68.667 18.667 120 56 154s95.333 51 174 51c31.333 0 63.666 -2.83301 96.999 -8.5s59 -11.5 77 -17.5l26 -8v-121h-80l-15 72c-30 5.33301 -63.333 8 -100 8c-90 0 -135 -36.667 -135 -110v-70l345 5v-450l75 -25v-55h-250v55l75 25
v370h-245v-370l82 -25v-55h-267v55l85 25v370h-90z" />
    <glyph glyph-name="fl" unicode="&#xfb02;" horiz-adv-x="757" 
d="M70 450l0.000976562 65l90 10v60c0 62 18.667 110 56 144s88.666 51 153.999 51c56.667 0 123 -2.66699 199 -8l38 -2v-690l73 -25v-55h-250v55l75 25v615c-46.667 6.66699 -87.334 10 -122.001 10c-37.333 0 -67.166 -9.16699 -89.499 -27.5s-33.5 -42.5 -33.5 -72.5
v-80h132l-3 -75h-129v-370l82 -25v-55h-267v55l85 25v370h-90z" />
    <glyph glyph-name=".null" horiz-adv-x="0" 
 />
    <glyph glyph-name="nonmarkingreturn" horiz-adv-x="333" 
 />
    <glyph glyph-name="acute.x" horiz-adv-x="320" 
d="M275 730l-210 -130l-35 50l195 155z" />
    <glyph glyph-name="circumflex.x" horiz-adv-x="520" 
d="M400 635l-138 108l-142 -108l-40 45l150 135l60 5l150 -140z" />
    <glyph glyph-name="asterisk.alt" horiz-adv-x="401" 
d="M25 525l117 50l-117 51l39 69l103 -76l-14 117h80l-14 -117l103 76l39 -69l-117 -51l117 -50l-39 -69l-103 75l14 -117h-80l14 118l-103 -76zM182 581l-40 -6l40 -5l-15 -38l25 31l27 -32l-16 39l41 5l-41 6l16 38l-27 -31l-25 31z" />
    <glyph glyph-name="grave.x" horiz-adv-x="320" 
d="M255 600l-210 130l50 75l195 -155z" />
    <glyph glyph-name="fraction.alt" 
d="M-15 0l520 750l70 -45l-520 -750z" />
    </font>
</defs>
</svg>
